<svg width="120" height="120" viewBox="0 0 120 120" fill="none" xmlns="http://www.w3.org/2000/svg">
<path d="M60 0C93.1401 0 120 26.8653 120 60C120 93.1401 93.1401 120 60 120C26.8653 120 0 93.1374 0 60C0 26.8653 26.8653 0 60 0Z" fill="#F5AC37"/>
<path fill-rule="evenodd" clip-rule="evenodd" d="M31.4255 93.0753V93.2994L31.4147 93.3075V93.3453H57.4403C60.386 93.3858 63.3209 93.1509 66.2154 92.6325C69.2637 92.0358 72.2337 91.0962 75.0661 89.8218C76.2942 89.253 77.4724 88.5655 78.6612 87.872C78.9621 87.6964 79.2637 87.5204 79.567 87.3459C80.9656 86.3496 82.3048 85.2696 83.5792 84.122C87.0677 80.9684 89.7677 77.0345 91.4552 72.6469C91.5686 72.1555 92.0492 71.8396 92.5433 71.9341H99.6309C100.195 71.9341 100.382 71.7451 100.382 71.1079V66.5692C100.419 66.1345 100.419 65.6944 100.382 65.2597C100.382 65.1461 100.411 65.0328 100.44 64.9196C100.498 64.694 100.556 64.4692 100.382 64.2444H94.4604C93.7448 64.2444 93.7448 64.1688 93.7448 63.5316C93.95 61.2474 93.95 58.9551 93.7448 56.6709C93.707 55.9959 93.8582 55.9959 94.382 55.9959H99.558C100.16 55.9959 100.384 55.8447 100.384 55.2453V49.0946C100.366 48.6872 100.356 48.4806 100.248 48.376C100.137 48.2684 99.9217 48.2684 99.4851 48.2684H92.7728C92.249 48.3575 91.7468 48.0038 91.6523 47.48C90.8828 45.4685 89.9027 43.5433 88.7228 41.7424C87.5348 39.9658 86.1956 38.2972 84.7106 36.7555C82.7368 34.7844 80.5201 33.0726 78.1117 31.6551C74.4802 29.5464 70.5084 28.0695 66.3747 27.3054C64.3685 26.9355 62.3408 26.7114 60.2996 26.6304H32.1761C31.4255 26.6304 31.4255 26.7816 31.4255 27.381V47.5934C31.4255 48.3062 31.2743 48.3062 30.7127 48.3062H22.6504C22.051 48.3062 22.051 48.4169 22.051 48.83V55.4289C22.051 56.0283 22.2373 56.0283 22.6882 56.0283H30.8261C31.4255 56.0283 31.4255 56.139 31.4255 56.5899V63.6396C31.4255 64.2768 31.2365 64.2768 30.7505 64.2768H22.051V71.4022C22.051 72.0016 22.2373 72.0016 22.6882 72.0016H30.8261C31.4255 72.0016 31.4255 72.0745 31.4255 72.5632V81.3761V84.338V93.0753ZM83.2147 47.6636C83.2795 47.831 83.2795 48.0173 83.2147 48.1874H83.3956C83.32 48.4115 82.9447 48.4871 82.9447 48.4871H39.6714C38.9586 48.4871 38.9586 48.3359 38.9586 47.7743V34.4631C38.9586 33.9744 39.0342 33.7503 39.5958 33.7503H59.7326C61.8764 33.7314 64.0148 33.9555 66.1074 34.4253C70.2546 35.4082 74.1129 37.363 77.3584 40.1251C78.0064 40.6084 78.5842 41.1781 79.0837 41.8126C80.1421 42.8629 81.0709 44.032 81.8593 45.3011C82.3831 46.0436 82.834 46.8347 83.2147 47.6636ZM85.0103 64.2363H62.2112H39.8604C39.4044 64.2363 39.1797 64.2363 39.0689 64.124C38.9613 64.0148 38.9613 63.7995 38.9613 63.375V56.7006C38.9613 56.1741 39.1125 55.9878 39.6741 55.9878H85.0481C85.5368 55.9878 85.7609 56.1741 85.7609 56.625C85.9472 58.947 85.9472 61.2798 85.7609 63.5991C85.7258 64.2363 85.4963 64.2363 85.0103 64.2363ZM83.2147 72.0367C82.5775 71.9665 81.9349 71.9665 81.2977 72.0367H39.7119C39.1503 72.0367 38.9613 72.0367 38.9613 72.7873V85.8015C38.9613 86.4009 38.9613 86.5521 39.7119 86.5521H58.9118C59.8298 86.6223 60.7478 86.5575 61.6469 86.3658C64.4333 86.166 67.1739 85.5612 69.7875 84.5648C70.7379 84.2354 71.6559 83.8061 72.5226 83.2904H72.7845C77.2855 80.9495 80.9413 77.2721 83.2471 72.7576C83.2471 72.7576 83.509 72.1906 83.2147 72.0421V72.0367Z" fill="#FEFEFD"/>
</svg>
