<svg xmlns="http://www.w3.org/2000/svg" xmlns:xlink="http://www.w3.org/1999/xlink" viewBox="0 0 1046.38 1080"><defs><style>.a,.ck{fill:none;}.b{clip-path:url(#a);}.c{fill:#061a58;}.d{fill:#133691;}.e{fill:#1943ae;}.f{fill:#2053cf;}.g{fill:#2660eb;}.h{fill:#306dff;}.i{fill:#235adb;}.j{fill:#1c4abd;}.k{fill:#1a46b4;}.l{fill:#1f51ca;}.m{fill:#1f50c9;}.n{fill:#1b48b9;}.o{fill:#173fa5;}.p{fill:#12348d;}.q{fill:#143895;}.r{fill:#0f2f82;}.s{fill:#05154c;}.t{fill:#163c9e;}.u{fill:#051753;}.v{fill:#061a57;}.w{fill:#081f63;}.x{fill:#123392;}.y{fill:#0c2674;}.z{fill:#081e5f;}.aa{fill:#092167;}.ab{fill:#163aa2;}.ac{fill:#0e2b7e;}.ad{fill:#1a45b2;}.ae{fill:#133493;}.af{fill:#173fad;}.ag{fill:#1b47b5;}.ah{fill:#163aa3;}.ai{fill:#133595;}.aj{fill:#163ba4;}.ak{fill:#2257d7;}.al{fill:#11318d;}.am{fill:#102f88;}.an{fill:#12328e;}.ao{fill:#0b2572;}.ap{fill:#020b2e;}.aq{fill:#092064;}.ar{fill:#030f41;}.as{fill:#081f61;}.at{fill:#0d2a78;}.au{fill:#11338b;}.av{fill:#153a99;}.aw{fill:#2053ce;}.ax{fill:#1e4dc3;}.ay{fill:#1e4fc7;}.az{fill:#1741aa;}.ba{fill:#2258d9;}.bb{fill:#1a46b3;}.bc{fill:#163c9f;}.bd{fill:#103186;}.be{fill:#031043;}.bf{fill:#05164e;}.bg{fill:#091f64;}.bh{fill:#041345;}.bi{fill:#0a226b;}.bj{fill:#061853;}.bk{fill:#030f42;}.bl{fill:#173da9;}.bm{fill:#10308b;}.bn{fill:#123390;}.bo{fill:#102f87;}.bp{fill:#11318c;}.bq{fill:#0e2b80;}.br{fill:#143698;}.bs{fill:#0d2878;}.bt{fill:#05164f;}.bu{fill:#0f2d84;}.bv{fill:#0f2e86;}.bw{fill:#0a236c;}.bx{fill:#031042;}.by{fill:#0f2e82;}.bz{fill:#041245;}.ca{fill:#0c2771;}.cb{fill:#163da0;}.cc{fill:#163ca0;}.cd{fill:#0c266e;}.ce{fill:#071b5c;}.cf{fill:#1945b1;}.cg{fill:#12338c;}.ch{fill:#081e60;}.ci{fill:#05174f;}.cj{fill:#58c1ff;fill-opacity:0.3;}.ck{stroke:#f9f9fa;stroke-linecap:round;stroke-miterlimit:10;stroke-width:6px;}.cl{fill:url(#b);}.cm{fill:url(#c);}.cn{fill:url(#d);}.co{fill:url(#e);}.cp{fill:url(#f);}.cq{fill:url(#g);}.cr{fill:url(#h);}.cs{fill:url(#i);}.ct{fill:url(#j);}.cu{fill:url(#k);}.cv{fill:url(#l);}.cw{fill:url(#m);}.cx{fill:url(#n);}.cy{fill:url(#o);}.cz{fill:url(#p);}.da{fill:url(#q);}.db{fill:url(#r);}.dc{fill:url(#s);}.dd{fill:url(#t);}.de{fill:url(#u);}.df{fill:url(#v);}.dg{opacity:0.25;}.dh{fill:#fff;}.di{fill:url(#w);}.dj{fill:url(#x);}</style><clipPath id="a" transform="translate(-16.81)"><path class="a" d="M1080,810H0V0H1080Z"/></clipPath><linearGradient id="b" x1="-14283.41" y1="9078.27" x2="-13995.07" y2="9078.27" gradientTransform="matrix(0.76, 0.03, 0.05, -1.12, 11256.39, 11031.32)" gradientUnits="userSpaceOnUse"><stop offset="0" stop-color="#0083ff"/><stop offset="0.18" stop-color="#0096f6"/><stop offset="0.51" stop-color="#00b3e6"/><stop offset="0.79" stop-color="#00c6dd"/><stop offset="1" stop-color="#00ccda"/></linearGradient><linearGradient id="c" x1="-473.02" y1="13.12" x2="-682.68" y2="698.95" gradientTransform="matrix(1, 0, 0, -1, 1081.94, 812)" gradientUnits="userSpaceOnUse"><stop offset="0" stop-color="#000f40" stop-opacity="0.6"/><stop offset="0.61" stop-color="#000f40" stop-opacity="0.18"/><stop offset="1" stop-color="#000f40" stop-opacity="0"/></linearGradient><linearGradient id="d" x1="608.92" y1="13.12" x2="399.26" y2="698.95" gradientTransform="matrix(1, 0, 0, -1, 0, 812)" gradientUnits="userSpaceOnUse"><stop offset="0" stop-color="#000f43" stop-opacity="0.4"/><stop offset="0.48" stop-color="#001962" stop-opacity="0.17"/><stop offset="1" stop-color="#002079" stop-opacity="0"/></linearGradient><linearGradient id="e" x1="-8419.99" y1="7249.07" x2="-8546.21" y2="7258.82" gradientTransform="matrix(1.22, 0.12, 0.12, -1.22, 10416.96, 10748.92)" gradientUnits="userSpaceOnUse"><stop offset="0" stop-color="#002275"/><stop offset="1" stop-color="#005fe7"/></linearGradient><linearGradient id="f" x1="-8511.71" y1="7434.88" x2="-8393.48" y2="7557.68" gradientTransform="matrix(1.22, 0.12, 0.12, -1.22, 10416.96, 10748.92)" gradientUnits="userSpaceOnUse"><stop offset="0.05" stop-color="#005fe7"/><stop offset="0.19" stop-color="#005ce1"/><stop offset="0.38" stop-color="#0052cf"/><stop offset="0.6" stop-color="#0043b2"/><stop offset="0.84" stop-color="#002d8a"/><stop offset="0.95" stop-color="#002275"/></linearGradient><linearGradient id="g" x1="-8731.96" y1="7136.85" x2="-8479.1" y2="7136.26" gradientTransform="matrix(1.22, 0.12, 0.12, -1.22, 10416.96, 10748.92)" gradientUnits="userSpaceOnUse"><stop offset="0" stop-color="#002079"/><stop offset="0.99" stop-color="#000f40"/></linearGradient><radialGradient id="h" cx="656.51" cy="389.88" fx="802.6206691331265" fy="255.99326171626075" r="823.11" gradientTransform="matrix(1, 0, 0, -1, 0, 812)" gradientUnits="userSpaceOnUse"><stop offset="0.16" stop-color="#58c1ff"/><stop offset="0.24" stop-color="#4cb8ff"/><stop offset="0.39" stop-color="#2ea0ff"/><stop offset="0.54" stop-color="#0a84ff"/><stop offset="0.76" stop-color="#0060df"/><stop offset="0.8" stop-color="#0067de"/><stop offset="0.85" stop-color="#007bdd"/><stop offset="0.91" stop-color="#009cda"/><stop offset="0.98" stop-color="#00c8d7"/></radialGradient><linearGradient id="i" x1="-7582.55" y1="8978.96" x2="-7660.34" y2="8104.58" gradientTransform="matrix(1.23, 0, 0, -1.23, 10165.67, 10923.95)" gradientUnits="userSpaceOnUse"><stop offset="0" stop-color="#00feff"/><stop offset="0.3" stop-color="#04c9ff"/><stop offset="0.61" stop-color="#0897ff"/><stop offset="0.77" stop-color="#0a84ff"/><stop offset="0.79" stop-color="#0a84ff" stop-opacity="0.93"/><stop offset="0.84" stop-color="#0a84ff" stop-opacity="0.76"/><stop offset="0.9" stop-color="#0a84ff" stop-opacity="0.49"/><stop offset="0.98" stop-color="#0a84ff" stop-opacity="0.11"/><stop offset="1" stop-color="#0a84ff" stop-opacity="0"/></linearGradient><linearGradient id="j" x1="-9031.13" y1="7613.13" x2="-8881.67" y2="7613.13" gradientTransform="matrix(1.22, 0.12, 0.12, -1.22, 10416.96, 10748.92)" gradientUnits="userSpaceOnUse"><stop offset="0" stop-color="#003eaa"/><stop offset="0.3" stop-color="#0054c5" stop-opacity="0.68"/><stop offset="0.78" stop-color="#0076ef" stop-opacity="0.19"/><stop offset="1" stop-color="#0083ff" stop-opacity="0"/></linearGradient><linearGradient id="k" x1="622.91" y1="444.14" x2="409.33" y2="447.42" gradientTransform="matrix(1, 0, 0, -1, 0, 812)" gradientUnits="userSpaceOnUse"><stop offset="0" stop-color="#00feff" stop-opacity="0.25"/><stop offset="0.54" stop-color="#2ddfff" stop-opacity="0.12"/><stop offset="1" stop-color="#58c1ff" stop-opacity="0"/></linearGradient><linearGradient id="l" x1="278.5" y1="1925.7" x2="149.47" y2="2201.51" gradientTransform="matrix(1, 0.1, 0.1, -1, -273.72, 2229.41)" gradientUnits="userSpaceOnUse"><stop offset="0.19" stop-color="#002275" stop-opacity="0.7"/><stop offset="0.63" stop-color="#009dc2" stop-opacity="0.36"/><stop offset="0.94" stop-color="#00feff" stop-opacity="0.1"/></linearGradient><linearGradient id="m" x1="37.04" y1="159.58" x2="140.11" y2="42.52" gradientTransform="matrix(1, 0.1, 0.1, -1, 205.41, 669)" gradientUnits="userSpaceOnUse"><stop offset="0" stop-color="#002275" stop-opacity="0.8"/><stop offset="0.07" stop-color="#002479" stop-opacity="0.74"/><stop offset="0.95" stop-color="#003eaa" stop-opacity="0"/></linearGradient><linearGradient id="n" x1="232.02" y1="-41.18" x2="232.07" y2="17.33" gradientTransform="matrix(1, 0.1, 0.1, -1, 205.41, 669)" gradientUnits="userSpaceOnUse"><stop offset="0" stop-color="#002275" stop-opacity="0.6"/><stop offset="0.24" stop-color="#002275" stop-opacity="0.34"/><stop offset="0.49" stop-color="#002275" stop-opacity="0.15"/><stop offset="0.72" stop-color="#002275" stop-opacity="0.04"/><stop offset="0.93" stop-color="#002275" stop-opacity="0"/></linearGradient><linearGradient id="o" x1="640.34" y1="897.54" x2="978.03" y2="142.41" gradientTransform="matrix(1, 0, 0, -1, 0, 812)" gradientUnits="userSpaceOnUse"><stop offset="0" stop-color="#00feff"/><stop offset="0.28" stop-color="#03dfff"/><stop offset="0.9" stop-color="#0992ff"/><stop offset="1" stop-color="#0a84ff"/></linearGradient><linearGradient id="p" x1="762.51" y1="341.65" x2="603.94" y2="-84.1" gradientTransform="matrix(1, 0, 0, -1, 0, 812)" gradientUnits="userSpaceOnUse"><stop offset="0" stop-color="#0060df"/><stop offset="0.09" stop-color="#0067e5" stop-opacity="0.81"/><stop offset="0.21" stop-color="#006eec" stop-opacity="0.59"/><stop offset="0.33" stop-color="#0075f2" stop-opacity="0.41"/><stop offset="0.46" stop-color="#007af7" stop-opacity="0.26"/><stop offset="0.58" stop-color="#007efa" stop-opacity="0.15"/><stop offset="0.71" stop-color="#0081fd" stop-opacity="0.06"/><stop offset="0.85" stop-color="#0082fe" stop-opacity="0.02"/><stop offset="1" stop-color="#0083ff" stop-opacity="0"/></linearGradient><linearGradient id="q" x1="717.7" y1="849.53" x2="835.97" y2="-147.59" gradientTransform="matrix(1, 0, 0, -1, 0, 812)" gradientUnits="userSpaceOnUse"><stop offset="0" stop-color="#75feff"/><stop offset="0.28" stop-color="#5adfff"/><stop offset="0.9" stop-color="#1692ff"/><stop offset="1" stop-color="#0a84ff"/></linearGradient><linearGradient id="r" x1="822.4" y1="365.62" x2="732.05" y2="-15.49" gradientTransform="matrix(1, 0, 0, -1, 0, 812)" gradientUnits="userSpaceOnUse"><stop offset="0" stop-color="#9ee7ff"/><stop offset="0.14" stop-color="#8cdbff" stop-opacity="0.88"/><stop offset="0.46" stop-color="#5ebdff" stop-opacity="0.57"/><stop offset="0.92" stop-color="#168cff" stop-opacity="0.08"/><stop offset="1" stop-color="#0a84ff" stop-opacity="0"/></linearGradient><linearGradient id="s" x1="727.56" y1="830.16" x2="810.32" y2="202.5" gradientTransform="matrix(1, 0, 0, -1, 0, 812)" gradientUnits="userSpaceOnUse"><stop offset="0" stop-color="#00feff"/><stop offset="0.14" stop-color="#0bf7ff" stop-opacity="0.88"/><stop offset="0.46" stop-color="#26e4ff" stop-opacity="0.57"/><stop offset="0.92" stop-color="#51c6ff" stop-opacity="0.08"/><stop offset="1" stop-color="#58c1ff" stop-opacity="0"/></linearGradient><linearGradient id="t" x1="742.69" y1="792.35" x2="1178.72" y2="110.63" gradientTransform="matrix(1, 0, 0, -1, 0, 812)" gradientUnits="userSpaceOnUse"><stop offset="0" stop-color="#00feff"/><stop offset="0.14" stop-color="#01efff" stop-opacity="0.88"/><stop offset="0.46" stop-color="#04caff" stop-opacity="0.57"/><stop offset="0.92" stop-color="#098eff" stop-opacity="0.08"/><stop offset="1" stop-color="#0a84ff" stop-opacity="0"/></linearGradient><linearGradient id="u" x1="843.1" y1="303.33" x2="360.58" y2="-72.95" xlink:href="#r"/><linearGradient id="v" x1="409.61" y1="558.01" x2="64.32" y2="294.62" xlink:href="#t"/><linearGradient id="w" x1="176.39" y1="673.13" x2="159.74" y2="528.24" xlink:href="#t"/><linearGradient id="x" x1="337.21" y1="348.55" x2="230.97" y2="136.06" xlink:href="#t"/></defs><g class="b"><polygon class="c" points="1004.03 477.92 981.79 403.9 918.17 283.52 845.4 206.61 768.14 151.3 701.07 124.9 620.58 96.19 488.06 87.73 404.49 102.85 336.31 123.87 215.32 194.87 139.71 279.46 69.98 393.02 42.56 489.65 37.43 636.27 63.58 736.24 121.25 850.05 161.93 905.02 218.17 956.73 288.42 1004.38 375.04 1042.16 520.01 1059.23 595.7 1061.34 707.73 1029.7 807.86 974.59 872.29 919.48 922.24 859.71 992.87 721.08 1008.46 626.24 1004.03 477.92"/><polygon class="d" points="490.48 154.35 431.14 213.4 527.95 252.75 490.48 154.35"/><polygon class="e" points="527.95 252.75 490.48 154.35 599.96 163.2 527.95 252.75"/><polygon class="f" points="527.95 252.75 715.37 247.05 599.96 163.2 527.95 252.75"/><polygon class="g" points="715.37 247.05 599.96 163.2 701.45 162.57 715.37 247.05"/><polygon class="h" points="715.37 247.05 822.1 240.06 701.45 162.57 715.37 247.05"/><polygon class="i" points="822.1 240.06 701.45 162.57 761.42 156.17 822.1 240.06"/><polygon class="g" points="822.1 240.06 761.42 156.17 845.4 206.61 822.1 240.06"/><polygon class="f" points="902.44 291.43 822.1 240.06 845.4 206.61 902.44 291.43"/><polygon class="j" points="822.1 240.06 808.66 297.53 882.14 326.99 822.1 240.06"/><polygon class="k" points="822.1 240.06 902.44 291.43 882.14 326.99 822.1 240.06"/><polygon class="g" points="715.37 247.05 822.1 240.06 808.66 297.53 715.37 247.05"/><polygon class="i" points="715.37 247.05 808.66 297.53 739.58 376.88 715.37 247.05"/><polygon class="l" points="715.37 247.05 631.05 323.59 739.58 376.88 715.37 247.05"/><polygon class="m" points="527.95 252.75 715.37 247.05 631.05 323.59 527.95 252.75"/><polygon class="f" points="739.58 376.88 808.66 297.53 859.69 396.78 739.58 376.88"/><polygon class="n" points="808.66 297.53 859.69 396.78 882.14 326.99 808.66 297.53"/><polygon class="o" points="859.69 396.78 882.14 326.99 935.61 454.51 859.69 396.78"/><polygon class="p" points="882.14 326.99 963.63 386.83 935.61 454.51 882.14 326.99"/><polygon class="q" points="882.14 326.99 963.63 386.83 902.44 291.43 882.14 326.99"/><polygon class="r" points="902.44 291.43 918.17 283.52 963.63 386.83 902.44 291.43"/><polygon class="s" points="963.63 386.83 981.79 403.9 918.17 283.52 963.63 386.83"/><polygon class="t" points="902.44 291.43 918.17 283.52 845.4 206.61 902.44 291.43"/><polygon class="u" points="999.95 535.76 981.79 403.9 1004.03 477.93 999.65 535.76 999.95 535.76"/><polygon class="v" points="963.63 386.83 999.95 535.76 981.79 403.9 963.63 386.83"/><polygon class="s" points="935.61 454.51 999.95 535.76 963.63 386.83 935.61 454.51"/><polygon class="w" points="999.65 535.76 1004.03 477.93 1008.46 626.24 999.95 535.76 999.65 535.76"/><polygon class="p" points="989.16 652.97 1008.46 626.24 999.95 535.76 989.16 652.97"/><polygon class="x" points="992.87 721.08 977.44 728.53 1008.46 626.24 992.87 721.08"/><polygon class="y" points="977.44 728.53 1008.46 626.24 989.16 652.97 977.44 728.53"/><polygon class="w" points="989.16 652.97 999.95 535.76 966.89 574.86 989.16 652.97"/><polygon class="r" points="977.44 728.53 989.16 652.97 925.41 760.41 977.44 728.53"/><polygon class="v" points="935.61 454.51 999.95 535.76 966.89 574.86 935.61 454.51"/><polygon class="z" points="989.16 652.97 966.89 574.86 933.28 671.08 989.16 652.97"/><polygon class="aa" points="925.41 760.41 989.16 652.97 933.28 671.08 925.41 760.41"/><polygon class="ab" points="922.24 859.71 992.87 721.08 977.44 728.53 922.24 859.71"/><polygon class="ab" points="922.24 859.71 977.44 728.53 925.8 824.16 922.24 859.71"/><polygon class="ac" points="925.8 824.16 977.44 728.53 925.41 760.41 925.8 824.16"/><polygon class="x" points="872.29 919.48 925.8 824.16 922.24 859.71 872.29 919.48"/><polyline class="ad" points="804.2 950.88 872.29 919.48 807.86 974.59 804.2 950.88"/><polygon class="x" points="872.29 919.48 925.8 824.16 804.2 950.88 872.29 919.48"/><polygon class="ae" points="804.2 950.88 807.86 974.59 751.08 992.2 804.2 950.88"/><polygon class="ad" points="707.73 1029.7 751.08 992.2 807.86 974.59 707.73 1029.7"/><polygon class="ad" points="707.73 1029.7 751.08 992.2 610.2 1044.88 707.73 1029.7"/><polygon class="ad" points="595.7 1061.34 707.73 1029.7 610.2 1044.88 595.7 1061.34"/><polygon class="ad" points="520.01 1059.23 595.7 1061.34 610.2 1044.88 520.01 1059.23"/><polygon class="l" points="375.04 1042.16 366.77 1028.94 520.01 1059.23 375.04 1042.16"/><polygon class="af" points="375.04 1042.16 366.77 1028.94 288.42 1004.38 375.04 1042.16"/><polygon class="af" points="218.17 956.73 161.93 905.02 288.42 1004.38 218.17 956.73"/><polygon class="ag" points="161.93 905.02 121.25 850.05 148.26 858.97 161.93 905.02"/><polygon class="ah" points="161.93 905.02 288.42 1004.38 247.04 951.48 161.93 905.02"/><polygon class="af" points="161.93 905.02 247.04 951.48 148.26 858.97 161.93 905.02"/><polygon class="ai" points="247.04 951.48 366.77 1028.94 288.42 1004.38 247.04 951.48"/><polygon class="aj" points="247.04 951.48 366.77 1028.94 368.76 983.39 247.04 951.48"/><polygon class="ab" points="431.86 1012.98 366.77 1028.94 368.76 983.39 431.86 1012.98"/><polygon class="f" points="148.26 858.97 121.25 850.05 103.18 768.92 148.26 858.97"/><polygon class="h" points="121.25 850.05 63.58 736.24 103.18 768.92 121.25 850.05"/><polyline class="l" points="44.61 613.72 103.18 768.92 63.58 736.24"/><polygon class="ak" points="63.58 736.24 37.43 636.27 44.61 613.72 63.58 736.24"/><polygon class="al" points="44.61 613.72 37.43 636.27 42.56 489.65 44.61 613.72"/><polygon class="y" points="69.98 393.02 87.93 386.35 42.56 489.65 69.98 393.02"/><polygon class="am" points="42.56 489.65 76.91 483.24 87.93 386.35 42.56 489.65"/><polygon class="ai" points="44.61 613.72 42.56 489.65 76.91 483.24 44.61 613.72"/><polygon class="an" points="76.91 483.24 74.6 589.11 44.61 613.72 76.91 483.24"/><polygon class="ao" points="139.71 279.46 87.93 386.35 69.98 393.02 139.71 279.46"/><polygon class="ap" points="139.71 279.46 205.84 216.15 215.32 194.87 139.71 279.46"/><polygon class="aq" points="215.32 194.87 294.01 155.66 205.84 216.15 215.32 194.87"/><polyline class="ar" points="215.32 194.87 336.31 123.87 294.01 155.66 215.32 194.87"/><polygon class="z" points="294.01 155.66 404.49 102.85 336.31 123.87 294.01 155.66"/><polygon class="as" points="404.49 102.85 361.3 149.5 294.01 155.66 404.49 102.85"/><polygon class="at" points="361.3 149.5 464.22 108.23 404.49 102.85 361.3 149.5"/><polygon class="au" points="488.06 87.73 404.49 102.85 464.22 108.23 488.06 87.73"/><polyline class="av" points="567.09 107.21 464.22 108.23 488.06 87.73"/><polygon class="at" points="488.06 87.73 620.58 96.19 567.09 107.21 488.06 87.73"/><polygon class="aw" points="567.09 107.21 620.58 96.19 701.07 124.9 567.09 107.21"/><polygon class="ax" points="761.42 156.17 701.07 124.9 768.14 151.3 761.42 156.17"/><polygon class="ay" points="761.42 156.17 768.14 151.3 845.4 206.61 761.42 156.17"/><polygon class="ad" points="366.77 1028.94 520.01 1059.23 431.86 1012.98 366.77 1028.94"/><polygon class="ab" points="520.01 1059.23 431.86 1012.98 518.12 996.87 520.01 1059.23"/><polygon class="ad" points="610.2 1044.88 520.01 1059.23 518.12 996.87 610.2 1044.88"/><polygon class="az" points="610.2 1044.88 518.12 996.87 645.01 962.68 610.2 1044.88"/><polyline class="ad" points="751.08 992.2 610.2 1044.88 645.01 962.68"/><polygon class="ae" points="751.08 992.2 757.52 909.95 645.01 962.68 751.08 992.2"/><polygon class="ab" points="751.08 992.2 757.52 909.95 804.2 950.88 751.08 992.2"/><polygon class="ae" points="804.2 950.88 757.52 909.95 870.32 834.79 804.2 950.88"/><polygon class="ad" points="804.2 950.88 870.32 834.79 925.8 824.16 804.2 950.88"/><polygon class="aa" points="925.8 824.16 925.41 760.41 870.32 834.79 925.8 824.16"/><polyline class="ba" points="701.07 124.9 701.45 162.57 761.42 156.17"/><polygon class="ak" points="701.45 162.57 701.07 124.9 567.09 107.21 701.45 162.57"/><polygon class="ak" points="567.09 107.21 599.96 163.2 701.45 162.57 567.09 107.21"/><polygon class="bb" points="567.09 107.21 599.96 163.2 490.48 154.35 567.09 107.21"/><polygon class="bc" points="464.22 108.23 490.48 154.35 567.09 107.21 464.22 108.23"/><polygon class="bd" points="361.3 149.5 464.22 108.23 490.48 154.35 361.3 149.5"/><polygon class="t" points="431.14 213.4 361.3 149.5 490.48 154.35 431.14 213.4"/><polygon class="be" points="294.01 155.66 205.84 216.15 247.62 256.39 294.01 155.66"/><polygon class="ar" points="361.3 149.5 247.62 256.39 294.01 155.66 361.3 149.5"/><polygon class="bf" points="247.62 256.39 320.16 268.49 361.3 149.5 247.62 256.39"/><polygon class="aq" points="320.16 268.49 361.3 149.5 431.14 213.4 320.16 268.49"/><polygon class="ar" points="139.71 279.46 144.13 322.46 205.84 216.15 139.71 279.46"/><polygon class="bg" points="87.93 386.35 139.71 279.46 144.13 322.46 87.93 386.35"/><polygon class="bh" points="144.13 322.46 205.84 216.15 247.62 256.39 144.13 322.46"/><polygon class="bi" points="140.39 414.63 144.13 322.46 87.93 386.35 140.39 414.63"/><polygon class="bg" points="140.39 414.63 144.13 322.46 217.05 381.83 140.39 414.63"/><polygon class="bj" points="217.05 381.83 247.62 256.39 144.13 322.46 217.05 381.83"/><polygon class="bk" points="217.05 381.83 247.62 256.39 320.16 268.49 217.05 381.83"/><polygon class="ao" points="76.91 483.24 87.93 386.35 140.39 414.63 76.91 483.24"/><polygon class="bl" points="103.18 768.92 74.6 589.11 44.61 613.72 103.18 768.92"/><polygon class="ad" points="148.26 858.97 103.18 768.92 151.5 775.71 148.26 858.97"/><polygon class="az" points="103.18 768.92 151.5 775.71 117.66 696.51 103.18 768.92"/><polygon class="bm" points="103.18 768.92 74.6 589.11 117.66 696.51 103.18 768.92"/><polygon class="bn" points="148.26 858.97 199.04 868.76 151.5 775.71 148.26 858.97"/><polygon class="ae" points="148.26 858.97 247.04 951.48 199.04 868.76 148.26 858.97"/><polygon class="ad" points="247.04 951.48 282.77 917.02 199.04 868.76 247.04 951.48"/><polygon class="ab" points="247.04 951.48 368.76 983.39 282.77 917.02 247.04 951.48"/><polygon class="ad" points="368.76 983.39 431.86 1012.98 518.12 996.87 368.76 983.39"/><polygon class="x" points="368.76 983.39 410.02 896.79 518.12 996.87 368.76 983.39"/><polygon class="bo" points="74.6 589.11 145.09 589.01 76.91 483.24 74.6 589.11"/><polygon class="w" points="76.91 483.24 145.09 589.01 140.39 414.63 76.91 483.24"/><polygon class="aj" points="74.6 589.11 117.66 696.51 145.09 589.01 74.6 589.11"/><polygon class="bp" points="117.66 696.51 145.09 589.01 179.18 673.95 117.66 696.51"/><polygon class="bn" points="151.5 775.71 179.18 673.95 117.66 696.51 151.5 775.71"/><polygon class="x" points="151.5 775.71 282.22 856.95 179.18 673.95 151.5 775.71"/><polygon class="ab" points="199.04 868.76 282.22 856.95 151.5 775.71 199.04 868.76"/><polygon class="az" points="282.77 917.02 282.22 856.95 199.04 868.76 282.77 917.02"/><polygon class="x" points="282.77 917.02 282.22 856.95 410.02 896.79 282.77 917.02"/><polygon class="x" points="282.77 917.02 368.76 983.39 410.02 896.79 282.77 917.02"/><polygon class="bq" points="518.12 996.87 528.97 898.14 410.02 896.79 518.12 996.87"/><polygon class="br" points="518.12 996.87 528.97 898.14 645.01 962.68 518.12 996.87"/><polygon class="bs" points="645.01 962.68 640.5 851.71 528.97 898.14 645.01 962.68"/><polygon class="x" points="645.01 962.68 640.5 851.71 757.52 909.95 645.01 962.68"/><polygon class="w" points="640.5 851.71 712.9 785.96 757.52 909.95 640.5 851.71"/><polygon class="v" points="757.52 909.95 812.25 743.73 712.9 785.96 757.52 909.95"/><polygon class="r" points="870.32 834.79 757.52 909.95 812.25 743.73 870.32 834.79"/><polygon class="aa" points="870.32 834.79 925.41 760.41 812.25 743.73 870.32 834.79"/><polygon class="bt" points="925.41 760.41 812.25 743.73 933.28 671.08 925.41 760.41"/><polyline class="u" points="966.89 574.86 888.14 518.65 933.28 671.08 966.89 574.86"/><polygon class="be" points="966.89 574.86 935.61 454.51 888.14 518.65 966.89 574.86"/><polygon class="be" points="812.25 743.73 933.28 671.08 815.98 618.71 812.25 743.73"/><polygon class="ar" points="812.25 743.73 702.56 632.59 712.9 785.96 812.25 743.73"/><polygon class="aa" points="640.5 851.71 556.28 776.94 712.9 785.96 640.5 851.71"/><polygon class="r" points="640.5 851.71 528.97 898.14 556.28 776.94 640.5 851.71"/><polygon class="bn" points="410.02 896.79 528.97 898.14 381.94 801.73 410.02 896.79"/><polygon class="bu" points="410.02 896.79 381.94 801.73 282.22 856.95 410.02 896.79"/><polygon class="ac" points="282.22 856.95 300.88 760.41 381.94 801.73 282.22 856.95"/><polygon class="bv" points="300.88 760.41 179.18 673.95 282.22 856.95 300.88 760.41"/><polygon class="w" points="528.97 898.14 556.28 776.94 381.94 801.73 528.97 898.14"/><polygon class="bw" points="145.09 589.01 180.06 477.06 140.39 414.63 145.09 589.01"/><polygon class="w" points="140.39 414.63 180.06 477.06 217.05 381.83 140.39 414.63"/><polygon class="bf" points="217.05 381.83 370.53 336.97 320.16 268.49 217.05 381.83"/><polygon class="ar" points="217.05 381.83 370.53 336.97 289.46 503.04 217.05 381.83"/><polygon class="bt" points="812.25 743.73 702.56 632.59 815.98 618.71 812.25 743.73"/><polygon class="bk" points="933.28 671.08 888.14 518.65 815.98 618.71 933.28 671.08"/><polygon class="ar" points="712.9 785.96 587.46 664.34 702.56 632.59 712.9 785.96"/><polygon class="bt" points="556.28 776.94 712.9 785.96 587.46 664.34 556.28 776.94"/><polygon class="bx" points="556.28 776.94 470.49 706.89 587.46 664.34 556.28 776.94"/><polygon class="by" points="888.14 518.65 935.61 454.51 859.69 396.78 888.14 518.65"/><polygon class="bj" points="217.05 381.83 289.46 503.04 180.06 477.06 217.05 381.83"/><polygon class="w" points="180.06 477.06 289.46 503.04 215.48 619.89 180.06 477.06"/><polygon class="z" points="370.53 336.97 431.14 213.4 320.16 268.49 370.53 336.97"/><polyline class="bg" points="215.48 619.89 180.06 477.06 145.09 589.01"/><polygon class="bp" points="145.09 589.01 215.48 619.89 179.18 673.95 145.09 589.01"/><polygon class="ac" points="215.48 619.89 300.88 760.41 179.18 673.95 215.48 619.89"/><polygon class="aa" points="300.88 760.41 312.29 590.4 215.48 619.89 300.88 760.41"/><polygon class="v" points="300.88 760.41 470.49 706.89 312.29 590.4 300.88 760.41"/><polygon class="bt" points="470.49 706.89 453.96 575.45 312.29 590.4 470.49 706.89"/><polygon class="bz" points="587.46 664.34 470.49 706.89 453.96 575.45 587.46 664.34"/><polygon class="bk" points="453.96 575.45 573.59 530.59 587.46 664.34 453.96 575.45"/><polygon class="aa" points="381.94 801.73 556.28 776.94 470.49 706.89 381.94 801.73"/><polygon class="y" points="381.94 801.73 300.88 760.41 470.49 706.89 381.94 801.73"/><polygon class="ca" points="370.53 336.97 474.42 347.99 431.14 213.4 370.53 336.97"/><polygon class="av" points="527.95 252.75 431.14 213.4 474.42 347.99 527.95 252.75"/><polygon class="cb" points="527.95 252.75 631.05 323.59 474.42 347.99 527.95 252.75"/><polygon class="au" points="474.42 347.99 628.06 429.68 573.59 530.59 474.42 347.99"/><polygon class="cc" points="628.06 429.68 631.05 323.59 474.42 347.99 628.06 429.68"/><polygon class="ad" points="628.06 429.68 631.05 323.59 739.58 376.88 628.06 429.68"/><polygon class="cd" points="474.42 347.99 573.59 530.59 399.65 443.22 474.42 347.99"/><polygon class="ce" points="453.96 575.45 573.59 530.59 399.65 443.22 453.96 575.45"/><polygon class="r" points="573.59 530.59 727 502.49 628.06 429.68 573.59 530.59"/><polygon class="az" points="739.58 376.88 727 502.49 628.06 429.68 739.58 376.88"/><polygon class="av" points="739.58 376.88 811.99 475.49 727 502.49 739.58 376.88"/><polygon class="cf" points="859.69 396.78 739.58 376.88 811.99 475.49 859.69 396.78"/><polygon class="cg" points="811.99 475.49 888.14 518.65 859.69 396.78 811.99 475.49"/><polygon class="ch" points="815.98 618.71 888.14 518.65 811.99 475.49 815.98 618.71"/><polygon class="z" points="815.98 618.71 811.99 475.49 727 502.49 815.98 618.71"/><polyline class="v" points="727 502.49 702.56 632.59 815.98 618.71"/><polygon class="bx" points="573.59 530.59 727 502.49 702.56 632.59 573.59 530.59"/><polygon class="bt" points="587.46 664.34 702.56 632.59 573.59 530.59 587.46 664.34"/><polygon class="ci" points="370.53 336.97 399.65 443.22 474.42 347.99 370.53 336.97"/><polygon class="bj" points="370.53 336.97 289.46 503.04 399.65 443.22 370.53 336.97"/><polygon class="ar" points="399.65 443.22 312.29 590.4 453.96 575.45 399.65 443.22"/><polygon class="bz" points="312.29 590.4 399.65 443.22 289.46 503.04 312.29 590.4"/><polygon class="c" points="215.48 619.89 289.46 503.04 312.29 590.4 215.48 619.89"/><path class="cj" d="M1027.46,626.38v-.23L1023,477.86s0,0,0-.06v-.11l0-.15c0-.05,0-.13,0-.2a.11.11,0,0,0,0,0l-22.23-74v0h0s0,0,0,0a1.17,1.17,0,0,0-.05-.11.71.71,0,0,0-.07-.16.64.64,0,0,0,0-.07L936.92,282.5l0-.06-.08-.12a.41.41,0,0,0-.07-.11.21.21,0,0,0-.05-.07l-.06-.07,0-.06L863.81,205.1l0,0,0,0-.14-.11-.09-.08h0l-77.23-55.29,0,0a.21.21,0,0,0-.07-.05,1.29,1.29,0,0,0-.16-.09l-.17-.08,0,0-67-26.38h0l0,0h-.09L638.12,94.12h-.07l-.16,0-.14,0-.15,0h-.07L505,85.54h-.23l-.22,0h-.08L420.92,100.7h-.13l-.05,0-.15,0-68.11,21h0a.94.94,0,0,0-.15.06l-.17.08-.09,0h0L231,193l0,0-.1.07-.09.06-.08.07-.08.06-.08.09-.07.06,0,0h0L154.88,278s0,0,0,0l0,.06-.05.07a.61.61,0,0,1-.07.1l0,0,0,.05h0L84.93,391.87l0,.07a.47.47,0,0,0-.07.12l-.06.13c0,.05,0,.11,0,.16l0,.07L57.26,489.05s0,0,0,0a.19.19,0,0,1,0,.07v.06a.77.77,0,0,0,0,.15.88.88,0,0,0,0,.16.09.09,0,0,1,0,.05L52.06,636.19v.1a.56.56,0,0,1,0,.13c0,.05,0,.1,0,.14l0,.18s0,.06,0,.09v.06h0l26.13,99.9h0v0a.24.24,0,0,1,0,.08l.09.21h0a.76.76,0,0,0,0,.11h0L136.1,851v0l0,.06a1.74,1.74,0,0,1,.11.18s0,0,0,.06l40.65,54.93h0v0h0s0,0,0,0a.21.21,0,0,1,.05.07l.12.12a.73.73,0,0,1,.09.1l56.27,51.73.14.11.11.09L304,1006.2l.05,0h0l.17.1.09,0,0,0L391,1044.18l.09,0,.19.06.1,0,.16,0,.09,0,145,17.05h.19l75.69,2.12h.08a2,2,0,0,0,.43,0l.09,0h.06l112-31.64.06,0,.1,0,.09,0,.06,0,.13-.06h0l0,0h0l100.08-55.08h0l0,0a1,1,0,0,0,.16-.12h0l.14-.09h0l64.43-55.12.07-.07.08-.08a.3.3,0,0,0,.08-.08l0,0,49.94-59.75h0l0,0a1.51,1.51,0,0,0,.18-.26l.06-.09v0h0l70.62-138.64a.3.3,0,0,0,0-.1,1.19,1.19,0,0,0,.08-.16s0-.06,0-.08a1.16,1.16,0,0,0,0-.18.53.53,0,0,0,0-.12l15.59-94.81h0v-.08a.31.31,0,0,1,0-.08A.22.22,0,0,1,1027.46,626.38ZM236.35,955l-14.57-13.4,32.77,25.74ZM449,1010.7l-51.19-24L519,997.62Zm18.68-437.12L333.21,587.77l82.9-139.66ZM420.72,447.81,585,530.29,472,572.65Zm48.15,130L484.49,702.1,334.94,592ZM482.53,706.1,320.09,757.35,331,594.53Zm-9-126.17,125.91,83.83L489.13,703.89Zm2-3.93,113-42.36,13.09,126.3ZM649.12,430.09l104.7-49.57L742,498.45Zm89.31,71.16L594.5,527.61l51.1-94.67ZM590.4,526,496.64,353.34,641.9,430.58Zm-5.26-.49-165.3-83L490.9,352ZM329.89,584.78l-21.07-80.64,101.7-55.2ZM316,753.36,235.63,621.17l91.07-27.74Zm164-41.88L398.28,799l-74.83-38.14Zm121-43.63L571.88,773.12l-80.21-65.49Zm-7.91-132.32,121.51,96.1L606.19,661.54Zm2.44-3.66,145.52-26.65L717.89,628.63Zm150.77-32.48L758,382.78l67.23,91.55Zm80.36-20.93L830.42,612l-83-108.37ZM647.16,426.18l2.8-99.13,101.39,49.79Zm-4.38-.09L498.07,349.14l147.53-23ZM417.43,438.45l-27.13-99,96.77,10.27Zm-3.54,3.67L311.25,497.85l75.52-154.71Zm-87.44,146.8L237.3,616.08l68.13-107.61ZM310.3,752.48,199,673.4,232.2,624Zm9,11.2,74.8,38.13-92,51Zm168.22-53.8,80.33,65.59L404.6,798.69Zm117.9-41.4L724,783.43l-148-8.53Zm3.14-3.05,108.83-30,9.77,145Zm136.52-157.7L828.72,617l-106.65,13Zm86-28.42,70.65,40-67,92.84Zm.74-4.61,43.75-72.18,26.09,111.76Zm-3.22-3.14-67.28-91.64L873,398.42ZM651.72,323.05l79-71.73L753.44,373ZM495.36,345.13l50.13-89.22,96.59,66.36Zm-104.67-10,56.84-115.88,40.59,126.21ZM306.08,498.44l-68.89-115.3,146-42.68Zm-72.9,116L199.87,480l102.91,24.43Zm-36.7,54.9-30.55-76.12L229,620.85Zm118.79,92.09L298,850.67,202.71,681.41ZM397.43,805l26.14,88.51-119-37.09Zm172.83-25.42-25.92,115-139.52-91.5Zm154.11,8.3-67.08,60.91-78-69.28ZM722,638.32,825.24,743l-93.55,39.77Zm2.11-4.1,106.46-13L827,738.54ZM904.12,523.54l42.52,143.6-110.5-49.33ZM880,402.21,949.37,455,906,513.54Zm-119.4-26.85L825,301.41l47.57,92.5ZM757.71,372,735.18,251.16l86.84,47Zm-110-51.23-96.15-66.06,174.8-5.32ZM491.79,342.54,451.47,217.19l90.16,36.65ZM387,332.76,340.28,269.3l102.85-51.07Zm-3.24,3-143,41.8L336.79,272Zm-82,164-101.91-24.2,34.45-88.71ZM229.09,616.1l-64.51-28.31,32-102.6Zm-36,56.57L137.62,693l24.74-97Zm99.82,177.91L170.85,774.72l25.85-95Zm124.3,45.52L301.76,914.46l-.5-54.53Zm-14.7-89.26,135.78,89-109.85-1.25ZM574.41,781l78.83,70L548.85,894.5Zm154.35,8.74,41.66,115.78L661.15,851.18Zm3.71-2.61,93-39.54-51.23,155.6ZM834.88,622l110.48,49.32-114,68.43Zm74-97.91,72.24,51.56L950.27,664Zm-.82-6,43.42-58.66,28.61,110.06ZM879.06,396l20.16-62.68,48,114.52Zm-3-4.9L830.1,301.75l66.15,26.51ZM739.91,248.74l96.19-6.3L824,294.24Zm-190.46,1.68,67.72-84.22,108.54,78.86Zm-4-2-34.87-91.59,101.9,8.23Zm-4.52.42-89.08-36.21,54.61-54.33ZM340.79,264.15l38.3-110.78,65,59.49ZM238,374l28-115.11L332.64,270ZM196.4,472.24l-36-56.61,69.51-29.73Zm-1.92,5.14-30.75,98.41L159.6,422.5ZM159.08,591.2,134,689.47,94.65,591.29Zm-65.43-4.29,2.1-96.47,62.14,96.38Zm99.11,90.56-24.91,91.59-30.46-71.29Zm100,178.16L217.1,866.37l-43.26-84.64Zm4.11,3.84.49,53.74L222.44,870Zm126.19,40.14L384.75,980l-79.81-61.61Zm4.47.81,101.2,93.69L388.9,981.49Zm5-1.38,110.86,1.26-10.11,92Zm222.76-44.1,4.23,103.93L550.8,898.43Zm4.4.38,109.65,54.57L663.87,959.3ZM829.69,748.8l54.43,85.35L778.39,904.61Zm3.79-2.2L938.28,762l-51,68.89Zm1.95-4.14,112.1-67.29-7.28,82.73ZM983.49,582.1l19.8,69.44-49.67,16.09ZM957.16,464l56.77,71.7-29.17,34.5ZM904,333.44l73.73,54.15-25.35,61.23ZM828,296.2l11.88-50.83L893,322.25Zm-94-51.47-12.8-77.66,110.9,71.24Zm-4.87-2.59-105.7-76.79,92.95-.58Zm-215-89.43,69-42.46,29.6,50.42Zm-66.26,57.66L384,151.92l118.19,4.43ZM335.51,266,269.15,255l104-97.77ZM232.56,377.94l-67.89-55.26L261,261.17Zm-2.89,3.3-70.14,30L163,326.92Zm-70.17,200-63-97.76,58.69-63.41ZM132.2,696.72l-12,59.8L96.63,608Zm3,7.15L164.77,773l-42.18-5.92Zm76.63,161.89-44.52-8.59,2.83-73ZM296,917.47,264.34,948l-42.48-73.22Zm3.78,2.44,75.95,58.63L268.18,950.35ZM547.6,901.66,656,962,537.46,993.92Zm224.25,11.87-5.94,75.85L668.1,962.16Zm108.8-71.8L820.44,947.46l-42.52-37.27ZM940.08,767l.33,55.36-48.18,9.23Zm12.07-94.28,49-15.87L945.25,751Zm34-97.33,27.81-32.89-9.07,98.61ZM954.94,454.16l25-60.3,32.35,132.69ZM901.82,326.38l17.54-30.72,52.87,82.42Zm-3-3.5-51.89-75.11,69.43,44.39Zm-174.1-158.8,52.53-5.6L830.34,232ZM618,161l-28.93-49.28,118.27,48.72Zm-109.94-9.7-23.3-40.91,91.26-.91Zm-4.64.72L388.5,147.7,480.08,111ZM271.13,247.09l41.16-89.37L372,152.27Zm-7.4,5.59-37.62-36.25L305.51,162ZM260.91,256l-93.55,59.72,55.78-96.1ZM155.15,411,108.2,385.73l50.3-57.18Zm-1.48,4.18-57,61.63,9.9-87ZM89.24,588.05,65.13,607.84,91.1,503Zm.61,5.17,24.6,154.83L64,614.41ZM166,777.61l-2.82,72.75-39.4-78.69Zm48.42,93.11,40,69-82.38-77.15ZM383.3,985.06l-1.74,40-105-68Zm4.31,1.71,54.52,25.56-56.23,13.79Zm145.21,12.72,1.7,56L455.28,1014ZM658.05,966l-32.13,75.87-85-44.32Zm5-.66,97.73,27.19L631,1041.05Zm113.08-50.83,41.41,36.29-47.12,36.65Zm112.37-77.73,47.74-9.15-104.62,109Zm56.21-21.16-.32-54,44-27Zm3.88-61.67,53.45-90.08-9.83,63.35Zm68.16-194.52,6.23,66.23-14.13,19.57ZM984.33,393.48,996.54,405l12.22,88.71ZM922.42,292.29l11.49-5.78L967.13,362ZM842,239.44l20.17-29,49.38,73.43Zm-3.13-3.17-52.59-72.72,72.79,43.72ZM720.43,160.13l-.33-31.61,50.66,26.24Zm-4.39-.85-115.78-47.7,115.45,15.24ZM487,106l18.44-15.85,61.12,15.06ZM386.34,143.85l35.84-38.72,49.57,4.47Zm-9.26,3.55-54.28,5,89.12-42.59ZM227.81,210l6-13.47,49.81-24.83ZM162.43,315.53l-3.62-35.23L213,228.43Zm-3.77,6.2-44.93,51.08,41.4-85.45ZM91.72,481.39,63,486.74l37.89-86.26Zm-1,4.63L63.33,596.87l-1.74-105.4ZM115,762,82.42,735.08,66.81,634.19Zm45.73,93.25-20.83-6.88L126,785.81Zm89,86.07-69.2-37.78-11.11-37.44Zm12.62,11.88,30,38.3-91.58-71.94Zm11.21,7.22L368.88,1022l-62.34-19.54Zm174.78,54.89,74,38.85-128.71-25.43Zm88.85-14.76,82.88,43.22-81.19,12.91Zm220-2-33.64,29.11-75.71,11.79Zm62.19-43.62,2.8,18.16-43.49,13.49ZM932.28,838.1l-44.74,79.68L830.62,944Zm12.47-13.28,30-55.48-32,76.1Zm63.31-171,11.31-15.66-18.18,59.94Zm10.88-118.24h0v-.13l-.16-1.16,1.12-14.85,1.15,38.45Zm-3-21.87-11.32-82.19,14,46.63ZM982.27,385.54l-20.65-46.93,28.9,54.69ZM920,288.61l-41.25-61.34,52.62,55.62ZM782.21,156l2.75-2,31.71,22.7ZM778,153.6,756.6,142.49l23.83,9.38Zm-181-46.87,40.18-8.28L697.69,120ZM584,105,529.24,91.48,621,97.33ZM480.3,106l-42.67-3.85,59.71-10.8ZM329.72,144.2l24.41-18.35,39.36-12.13Zm-20.05,9.58L288.5,164.34l32.56-19.11Zm-88.84,61.08L195.7,238.92l28.73-32.14ZM103.15,384.6,92,388.75l43.4-70.67ZM88.6,394.68l12.05-4.48L70.17,459.6Zm-30,180.08.64,38.63-2.23,7Zm2.1,48.5,11,71L56.52,636.33ZM118,770.13l14.11,63.37-45-88.9Zm45.28,90.56,9.8,33L143.93,854.3Zm218.86,170.1,4.08,6.54-42.82-18.68Zm11,9.32-5-8,93.15,18.4ZM621.34,1048l-9.8,11.12-51.13-1.42Zm6.79-1.07,61-9.49-70,19.77ZM769,994.16l35.75-11.09-63,34.7Zm57.26-23.79-2.81-18.19,52.24-24.09Zm113.15-136-2.45,24.45-34.35,41.1ZM996,730.14l8.83-4.27-40.4,79.32Zm11.76-10.55-9.91,4.79,19.92-65.68Z" transform="translate(-16.81)"/><path class="ck" d="M104.47,795.9c56.37,43.17,229.77,74.55,434.68,74.55S917.08,839.11,973.89,796" transform="translate(-16.81)"/><path class="cl" d="M860.41,100.55c-26.22,30.54-38.44,99.27-11.85,168.94S915.92,324,941.33,395.08c33.53,93.75,17.92,219.68,17.92,219.68s40.32,116.76,68.42-7.26C1089.85,374.55,860.41,157.92,860.41,100.55Z" transform="translate(-16.81)"/><path class="cm" d="M904.65,880.41a270,270,0,0,1-33,19.91,767.27,767.27,0,0,0,41.94-69c10.37-11.47,19.86-22.61,27.59-34.67,3.76-5.92,8-13.22,12.5-21.7,27.3-49.17,57.39-128.75,58.24-210.5v-.19c0-2,0-4,0-6a282.24,282.24,0,0,0-6.26-61.06c.22,1.57.41,3.14.61,4.7-.24-1.2-.44-2.42-.7-3.63.4,2.23.72,4.38,1.07,6.56,5.57,47.33,1.6,93.49-18.27,127.53-.32.5-.64,1-1,1.45,10.31-51.73,13.76-108.85,2.29-166,0,0-4.58-27.8-38.74-112.19-19.66-48.58-54.58-88.4-85.43-117.41-27-33.46-51.59-55.91-65.13-70.16-28.29-29.79-40.14-52.11-45-66.67-4.22-2.12-58.19-54.55-62.48-56.55-23.56,36.53-97.65,150.78-62.41,257.53,16,48.38,56.37,98.59,98.64,126.76,1.86,2.12,25.16,27.42,36.24,84.5,11.45,59,5.43,105-18.12,173-27.69,59.7-98.64,118.71-165.07,124.74-142,12.91-194-71.3-194-71.3,50.75,20.29,106.86,16,141-5,34.39-21.27,55.19-37.05,72.07-30.83,16.65,6.19,29.9-11.78,18-30.41a86,86,0,0,0-87-37.86c-34.42,5.59-65.95,32.86-111.06,6.45a92.62,92.62,0,0,1-8.47-5.54c-3-2,9.67,3,6.72.75-8.78-4.76-24.31-15.16-28.34-18.85-.67-.62,6.81,2.39,6.14,1.77-42.18-34.73-36.91-58.19-35.59-72.91,1.07-11.77,8.73-26.86,21.64-33,6.23,3.4,10.12,6,10.12,6s-2.66-5.44-4.1-8.3c.5-.22,1-.16,1.49-.37,5.1,2.46,16.4,8.87,22.34,12.77,7.75,5.47,10.22,10.34,10.22,10.34s2-1.13.53-5.89c-.55-2-2.9-8.16-10.57-14.43l.48.06a88.68,88.68,0,0,1,13,9c2.16-7.86,6.05-16.07,5.19-30.76-.52-10.33-.28-13-2.1-17-1.63-3.42.91-4.76,3.74-1.2a35.86,35.86,0,0,0-2.41-8.11l0-.26c3.53-12.31,74.74-44.31,79.93-48.06a73.71,73.71,0,0,0,20.95-22.78c4-6.31,6.94-15.16,7.67-28.59.39-9.69-4.12-16.14-76.13-23.68-19.69-1.94-31.24-16.21-37.81-29.37-1.2-2.84-2.42-5.41-3.64-8a63.33,63.33,0,0,1-2.8-9.23c11.77-33.82,31.55-62.4,60.64-84,1.58-1.45-6.34.37-4.75-1.08,1.85-1.68,13.91-6.54,16.19-7.64,2.79-1.31-11.92-7.56-24.89-6-13.22,1.48-16,3.06-23.08,6.05,2.93-2.91,12.23-6.73,10.05-6.71-14.25,2.19-31.95,10.47-47.09,19.85a11.79,11.79,0,0,1,.9-4.76c-7.05,3-24.37,15.1-29.42,25.34a46.69,46.69,0,0,0,.29-5.91,92.8,92.8,0,0,0-14.45,15.13l-.26.24c-40.91-16.48-76.92-17.55-107.39-10.16-6.66-6.69-9.92-1.8-25.08-35.12-1-2,.79,2,0,0-2.5-6.46,1.52,8.62,0,0-25.5,20.12-59,42.93-75.16,59-.2.64,18.79-5.36,0,0-6.58,1.88-6.13,5.79-7.13,41.07-.24,2.68,0,5.67-.25,8.08-12.86,16.39-21.63,30.28-24.94,37.47-16.64,28.67-35,73.37-52.73,144.07a366.14,366.14,0,0,1,28.24-55.2c-14.77,37.53-29,96.46-31.91,187.21A531.68,531.68,0,0,1,81,568.29a518,518,0,0,0,38,220.2c10.22,25,27.12,62.92,55.89,104.48,90.39,95.1,217.88,154.31,359.06,154.31C681.36,1047.29,813.71,982.81,904.65,880.41Z" transform="translate(-16.81)"/><path class="cn" d="M904.65,880.41a270,270,0,0,1-33,19.91,767.27,767.27,0,0,0,41.94-69c10.37-11.47,19.86-22.61,27.59-34.67,3.76-5.92,8-13.22,12.5-21.7,27.3-49.17,57.39-128.75,58.24-210.5v-.19c0-2,0-4,0-6a282.24,282.24,0,0,0-6.26-61.06c.22,1.57.41,3.14.61,4.7-.24-1.2-.44-2.42-.7-3.63.4,2.23.72,4.38,1.07,6.56,5.57,47.33,1.6,93.49-18.27,127.53-.32.5-.64,1-1,1.45,10.31-51.73,13.76-108.85,2.29-166,0,0-4.58-27.8-38.74-112.19-19.66-48.58-54.58-88.4-85.43-117.41-27-33.46-51.59-55.91-65.13-70.16-28.29-29.79-40.14-52.11-45-66.67-4.22-2.12-58.19-54.55-62.48-56.55-23.56,36.53-97.65,150.78-62.41,257.53,16,48.38,56.37,98.59,98.64,126.76,1.86,2.12,25.16,27.42,36.24,84.5,11.45,59,5.43,105-18.12,173-27.69,59.7-98.64,118.71-165.07,124.74-142,12.91-194-71.3-194-71.3,50.75,20.29,106.86,16,141-5,34.39-21.27,55.19-37.05,72.07-30.83,16.65,6.19,29.9-11.78,18-30.41a86,86,0,0,0-87-37.86c-34.42,5.59-65.95,32.86-111.06,6.45a92.62,92.62,0,0,1-8.47-5.54c-3-2,9.67,3,6.72.75-8.78-4.76-24.31-15.16-28.34-18.85-.67-.62,6.81,2.39,6.14,1.77-42.18-34.73-36.91-58.19-35.59-72.91,1.07-11.77,8.73-26.86,21.64-33,6.23,3.4,10.12,6,10.12,6s-2.66-5.44-4.1-8.3c.5-.22,1-.16,1.49-.37,5.1,2.46,16.4,8.87,22.34,12.77,7.75,5.47,10.22,10.34,10.22,10.34s2-1.13.53-5.89c-.55-2-2.9-8.16-10.57-14.43l.48.06a88.68,88.68,0,0,1,13,9c2.16-7.86,6.05-16.07,5.19-30.76-.52-10.33-.28-13-2.1-17-1.63-3.42.91-4.76,3.74-1.2a35.86,35.86,0,0,0-2.41-8.11l0-.26c3.53-12.31,74.74-44.31,79.93-48.06a73.71,73.71,0,0,0,20.95-22.78c4-6.31,6.94-15.16,7.67-28.59.39-9.69-4.12-16.14-76.13-23.68-19.69-1.94-31.24-16.21-37.81-29.37-1.2-2.84-2.42-5.41-3.64-8a63.33,63.33,0,0,1-2.8-9.23c11.77-33.82,31.55-62.4,60.64-84,1.58-1.45-6.34.37-4.75-1.08,1.85-1.68,13.91-6.54,16.19-7.64,2.79-1.31-11.92-7.56-24.89-6-13.22,1.48-16,3.06-23.08,6.05,2.93-2.91,12.23-6.73,10.05-6.71-14.25,2.19-31.95,10.47-47.09,19.85a11.79,11.79,0,0,1,.9-4.76c-7.05,3-24.37,15.1-29.42,25.34a46.69,46.69,0,0,0,.29-5.91,92.8,92.8,0,0,0-14.45,15.13l-.26.24c-40.91-16.48-76.92-17.55-107.39-10.16-6.66-6.69-9.92-1.8-25.08-35.12-1-2,.79,2,0,0-2.5-6.46,1.52,8.62,0,0-25.5,20.12-59,42.93-75.16,59-.2.64,18.79-5.36,0,0-6.58,1.88-6.13,5.79-7.13,41.07-.24,2.68,0,5.67-.25,8.08-12.86,16.39-21.63,30.28-24.94,37.47-16.64,28.67-35,73.37-52.73,144.07a366.14,366.14,0,0,1,28.24-55.2c-14.77,37.53-29,96.46-31.91,187.21A531.68,531.68,0,0,1,81,568.29a518,518,0,0,0,38,220.2c10.22,25,27.12,62.92,55.89,104.48,90.39,95.1,217.88,154.31,359.06,154.31C681.36,1047.29,813.71,982.81,904.65,880.41Z" transform="translate(-16.81)"/><path class="co" d="M795.6,949.49C974,928.83,1052.93,745,951.53,741.4,859.94,738.47,711.11,959.23,795.6,949.49Z" transform="translate(-16.81)"/><path class="cp" d="M964.37,703.85c122.72-71.42,90.72-225.69,90.72-225.69s-47.36,55-79.53,142.72C943.77,707.73,890.59,747,964.37,703.85Z" transform="translate(-16.81)"/><path class="cq" d="M574.78,1040.77c171.1,54.6,318.15-80.19,227.5-125.2C719.87,875,493.57,1015,574.78,1040.77Z" transform="translate(-16.81)"/><path class="cr" d="M716.18,23.74l.58-.63A1.94,1.94,0,0,0,716.18,23.74Zm261,745.62c4.16-5.88,9.79-24.68,14.76-33.09,30.2-48.76,30.41-87.64,30.41-88.53,18.25-91.14,16.59-128.36,5.37-197.18-9-55.42-48.54-134.81-82.76-173-35.27-39.39-10.42-26.55-44.57-55.33-29.92-33.17-58.94-66-74.75-79.24C711.39,47.48,714,27.2,716.18,23.74q-.57.61-1.62,1.8c-1.35-5.39-2.31-9.93-2.31-9.93S649.83,78,636.69,182.08c-8.58,67.93,16.84,138.74,53.66,184A417,417,0,0,0,755,429.59v0c27.81,39.94,43.12,89.24,43.12,142.27,0,132.78-107.7,240.43-240.56,240.43a241.84,241.84,0,0,1-53.81-6c-62.68-12-98.88-43.57-116.93-65C376.44,728.89,372,719.92,372,719.92c56.17,20.12,118.27,15.91,156-4.95,38.06-21.1,61.08-36.74,79.77-30.57,18.42,6.14,33.09-11.68,19.93-30.16-12.89-18.44-46.43-44.87-96.24-37.55-38.1,5.55-73,32.6-122.92,6.41a104.39,104.39,0,0,1-9.37-5.5c-3.29-1.94,10.7,2.95,7.43.74-9.71-4.72-26.91-15-31.37-18.69-.74-.61,7.54,2.36,6.79,1.75-46.68-34.44-40.85-57.71-39.38-72.3,1.18-11.68,9.65-26.64,23.94-32.71,6.9,3.38,11.2,5.95,11.2,5.95s-2.94-5.38-4.54-8.22c.56-.22,1.09-.16,1.65-.37,5.65,2.44,18.15,8.79,24.73,12.67,8.57,5.41,11.31,10.25,11.31,10.25s2.25-1.12.58-5.84c-.61-1.94-3.2-8.1-11.69-14.31l.53.05a100.09,100.09,0,0,1,14.38,8.95c2.39-7.8,6.7-15.94,5.75-30.51-.57-10.24-.31-12.89-2.32-16.85-1.81-3.39,1-4.72,4.14-1.19a32.63,32.63,0,0,0-2.68-8l0-.27c3.91-12.2,82.72-43.94,88.46-47.65a76.87,76.87,0,0,0,23.19-22.59c4.38-6.26,7.68-15,8.49-28.36.27-6-1.58-10.76-22.45-15.3-12.53-2.73-31.91-5.38-61.81-8.18-21.79-1.93-34.58-16.08-41.85-29.14-1.32-2.81-2.68-5.36-4-7.9a59.48,59.48,0,0,1-3.1-9.16,173.57,173.57,0,0,1,67.11-83.3c1.76-1.44-7,.36-5.25-1.07,2-1.67,15.4-6.49,17.92-7.58,3.08-1.29-13.19-7.49-27.55-6-14.63,1.48-17.74,3-25.55,6,3.25-2.89,13.55-6.68,11.13-6.66-15.77,2.17-35.37,10.38-52.13,19.69a10.74,10.74,0,0,1,1-4.73c-7.8,3-27,15-32.56,25.14a44.35,44.35,0,0,0,.34-5.87,96.75,96.75,0,0,0-16,15l-.3.24C299.52,214.93,259.67,213.87,226,221.2c-7.38-6.64-19.24-16.68-36-49.72-1.14-2-1.75,4.11-2.63,2.15-6.52-15.13-10.46-39.92-9.81-57,0,0-13.49,6.14-24.66,31.82-2.07,4.62-3.4,7.17-4.73,9.71-.61.74,1.38-8.43,1.07-7.93-1.95,3.28-7,7.87-9.17,13.82-1.52,4.4-3.64,6.87-5,12.36l-.32.5c-.11-1.62.4-6.66,0-5.62A258.42,258.42,0,0,0,121.23,204c-6,19.76-13,46.66-14.12,81.66-.27,2.65,0,5.63-.27,8-14.24,16.26-23.94,30-27.61,37.16-18.41,28.44-38.7,72.77-58.36,142.88a349.47,349.47,0,0,1,31.26-54.74C35.78,456.16,20,514.6,16.81,604.6a481.29,481.29,0,0,1,15.19-55C29.18,609.6,36.17,684,74.11,768c22.53,49.38,74.39,149.66,201.1,227.91h0S318.31,1028,392.4,1052c5.48,2,11,3.94,16.69,5.84q-2.67-1.08-5.17-2.25a531,531,0,0,0,152,22.34c191.86.16,248.44-76.88,248.44-76.88l-.56.41q4.07-3.83,7.82-8c-30.27,28.59-99.35,30.49-125.18,28.42,44.06-12.93,73-23.88,129.43-45.47q9.89-3.68,20.23-8.37l2.25-1c1.37-.64,2.72-1.24,4.11-1.91A382.29,382.29,0,0,0,919.41,917c56.63-45.23,69-89.32,75.39-118.39-.9,2.79-3.7,9.28-5.67,13.49-14.58,31.19-46.92,50.33-82,66.75a755,755,0,0,0,46.41-68.38c11.48-11.36,15-29.15,23.61-41.1Z" transform="translate(-16.81)"/><path class="cs" d="M908.2,877.5c23.09-25.45,43.82-54.56,59.53-87.58,40.41-85,102.89-226.24,53.68-373.79-38.89-116.62-92.29-180.38-160.1-242.68C751.2,72.3,720.45,27.14,720.45.28c0,0-127.14,141.73-72,289.55s168.07,142.4,242.78,296.65C979.14,768,820.1,966.09,688.57,1021.53c8-1.79,292.38-66.13,307.32-228.76C995.56,795.76,989.15,840.74,908.2,877.5Z" transform="translate(-16.81)"/><path class="ct" d="M539.86,350.05c.43-9.6-4.55-16.05-84-23.5-32.68-3-45.19-33.22-49-45.94C395.25,310.8,390.46,342.48,393,380.8c1.76,25.1,18.62,52,26.69,67.86,0,0,1.79-2.33,2.61-3.19,15.18-15.8,78.79-39.88,84.76-43.3C513.69,398,538.76,379.69,539.86,350.05Z" transform="translate(-16.81)"/><path class="cu" d="M539.86,350.05c.43-9.6-4.55-16.05-84-23.5-32.68-3-45.19-33.22-49-45.94C395.25,310.8,390.46,342.48,393,380.8c1.76,25.1,18.62,52,26.69,67.86,0,0,1.79-2.33,2.61-3.19,15.18-15.8,78.79-39.88,84.76-43.3C513.69,398,538.76,379.69,539.86,350.05Z" transform="translate(-16.81)"/><path class="cv" d="M190.2,171.65c-1.14-2-1.76,4.11-2.63,2.14-6.53-15.12-10.49-39.64-9.55-57,0,0-13.49,6.15-24.66,31.83-2.07,4.61-3.4,7.16-4.73,9.71-.61.74,1.39-8.44,1.07-7.94-1.94,3.29-7,7.88-9.14,13.55-1.81,4.65-3.67,7.14-5.06,12.9-.42,1.56.43-6.93.06-5.89-26,50.18-30.92,126.07-28.19,122.86,55.29-59,118.64-73,118.64-73-6.74-5-21.39-19.3-35.81-49.16Z" transform="translate(-16.81)"/><path class="cw" d="M400,788.92c-76.37-32.6-163.18-78.58-159.9-183C244.52,468.3,368.35,495.5,368.35,495.5c-4.68,1.13-17.17,10-21.6,19.51-4.68,11.86-13.22,38.64,12.65,66.7C400,625.73,276,686.14,467.46,800.27c4.83,2.63-44.9-1.56-67.51-11.34Z" transform="translate(-16.81)"/><path class="cx" d="M372.83,720.36c54.14,18.85,117.22,15.54,155-5.32,25.28-14.07,57.72-36.61,77.67-31-17.28-6.83-30.36-10-46.1-10.8-2.69,0-5.9-.06-8.82-.35a148.65,148.65,0,0,0-17.26.95c-9.74.89-20.55,7-30.37,6.05-.53-.05,9.53-4.13,8.71-3.94-5.2,1.08-10.86,1.32-16.83,2.06-3.8.42-7.07.89-10.84,1-112.78,9.57-208.1-61.12-208.1-61.12-8.11,27.32,36.32,81.37,96.95,102.47Z" transform="translate(-16.81)"/><path class="cy" d="M908,878.23c114.08-112,171.79-248.15,147.4-400.86,0,0,9.74,78.31-27.22,158.4,17.76-78.19,19.83-175.36-27.35-276-63-134.31-166.52-205-206.05-234.46C734.88,80.67,710,35.19,709.6,25.8c-17.9,36.66-72,162.31-5.82,270.51,62,101.37,159.75,131.46,228.16,224.45C1058,692.07,908,878.23,908,878.23Z" transform="translate(-16.81)"/><path class="cz" d="M891.66,586.81C851.79,504.45,802,468.53,755,429.59c5.47,7.67,6.82,10.38,9.85,15.34C806.25,489.08,867.34,596.78,823,732,739.5,986.47,405.56,866.63,370.56,833c14.16,147.29,260.69,217.77,421.2,122.26C883.1,868.76,957,721.78,891.66,586.81Z" transform="translate(-16.81)"/><path class="da" d="M908.42,752l1-5.31c.35-1.91.83-3.94,1.12-6.14.67-4.38,1.52-9.27,2-14.71a260.88,260.88,0,0,0,1.62-38.32,244.06,244.06,0,0,0-6.38-48,254.36,254.36,0,0,0-19.08-53.39,369.28,369.28,0,0,0-32.41-54.55c-6.35-9-13.48-17.71-20.91-26.35s-15.59-16.85-24-25S794.11,464.4,785,456.69s-18.44-15.28-27.77-23S738.57,418.22,729.53,410s-17.77-16.73-26-25.74a270,270,0,0,1-22.73-28.51l-2.57-3.74c-.87-1.23-1.72-2.48-2.5-3.78L671,340.61c-1.57-2.56-3-5.23-4.46-7.83l-2.21-3.91c-.72-1.31-1.35-2.66-2-4l-4-8c-1.25-2.69-2.44-5.41-3.65-8.1-2.53-5.35-4.52-10.89-6.71-16.3l-.81-2-.7-2.08L645,284.23c-.91-2.76-1.87-5.5-2.73-8.26l-2.19-8.36L639,263.45c-.39-1.38-.57-2.79-.87-4.19a232.41,232.41,0,0,1-4.16-65.52,285.81,285.81,0,0,1,11.16-58.53A341,341,0,0,1,663.7,87a406.53,406.53,0,0,1,19.9-37,400.89,400.89,0,0,1,27-39.4c2.8-3.57,5.6-7,8.39-10.24a1,1,0,0,1,1.43,0,1,1,0,0,1,.18,1.41c-2.65,3.08-5.45,6.57-8.27,10.19a411.53,411.53,0,0,0-47.11,77.49,337.32,337.32,0,0,0-18.11,48.13,280.65,280.65,0,0,0-10.58,58A233.47,233.47,0,0,0,641.23,260c.14.68.27,1.38.42,2.06l.54,2,1.08,4.09c.75,2.71,1.4,5.47,2.23,8.19l2.73,8.1,1.37,4.07c.45,1.36,1,2.68,1.56,4l3.22,8.06.8,2,.9,2,1.79,4,1.8,4c.61,1.33,1.18,2.67,1.87,4l4,7.84a271.73,271.73,0,0,0,41,58.21c8.14,8.82,16.79,17.21,25.74,25.26s18.24,15.72,27.52,23.35,18.62,15.14,27.73,22.83,18,15.5,26.53,23.55,16.6,16.44,24.19,25S852.9,520,859.33,529.05a372,372,0,0,1,32.83,54.81l.86,1.7.8,1.72,1.57,3.44c1,2.3,2.12,4.55,3.08,6.83l2.75,6.85,1.37,3.39c.42,1.13.8,2.28,1.2,3.41l2.35,6.76c.41,1.11.75,2.24,1.07,3.36l1,3.36c.65,2.24,1.34,4.44,1.93,6.64l1.62,6.59a248.84,248.84,0,0,1,6.72,48.81A265.51,265.51,0,0,1,917,725.89c-1.16,11.15-3,20.2-4.29,27a312.26,312.26,0,0,1-10.82,38.58,329.36,329.36,0,0,1-14,33.85c-5,10.42-10.09,20.08-15.3,28.76l-1.9,3.25-1.94,3.13L865,866.53c-2.57,3.89-5,7.63-7.42,11.11-4.83,7-9.38,13.09-13.47,18.33l-5.77,7.22-5,5.89-2.13,2.48-1.93,2.1q-1.8,2-3,3.27c-1.67,1.74-2.59,2.6-2.71,2.5s.63-1.17,2.13-3.15,3.83-4.81,6.66-8.59c5.8-7.45,14-18.44,23.36-32.67,2.28-3.6,4.71-7.34,7.13-11.32s4.93-8.14,7.34-12.55c5-8.74,9.9-18.34,14.66-28.66,1.15-2.6,2.41-5.2,3.53-7.89l3.42-8.17c2.15-5.56,4.39-11.25,6.35-17.16A321,321,0,0,0,908.42,752Z" transform="translate(-16.81)"/><path class="db" d="M826.55,711.87c.57-2.26,1.45-5.26,2.21-9s1.91-8.11,2.73-13.14c.43-2.51,1-5.16,1.41-8l1.22-8.8.32-2.31.24-2.37.47-4.87c.16-1.65.35-3.33.48-5l.3-5.2a286.24,286.24,0,0,0-1-45.92l-.3-3-.4-3.06-.82-6.14c-.25-2.06-.67-4.1-1-6.16s-.67-4.13-1.1-6.19L830,576.5c-.22-1-.41-2.07-.66-3.09l-.74-3.07-1.5-6.15-1.71-6.1A297.23,297.23,0,0,0,808,512a292.78,292.78,0,0,0-21.52-37.67c-3.59-5.39-7.22-10.19-10.53-14.52s-6.51-8-9.35-11.17l-2-2.26-.49-.55a1.41,1.41,0,0,1-.33-.44l-.2-.32-.7-1.17-2.44-4.11c-1.44-2.39-2.56-4.07-3.2-5-.88-1.3-1.75-2.58-2.59-3.77a1,1,0,0,1,.33-1.39,1,1,0,0,1,1.42.15c.84,1.16,1.75,2.45,2.66,3.79.71,1.05,1.92,2.83,3.43,5.31L765,443l.71,1.15a.6.6,0,0,0,.09.13l.25.26.5.55,2.11,2.3A242.24,242.24,0,0,1,789,473.36a294,294,0,0,1,21.92,37.82,299.84,299.84,0,0,1,17.8,46.22l1.75,6.12L832,569.7l.78,3.09.67,3.11,1.34,6.2c.43,2.07.76,4.16,1.14,6.23s.79,4.12,1.06,6.2l.88,6.18.42,3.08.32,3.07A289.36,289.36,0,0,1,840,653.21a283.13,283.13,0,0,1-4.24,37.06c-.81,5.13-1.9,9.6-2.71,13.42s-1.65,6.93-2.26,9.28l-1.82,6.9-2,6.56-2,6.26q-1,3-2.09,5.88c-2.78,7.61-5.63,14.18-8.2,19.54-5.15,10.72-9.11,16.58-9.6,16.31s2.55-6.86,6.95-17.89c2.19-5.52,4.69-12.16,7.2-19.7.62-1.88,1.26-3.82,1.88-5.81l1.81-6.13,1.9-6.37Z" transform="translate(-16.81)"/><path class="dc" d="M801.94,403.79c-2.57-2.08-6.08-4.79-10.24-8.26l-6.83-5.64c-2.45-2-5-4.29-7.76-6.65a442,442,0,0,1-37.68-36.41,320.53,320.53,0,0,1-38.95-52.54c-1.43-2.53-2.91-5.05-4.33-7.62l-4-7.91-1-2c-.32-.67-.6-1.36-.9-2l-1.78-4.09-1.79-4.11c-.57-1.38-1.06-2.79-1.6-4.19l-1.57-4.21c-.53-1.4-1.06-2.81-1.49-4.25l-2.72-8.59-2.3-8.73c-.41-1.45-.72-2.92-1-4.39l-.93-4.41a246.23,246.23,0,0,1-4.49-35.38,272.83,272.83,0,0,1,.46-34.43,306.11,306.11,0,0,1,4.07-32c1.85-10.15,4.06-19.73,6.42-28.59A394.88,394.88,0,0,1,696.1,53.6C700.55,42.46,704,35,705.42,32c.94-2,1.89-4,2.8-5.86a1.06,1.06,0,0,1,1.38-.39,1,1,0,0,1,.55,1.32c-.87,1.81-1.8,3.79-2.75,5.85-1.47,3.23-5,10.85-9.37,22.06a397.24,397.24,0,0,0-14.18,43.72,326,326,0,0,0-9.9,60.08,275.86,275.86,0,0,0-.2,33.9,244.17,244.17,0,0,0,4.68,34.7l.94,4.32.47,2.16.57,2.13,2.31,8.53,2.71,8.41c.42,1.41,1,2.77,1.49,4.14l1.56,4.11c.53,1.37,1,2.75,1.59,4.1l1.77,4,1.76,4c.3.66.58,1.34.89,2l1,1.94L699.4,285l4.28,7.44a318.43,318.43,0,0,0,38.56,51.5,440.44,440.44,0,0,0,37.43,35.89c2.75,2.34,5.31,4.58,7.76,6.61l6.86,5.63c4.19,3.48,7.74,6.22,10.37,8.34L834,423.59c8.85,7.05,16.59,13.41,22.9,18.84l8.4,7.35c2.41,2.21,4.44,4.14,6.08,5.72,3.27,3.17,4.94,5,4.74,5.22s-2.3-1.25-6-4.09l-15.58-12.17-23.51-18.07C822.15,419.56,812.26,412,801.94,403.79Z" transform="translate(-16.81)"/><path class="dd" d="M1030.65,440c-.54-2-1.12-4.46-1.89-7.17s-1.63-5.75-2.65-9.07l-1.66-5.18c-.56-1.81-1.17-3.68-1.86-5.59l-4.34-12.31-2.38-6.72-2.74-7-2.87-7.35c-1-2.49-1.91-5.08-3.06-7.64l-6.9-16c-2.51-5.47-5.22-11.06-7.94-16.84l-1-2.17-1.12-2.15L988,330.4l-4.59-8.83c-.75-1.5-1.59-3-2.43-4.44l-2.53-4.44-5.13-9-5.56-9-2.81-4.55c-.48-.76-.94-1.53-1.43-2.28L962,285.6c-4.06-6-8-12.13-12.45-18-2.19-3-4.33-6-6.58-9L936,249.71c-1.16-1.47-2.3-3-3.49-4.44l-3.64-4.34-7.33-8.72L914,223.69c-1.27-1.42-2.51-2.87-3.83-4.26l-3.93-4.16c-2.63-2.77-5.22-5.57-7.89-8.31l-8.06-8.12c-2.66-2.73-5.42-5.36-8.15-8s-5.45-5.29-8.22-7.87l-16.52-15.31c-11-10.08-21.66-20.07-31.89-29.89-20.48-19.63-39.2-38.54-54.79-55.84s-28-33.07-36-46a116,116,0,0,1-8.79-16.74,61.48,61.48,0,0,1-3.28-10.08,40.31,40.31,0,0,1-1.06-8,1.1,1.1,0,0,0-1.1-.91,1,1,0,0,0-1,.94v0a41.73,41.73,0,0,0,1.07,8.4A63.17,63.17,0,0,0,724,20.54a117.86,117.86,0,0,0,9.13,17.33,255.17,255.17,0,0,0,15.35,21.71c6.11,7.81,13.15,16.13,20.94,24.84C785,101.84,803.67,120.8,824,140.48c10.17,9.85,20.8,19.85,31.67,29.93l16.35,15.29,8.1,7.85c2.71,2.62,5.41,5.25,8,8l8,8.08,7.76,8.27,3.87,4.13c1.28,1.4,2.51,2.82,3.76,4.23l7.49,8.47,7.2,8.64,3.58,4.31c1.16,1.45,2.29,2.94,3.43,4.4l6.8,8.78c2.21,2.95,4.32,5.95,6.47,8.91,4.36,5.85,8.24,11.95,12.22,17.86,2,2.93,3.78,6,5.64,9l5.46,8.9,5,8.94c1.64,3,3.36,5.84,4.88,8.79l4.5,8.75,2.21,4.3c.74,1.42,1.47,2.83,2.12,4.27a595.57,595.57,0,0,1,25.5,61.18l4.3,12.3,1,2.82.87,2.74,1.64,5.17c1,3.31,1.85,6.35,2.64,9.07s1.35,5.15,1.91,7.23l.8,3.1.71,3.1,1.41,6.11c.8,4.06,1.72,8,2.37,11.93l1,5.8.88,5.68c.62,3.74,1,7.41,1.5,11,1.75,14.25,2.45,26.94,2.79,37.5.56,21.12-.22,33.68.49,33.73h0c.28,0,.78-3.21,1.39-9.13s1.12-14.56,1.19-25.33A337,337,0,0,0,1030.65,440Z" transform="translate(-16.81)"/><path class="de" d="M649,791.85c1.56-.56,3.29-1.44,5.31-2.32l6.73-3,7.9-4,2.17-1.1,2.19-1.25,4.58-2.63c3.19-1.73,6.38-3.88,9.78-6s6.82-4.64,10.43-7.15c1.82-1.23,3.57-2.63,5.36-4L709,756l5.46-4.69c1.84-1.59,3.74-3.17,5.52-4.93l5.53-5.24c1.84-1.79,3.6-3.72,5.43-5.6l2.75-2.87c.92-1,1.76-2,2.66-3l5.35-6.14A268.61,268.61,0,0,0,761.41,696a262.85,262.85,0,0,0,16.23-31.42,258.31,258.31,0,0,0,11.5-34.06,254.75,254.75,0,0,0,6.21-35.11c.45-5.86,1-11.66,1.06-17.41.26-5.76.12-11.45,0-17.05a260.13,260.13,0,0,0-3.21-32.25c-.76-5.13-1.84-10.07-2.83-14.88l-1.7-7.06c-.53-2.32-1.25-4.55-1.85-6.78l-.93-3.3c-.31-1.08-.68-2.14-1-3.2l-2-6.22-2.15-5.87-1-2.84-1.12-2.73-2.15-5.26c-.73-1.69-1.5-3.31-2.21-4.89s-1.39-3.12-2.12-4.57l-2.11-4.19a226.81,226.81,0,0,0-11.75-20.48l-3.6-5.45a1.08,1.08,0,0,1,.16-1.22l.47-.17h0l-.26.05h-.27l.5-.18a1,1,0,0,1,1.16.3L760,435.2a231.18,231.18,0,0,1,12.27,21.18A239.46,239.46,0,0,1,789.51,500c1.36,4.45,2.43,9.15,3.62,14l1.54,7.38c.27,1.25.5,2.51.7,3.78L796,529a270.21,270.21,0,0,1,3.35,32.48c.06,2.83.13,5.67.19,8.53.05,1.43,0,2.87,0,4.31s-.06,2.89-.09,4.34c0,5.8-.61,11.66-1,17.57a240.9,240.9,0,0,1-53.67,129.66l-5.37,6.25c-.9,1-1.75,2.07-2.67,3.06L734,738.09c-1.84,1.92-3.62,3.87-5.47,5.71l-5.57,5.33c-.93.87-1.81,1.78-2.76,2.6l-2.81,2.45L711.85,759l-5.55,4.38c-1.83,1.42-3.58,2.88-5.42,4.14l-5.35,3.81c-.88.62-1.73,1.26-2.6,1.84l-2.62,1.69c-3.46,2.19-6.69,4.42-9.94,6.19l-4.67,2.7L673.47,785c-.74.41-1.49.77-2.21,1.15l-8.09,4.15c-2.52,1.2-4.85,2.22-6.93,3.17s-3.88,1.83-5.51,2.42a225.59,225.59,0,0,1-36.44,11.64c-2.82.62-5.56,1.24-8.21,1.78l-7.77,1.28-3.67.59-3.55.4-6.63.7c-2.11.26-4.12.31-6,.41l-5.33.24c-3.32.2-6.16,0-8.47,0-4.62-.15-7.12-.37-7.12-.68s2.58-.62,7.27-1c2.34-.2,5.22-.33,8.54-.77l5.34-.57,2.91-.31c1-.11,2-.29,3.07-.44,4.18-.68,8.79-1.18,13.68-2.25l7.6-1.49,8-1.95A251.73,251.73,0,0,0,649,791.85Z" transform="translate(-16.81)"/><path class="df" d="M402.25,288c1.06-3,2.39-6.54,3.94-10.62,1.73-4,3.52-8.61,6-13.53a177.41,177.41,0,0,1,20.92-33.62,166.79,166.79,0,0,1,38.19-35.52c2-1.37,4.13-2.66,6.29-3.94l1.63-.95.59-.33.22-.11.35-.19.1-.05c.14,0,0,0-.06-.07l-.11,0-.45-.11q-3.74-.78-7.6-1.34a137.69,137.69,0,0,0-32.52-.86,123.36,123.36,0,0,0-29,6.28,111.22,111.22,0,0,0-15,6.56c-5,2.65-10.14,5.54-15.32,8.51s-10.44,6.12-15.64,9.5q-2,1.25-3.9,2.58c-1.3.86-2.58,1.76-3.85,2.68a82.76,82.76,0,0,0-7.38,5.82c-.55.53-1.14,1-1.62,1.6l-.38.4-.43.52c-.11.16-.28.24-.33.46-.05,0-.15,0-.19,0l-.1.06-.21.11-.75.4a3.83,3.83,0,0,1-.7.29c-.3.07-.62.36-.95.12l-1.65-.61-2.29-.81c-3.07-1.07-6.19-2.06-9.33-3q-9.45-2.88-19.29-5.11l-.87-.2-.94-.21a208,208,0,0,0-32.39-4.56,144.59,144.59,0,0,0-33.09,2.44c-5.51,1-11,2.17-16.44,3.53s-10.86,2.93-16.21,4.64A259.41,259.41,0,0,0,180.2,241a229.29,229.29,0,0,0-55,35.68,193.32,193.32,0,0,0-21.79,22.63c-1.68,1.94-3.16,4-4.71,6s-3,4.11-4.41,6.17l-4.26,6.16c-1.4,2-2.84,4.05-4.1,6.15L78.29,336l-7,12.14c-1.16,2-2.21,4-3.25,6L65,360.07c-1,2-2.07,3.87-3,5.81l-2.78,5.75c-3.76,7.55-6.93,14.93-10,21.85-2.9,7-5.67,13.57-8,19.77s-4.4,11.94-6.3,17.15c-1.75,5.26-3.41,10-4.68,14.14l-1.82,5.79L27,455.22c-.88,2.93-1.51,5.24-2,6.84-1.05,3.75-2,7.45-2.87,10.95a1,1,0,0,1-1.26.67,1,1,0,0,1-.83-1.16c.83-3.45,1.78-7.21,2.85-11,.48-1.75,1.15-4.2,2.06-7.27l1.49-5.07,1.86-6c.65-2.14,1.4-4.41,2.2-6.81s1.63-4.95,2.55-7.61c1.89-5.3,3.91-11.16,6.35-17.38s5.13-12.89,8-19.95l4.77-10.77c.79-1.86,1.66-3.7,2.57-5.56l2.71-5.67,2.78-5.79,3-5.83,3.09-5.95c.53-1,1-2,1.59-3l1.69-3c2.29-4,4.55-8.1,7-12.2l7.67-12.33c.63-1.06,1.33-2.07,2-3.09l2.11-3.07L92.71,309l2.15-3.13,2.31-3.07,2.32-3.08c.8-1,1.64-2,2.46-3a197.33,197.33,0,0,1,22-22.83,223.11,223.11,0,0,1,26.12-19.78,250.31,250.31,0,0,1,29.3-16.21,262.45,262.45,0,0,1,64.42-20.73c5.56-1,11.17-1.77,16.79-2.25,1.41-.12,2.82-.23,4.23-.29s2.82-.13,4.24-.15c2.83-.05,5.63.09,8.43.14a212.75,212.75,0,0,1,32.85,4.52l.94.22.89.2q9.94,2.21,19.52,5.11c3.18,1,6.34,2,9.46,3.05l2.33.81.68.25c.12,0,.14.07.2,0a.83.83,0,0,1,.11-.15l.31-.38.44-.48c.6-.67,1.22-1.22,1.83-1.82a85.37,85.37,0,0,1,7.68-6.11q2-1.42,3.93-2.75c1.31-.9,2.63-1.79,3.95-2.63,5.27-3.45,10.56-6.6,15.77-9.65s10.32-5.9,15.42-8.63a114.37,114.37,0,0,1,15.54-6.85,127.1,127.1,0,0,1,30-6.6,141.52,141.52,0,0,1,33.29.76q4,.56,7.8,1.35c.38.08,1.94.41,3.05.69s2.37.58,3.43.91l3.21,1,1.59.48.33.11.17.06c.06,0,.07,0,0,0l-.11.06-.94.42-3.7,1.67-.91.42a7.43,7.43,0,0,0-.84.4l-1.46.76-1.46.77-.72.38-.35.18-.2.11-1.56.91c-1,.59-2.06,1.23-3.08,1.86s-2,1.26-3,1.93a162.48,162.48,0,0,0-37.14,34.52,174.49,174.49,0,0,0-20.49,32.91c-2.43,4.85-4.23,9.41-5.92,13.4s-2.87,7.6-3.95,10.63a253.54,253.54,0,0,0-8.85,32.82,218.76,218.76,0,0,0-4.05,30.8,141.07,141.07,0,0,0,1,27.48l.52,3.12a31,31,0,0,0,.59,3.05c.48,2,.88,4,1.44,5.88s1,3.78,1.6,5.59,1.1,3.58,1.7,5.28a301,301,0,0,0,12.9,31.41c3.38,7.19,5.34,11,5.07,11.19s-2.77-3.58-6.73-10.74a233.87,233.87,0,0,1-14.46-31.74c-1.27-3.49-2.49-7.19-3.62-11.11-.57-2-1-4-1.57-6.05s-.8-4.24-1.21-6.42a143.23,143.23,0,0,1-1.2-28.22,209.35,209.35,0,0,1,3.93-31.06A249.72,249.72,0,0,1,402.25,288Z" transform="translate(-16.81)"/><g class="dg"><path class="dh" d="M1019,720.23l3.12-6.9,4.35-10.08,5.2-12.84,2.76-7.35c.94-2.53,2-5.14,2.87-7.87,1.86-5.44,3.89-11.15,5.67-17.18.9-3,1.94-6,2.77-9.17l2.58-9.51c.93-3.2,1.6-6.49,2.38-9.78l1.15-5c.39-1.66.78-3.33,1.07-5l1.9-10.12.47-2.54.38-2.55.75-5.1c1.11-6.78,1.69-13.61,2.45-20.29.48-6.71,1.06-13.3,1.22-19.71.5-12.82.38-24.86-.24-35.4a312,312,0,0,0-4.47-39.73c-.23-1.26-.48-2.49-.72-3.65a1.07,1.07,0,0,1,.85-1.15,1,1,0,0,1,1.25.69h0c.25,1.15.52,2.41.77,3.7a316.14,316.14,0,0,1,4.93,40.45c.14,2.65.36,5.39.44,8.22s.18,5.73.27,8.71c0,6,.13,12.2-.15,18.64-.1,6.44-.63,13.06-1,19.8-.7,6.71-1.23,13.56-2.28,20.38l-.71,5.13-.35,2.57-.46,2.55-1.81,10.19c-.28,1.69-.66,3.37-1,5l-1.11,5c-.75,3.31-1.39,6.63-2.3,9.84l-2.51,9.58c-.39,1.59-.86,3.13-1.32,4.67l-1.37,4.57-1.35,4.49-.66,2.22-.72,2.17-2.82,8.43A489.44,489.44,0,0,1,1023,722c-13,28.69-25.9,47.79-26.94,47.12S1006.42,747.92,1019,720.23Z" transform="translate(-16.81)"/></g><g class="dg"><path class="dh" d="M870.41,947.68c5.46-3.27,18.46-11,34.13-22.23l6-4.34,6.17-4.69L919.9,914l3.15-2.54,6.43-5.2,6.39-5.51c2.16-1.85,4.33-3.71,6.38-5.68s4.09-4,6.13-6,3.93-4.17,5.76-6.38a154.14,154.14,0,0,0,10.44-13.46,160.06,160.06,0,0,0,8.76-14,186.65,186.65,0,0,0,12.4-26.82,174.72,174.72,0,0,0,8.66-32.25c.17-1.06.33-2.1.45-3.08a1.07,1.07,0,0,1,1.17-.81,1,1,0,0,1,1,1.06h0c-.11,1-.25,2.05-.41,3.15A177.38,177.38,0,0,1,988,829.71,188,188,0,0,1,975.76,857,165.94,165.94,0,0,1,967,871.23,160.37,160.37,0,0,1,956.57,885c-1.83,2.25-3.84,4.37-5.79,6.53s-4,4.21-6.16,6.18-4.24,3.92-6.38,5.8l-6.36,5.61-6.4,5.29L922.34,917l-3.16,2.46L913,924.24c-2,1.53-4,3-6,4.42-15.66,11.46-28.72,19.4-34.38,22.78C850,965,831.86,971.88,831.39,970.72c-.22-.51,4.09-3,11.16-7S859.47,954.2,870.41,947.68Z" transform="translate(-16.81)"/></g><g class="dg"><path class="dh" d="M584.22,1075.27l7.37-.3,10.67-.66c8.1-.56,18.07-1.41,29.19-2.76,1.39-.17,2.81-.29,4.23-.5l4.32-.63,8.92-1.29c3-.43,6.09-1.07,9.2-1.6s6.28-1.09,9.45-1.75l9.58-2.12,4.85-1.07c1.61-.38,3.21-.85,4.82-1.27l9.69-2.59c.81-.22,1.63-.42,2.42-.67l2.4-.77,4.77-1.54c3.18-1,6.38-2,9.51-3.12l9.3-3.44,4.6-1.71,4.49-1.83,8.8-3.61a297.92,297.92,0,0,0,30.82-15.37,130.87,130.87,0,0,0,20.91-14.84,55.13,55.13,0,0,0,8.73-9.52c.32-.51.66-1,1-1.5s.58-1,.79-1.49a1.16,1.16,0,0,1,1.34-.43c.6.16.77.71.61,1.32s-.56,1.09-.86,1.67-.68,1.1-1,1.65a57.74,57.74,0,0,1-9.24,10.26,136.66,136.66,0,0,1-21.27,15.35,307.74,307.74,0,0,1-30.92,15.77l-8.8,3.69-4.48,1.89-4.59,1.75-9.28,3.54c-3.14,1.13-6.34,2.14-9.53,3.22l-4.79,1.59-2.4.8c-.8.25-1.62.46-2.43.69l-9.71,2.7c-1.62.44-3.22.92-4.84,1.31l-4.85,1.13-9.6,2.22c-3.18.69-6.35,1.23-9.47,1.84s-6.19,1.23-9.23,1.7l-8.94,1.38c-2.92.45-5.78.9-8.58,1.21-11.17,1.45-21.19,2.39-29.37,3l-10.81.73-7.54.33c-30.67,1.28-52.95-1.27-52.84-2.5S554.61,1076.53,584.22,1075.27Z" transform="translate(-16.81)"/></g><path class="di" d="M187.51,176.07l-2.11-3.47c-.73-1.44-1.68-3.06-2.55-5a82.86,82.86,0,0,1-5-14.7,128.7,128.7,0,0,1-3.31-21.46q-.23-3.1-.33-6.44c0-.56,0-1.12,0-1.69v-.69a.08.08,0,0,0,0-.07l0,0-.1.1-.1.11c-.07.07.07-.1-.49.54-1.65,1.84-3.3,3.76-5,5.75-4.46,5.22-9.23,11.12-14,17.52s-9.68,13.31-14.26,20.61c-2.34,3.61-4.46,7.41-6.64,11.19l-3,5.78c-.52,1-1,1.94-1.43,2.93l-1.37,3a163.49,163.49,0,0,0-8.61,24c-2.24,8-4,15.71-5.4,22.91s-2.37,13.85-3.13,19.66c-1.46,11.61-1.95,19.82-2.09,22.43l-.17,3.67a1.07,1.07,0,0,1-1.1.91,1,1,0,0,1-1-1c0-1.16.07-2.42.13-3.72.13-2.87.54-11.26,1.92-23,.7-5.87,1.68-12.59,3-19.86s3-15.08,5.22-23.13a163.46,163.46,0,0,1,8.52-24.42l1.36-3,.68-1.51.76-1.47,3-5.89c2.17-3.83,4.27-7.69,6.6-11.36,4.55-7.42,9.35-14.45,14.16-20.93s9.53-12.49,14-17.82c1.69-2,3.34-3.94,5-5.81l.75-.84,1.16-1.28,2.31-2.55,2.27-2.44,1.13-1.21.27-.29.13-.13v.2l0,.89c-.07,2.35-.2,4.79-.17,6.94v3.08c0,.55,0,1.09.05,1.62q.12,3.22.36,6.25a124.83,124.83,0,0,0,3.28,20.69,79.38,79.38,0,0,0,4.85,14,27.46,27.46,0,0,0,1.26,2.49l1.15,2.17,2.08,3.43c4,6.46,8.21,12.26,12,17.41s7.29,9.64,10.19,13.36c5.8,7.45,9.25,11.9,8.8,12.32s-4.82-3.5-11.34-10.57c-3.26-3.54-7-7.89-11.07-12.94A188.33,188.33,0,0,1,187.51,176.07Z" transform="translate(-16.81)"/><path class="dj" d="M241.43,639.7c-.39-1.73-.73-4.09-1.24-7-.28-1.43-.47-3-.66-4.71l-.66-5.45a155.84,155.84,0,0,1,.1-28.08,165.91,165.91,0,0,1,6.75-34.28,109.2,109.2,0,0,1,7.21-17.57,89.78,89.78,0,0,1,24.44-29.43l3.75-2.83c1.26-.93,2.58-1.74,3.85-2.61l1.92-1.27c.64-.41,1.31-.78,2-1.17l3.9-2.29a89,89,0,0,1,31.51-9.65,132.26,132.26,0,0,1,24.61-.49c6.39.46,10.73,1.17,12.46,1.44,1.18.21,2.33.4,3.43.64a1.08,1.08,0,0,1,.68,1.36,1.09,1.09,0,0,1-1.1.74c-1-.2-2.18-.39-3.36-.57-1.85-.28-6.24-.94-12.59-1.31a129.85,129.85,0,0,0-24.22.8,86.29,86.29,0,0,0-30.27,9.79c-2.48,1.53-5.07,2.95-7.5,4.69-1.22.86-2.51,1.64-3.69,2.58l-3.59,2.77A86.23,86.23,0,0,0,256,544.35a105.65,105.65,0,0,0-6.76,17A163,163,0,0,0,243,594.74a152.27,152.27,0,0,0,.1,27.26l.67,5.32c.2,1.66.39,3.21.67,4.62.52,2.81.86,5.14,1.25,6.88,1.44,7,3.13,13.36,4.82,19.06s3.41,10.68,5,14.78c3,8.24,5.11,13,4.57,13.31s-3.7-4.22-7.51-12.39a145.16,145.16,0,0,1-5.94-14.78c-.94-2.86-1.94-5.88-2.77-9.09S242.2,643.15,241.43,639.7Z" transform="translate(-16.81)"/></g></svg>