<svg xmlns="http://www.w3.org/2000/svg" xmlns:xlink="http://www.w3.org/1999/xlink" viewBox="0 0 1080 540"><defs><style>.a{fill:none;}.b{fill:url(#a);}.c{fill:url(#b);}.d{fill:url(#c);}.e{fill:url(#e);}.f{fill:url(#g);}.g{fill:url(#i);}.h{fill:url(#k);}.i{fill:url(#m);}.j{fill:url(#n);}.k{fill:url(#o);}.l{fill:url(#ad);}.m{fill:url(#ag);}.n{fill:url(#aj);}.o{fill:url(#am);}.p{fill:url(#ap);}.q{fill:url(#as);}.r{fill:url(#av);}.s{fill:url(#ay);}.t{fill:url(#bb);}.u{fill:url(#be);}.v{fill:url(#bg);}.w{fill:url(#bk);}.x{fill:url(#bn);}.y{fill:url(#bx);}.z{fill:url(#cb);}.aa{fill:url(#cf);}.ab{fill:url(#ch);}.ac{fill:url(#ci);}.ad{fill:url(#ck);}.ae{fill:url(#cl);}.af{fill:url(#cn);}.ag{fill:url(#co);}.ah{fill:url(#cr);}.ai{fill:url(#ct);}.aj{fill:url(#cv);}.ak{fill:url(#cw);}.al{fill:url(#cx);}.am{fill:url(#cy);}.an{fill:url(#cz);}.ao{fill:url(#da);}.ap{fill:url(#db);}.aq{fill:url(#dc);}.ar{fill:url(#dd);}.as{fill:url(#df);}.at{fill:url(#dg);}.au{fill:url(#di);}.av{fill:url(#dj);}.aw{fill:url(#dl);}.ax{fill:url(#dn);}.ay{fill:url(#dp);}.az{fill:url(#dr);}.ba{fill:url(#ds);}.bb{fill:url(#du);}.bc{fill:url(#dv);}.bd{fill:url(#dx);}.be{fill:url(#dz);}.bf{fill:url(#ea);}.bg{fill:url(#eb);}.bh{fill:url(#ed);}.bi{fill:url(#ef);}.bj{fill:url(#eh);}.bk{fill:url(#ej);}.bl{fill:url(#em);}.bm{fill:url(#ep);}.bn{fill:url(#et);}.bo{fill:url(#ew);}.bp{fill:url(#fa);}.bq{fill:url(#fe);}.br{fill:url(#fj);}.bs{fill:url(#fk);}.bt{fill:url(#fn);}.bu{fill:url(#fp);}.bv{fill:url(#fs);}.bw{fill:url(#fv);}.bx{fill:url(#fy);}.by{fill:url(#gb);}.bz{fill:url(#ge);}.ca{fill:url(#gj);}.cb{fill:url(#gp);}.cc{fill:url(#gr);}.cd{fill:url(#gs);}.ce{fill:url(#gu);}.cf{fill:url(#gw);}.cg{fill:url(#gy);}.ch{fill:url(#hb);}</style><radialGradient id="a" cx="-14508.14" cy="8820.93" fx="-14540.722229939387" r="510.76" gradientTransform="matrix(0.74, 0.03, 0.05, -1.09, 11297.32, 10320)" gradientUnits="userSpaceOnUse"><stop offset="0.04" stop-color="#ffea00"/><stop offset="0.12" stop-color="#ffde00"/><stop offset="0.25" stop-color="#ffbf00"/><stop offset="0.43" stop-color="#ff8e00"/><stop offset="0.77" stop-color="#ff272d"/><stop offset="0.87" stop-color="#e0255a"/><stop offset="0.95" stop-color="#cc2477"/><stop offset="1" stop-color="#c42482"/></radialGradient><radialGradient id="b" cx="-7408.09" cy="8422.73" r="896.33" gradientTransform="matrix(1.19, 0, 0, -1.19, 9537.01, 10208.6)" gradientUnits="userSpaceOnUse"><stop offset="0" stop-color="#00ccda"/><stop offset="0.22" stop-color="#0083ff"/><stop offset="0.26" stop-color="#007af9"/><stop offset="0.33" stop-color="#0060e8"/><stop offset="0.33" stop-color="#005fe7"/><stop offset="0.44" stop-color="#2639ad"/><stop offset="0.52" stop-color="#401e84"/><stop offset="0.57" stop-color="#4a1475"/></radialGradient><linearGradient id="c" x1="423.32" y1="-315.47" x2="213.21" y2="371.86" gradientTransform="matrix(1, 0, 0, -1, 0, 542)" gradientUnits="userSpaceOnUse"><stop offset="0" stop-color="#000f43" stop-opacity="0.4"/><stop offset="0.48" stop-color="#001962" stop-opacity="0.17"/><stop offset="1" stop-color="#002079" stop-opacity="0"/></linearGradient><linearGradient id="e" x1="813.7" y1="-196.13" x2="603.58" y2="491.2" xlink:href="#c"/><linearGradient id="g" x1="847.54" y1="-185.78" x2="671.37" y2="390.51" xlink:href="#c"/><linearGradient id="i" x1="619.89" y1="-255.37" x2="409.78" y2="431.95" xlink:href="#c"/><linearGradient id="k" x1="425.07" y1="-314.93" x2="214.95" y2="372.39" xlink:href="#c"/><linearGradient id="m" x1="553.42" y1="-275.7" x2="343.3" y2="411.63" xlink:href="#c"/><radialGradient id="n" cx="-8136.32" cy="7232.3" r="504.88" gradientTransform="matrix(1.18, 0.12, 0.12, -1.18, 9856.14, 9863.11)" gradientUnits="userSpaceOnUse"><stop offset="0" stop-color="#ffe900"/><stop offset="0.16" stop-color="#ffaf0e"/><stop offset="0.32" stop-color="#ff7a1b"/><stop offset="0.47" stop-color="#ff4e26"/><stop offset="0.62" stop-color="#ff2c2e"/><stop offset="0.76" stop-color="#ff1434"/><stop offset="0.89" stop-color="#ff0538"/><stop offset="1" stop-color="#ff0039"/></radialGradient><radialGradient id="o" cx="810.19" cy="104.3" fx="841.8801828010766" fy="88.6296097342918" r="886.08" gradientTransform="matrix(0.97, 0, 0, -0.97, 16.81, 533.53)" gradientUnits="userSpaceOnUse"><stop offset="0.16" stop-color="#ffea00"/><stop offset="0.23" stop-color="#ffde00"/><stop offset="0.36" stop-color="#ffbf00"/><stop offset="0.54" stop-color="#ff8e00"/><stop offset="0.76" stop-color="#ff272d"/><stop offset="0.8" stop-color="#f92433"/><stop offset="0.84" stop-color="#e91c45"/><stop offset="0.89" stop-color="#cf0e62"/><stop offset="0.94" stop-color="#b5007f"/></radialGradient><linearGradient id="ad" x1="364.4" y1="-333.48" x2="154.28" y2="353.84" xlink:href="#c"/><linearGradient id="ag" x1="848.75" y1="-185.41" x2="638.63" y2="501.91" xlink:href="#c"/><linearGradient id="aj" x1="835.88" y1="-189.35" x2="625.76" y2="497.98" xlink:href="#c"/><linearGradient id="am" x1="453.95" y1="-306.1" x2="243.84" y2="381.22" xlink:href="#c"/><linearGradient id="ap" x1="572.75" y1="-269.79" x2="362.63" y2="417.54" xlink:href="#c"/><linearGradient id="as" x1="798.15" y1="-200.88" x2="588.04" y2="486.44" xlink:href="#c"/><linearGradient id="av" x1="654.13" y1="-244.91" x2="444.02" y2="442.42" xlink:href="#c"/><linearGradient id="ay" x1="440.28" y1="-310.28" x2="230.17" y2="377.04" xlink:href="#c"/><linearGradient id="bb" x1="423.18" y1="-315.51" x2="213.07" y2="371.81" xlink:href="#c"/><linearGradient id="be" x1="862.58" y1="-181.18" x2="652.47" y2="506.14" xlink:href="#c"/><radialGradient id="bg" cx="743.52" cy="549.22" r="1046.3" gradientTransform="matrix(0.97, 0, 0, -0.97, 16.81, 533.53)" gradientUnits="userSpaceOnUse"><stop offset="0.28" stop-color="#ffea00"/><stop offset="0.4" stop-color="#fd0"/><stop offset="0.63" stop-color="#ffba00"/><stop offset="0.86" stop-color="#ff9100"/><stop offset="0.93" stop-color="#ff6711"/><stop offset="0.99" stop-color="#ff4a1d"/></radialGradient><linearGradient id="bk" x1="809.01" y1="-197.56" x2="598.9" y2="489.76" xlink:href="#c"/><linearGradient id="bn" x1="817.14" y1="-195.08" x2="607.02" y2="492.25" xlink:href="#c"/><linearGradient id="bx" x1="876.08" y1="-177.06" x2="665.97" y2="510.27" xlink:href="#c"/><linearGradient id="cb" x1="889.87" y1="-172.84" x2="679.75" y2="514.48" xlink:href="#c"/><linearGradient id="cf" x1="-8878.14" y1="7140.16" x2="-8566.04" y2="7219.72" gradientTransform="matrix(1.22, 0.12, 0.12, -1.22, 10155.49, 10171.37)" gradientUnits="userSpaceOnUse"><stop offset="0" stop-color="#c42482" stop-opacity="0.5"/><stop offset="0.47" stop-color="#ff272d" stop-opacity="0.5"/><stop offset="0.49" stop-color="#ff2c2c" stop-opacity="0.51"/><stop offset="0.68" stop-color="#ff7a1a" stop-opacity="0.72"/><stop offset="0.83" stop-color="#ffb20d" stop-opacity="0.87"/><stop offset="0.94" stop-color="#ffd605" stop-opacity="0.96"/><stop offset="1" stop-color="#ffe302"/></linearGradient><linearGradient id="ch" x1="540.83" y1="-279.54" x2="330.71" y2="407.78" xlink:href="#c"/><linearGradient id="ci" x1="-8857.92" y1="7060.84" x2="-8545.82" y2="7140.4" xlink:href="#cf"/><linearGradient id="ck" x1="619.31" y1="-255.55" x2="409.19" y2="431.77" xlink:href="#c"/><linearGradient id="cl" x1="-8863.67" y1="7083.39" x2="-8551.56" y2="7162.95" xlink:href="#cf"/><linearGradient id="cn" x1="574.09" y1="-269.38" x2="363.97" y2="417.95" xlink:href="#c"/><linearGradient id="co" x1="-8887.62" y1="7177.35" x2="-8575.51" y2="7256.9" xlink:href="#cf"/><linearGradient id="cr" x1="-8877.65" y1="7138.25" x2="-8565.55" y2="7217.81" xlink:href="#cf"/><linearGradient id="ct" x1="598" y1="-262.07" x2="387.89" y2="425.26" xlink:href="#c"/><linearGradient id="cv" x1="-8874.1" y1="7124.33" x2="-8562" y2="7203.88" xlink:href="#cf"/><linearGradient id="cw" x1="222.86" y1="1554.16" x2="162.96" y2="1707.65" gradientTransform="matrix(1, 0.1, 0.1, -1, -210.17, 1811.41)" gradientUnits="userSpaceOnUse"><stop offset="0" stop-color="#891551" stop-opacity="0.6"/><stop offset="1" stop-color="#c42482" stop-opacity="0"/></linearGradient><linearGradient id="cx" x1="272.42" y1="1573.5" x2="212.52" y2="1726.99" xlink:href="#cw"/><linearGradient id="cy" x1="240.1" y1="1560.89" x2="180.21" y2="1714.38" xlink:href="#cw"/><linearGradient id="cz" x1="170.13" y1="1533.59" x2="110.23" y2="1687.08" xlink:href="#cw"/><linearGradient id="da" x1="283.03" y1="1577.64" x2="223.14" y2="1731.13" xlink:href="#cw"/><linearGradient id="db" x1="274.08" y1="1574.15" x2="214.18" y2="1727.64" xlink:href="#cw"/><linearGradient id="dc" x1="415.69" y1="-317.8" x2="205.57" y2="369.52" xlink:href="#c"/><linearGradient id="dd" x1="287.2" y1="1579.27" x2="227.3" y2="1732.76" xlink:href="#cw"/><linearGradient id="df" x1="418.6" y1="-316.91" x2="208.49" y2="370.41" xlink:href="#c"/><linearGradient id="dg" x1="290.15" y1="1580.42" x2="230.25" y2="1733.91" xlink:href="#cw"/><linearGradient id="di" x1="227.18" y1="1555.85" x2="167.29" y2="1709.34" xlink:href="#cw"/><linearGradient id="dj" x1="398.64" y1="-323.01" x2="188.52" y2="364.31" xlink:href="#c"/><linearGradient id="dl" x1="270.74" y1="1572.85" x2="210.84" y2="1726.34" xlink:href="#cw"/><linearGradient id="dn" x1="409.08" y1="-319.82" x2="198.96" y2="367.5" xlink:href="#c"/><linearGradient id="dp" x1="280.98" y1="1576.84" x2="221.09" y2="1730.33" xlink:href="#cw"/><linearGradient id="dr" x1="463.52" y1="-303.18" x2="253.4" y2="384.15" xlink:href="#c"/><linearGradient id="ds" x1="82.57" y1="-205.03" x2="185.86" y2="-322.34" gradientTransform="matrix(1, 0.1, 0.1, -1, 268.97, 251)" gradientUnits="userSpaceOnUse"><stop offset="0.01" stop-color="#891551" stop-opacity="0.5"/><stop offset="0.48" stop-color="#ff272d" stop-opacity="0.5"/><stop offset="1" stop-color="#ff272d" stop-opacity="0"/></linearGradient><linearGradient id="du" x1="444.65" y1="-308.95" x2="234.54" y2="378.38" xlink:href="#c"/><linearGradient id="dv" x1="64.56" y1="-220.88" x2="167.85" y2="-338.2" xlink:href="#ds"/><linearGradient id="dx" x1="417.35" y1="-317.29" x2="207.23" y2="370.03" xlink:href="#c"/><linearGradient id="dz" x1="47.86" y1="-235.59" x2="151.15" y2="-352.9" xlink:href="#ds"/><linearGradient id="ea" x1="821.71" y1="557.73" x2="1157.19" y2="-192.44" gradientTransform="matrix(1, 0, 0, -1, 0, 542)" gradientUnits="userSpaceOnUse"><stop offset="0" stop-color="#fff14f"/><stop offset="0.27" stop-color="#ffee4c"/><stop offset="0.45" stop-color="#ffe643"/><stop offset="0.61" stop-color="#ffd834"/><stop offset="0.76" stop-color="#ffc41e"/><stop offset="0.89" stop-color="#ffab02"/><stop offset="0.9" stop-color="#ffa900"/><stop offset="0.95" stop-color="#ffa000"/><stop offset="1" stop-color="#ff9100"/></linearGradient><linearGradient id="eb" x1="824.01" y1="558.76" x2="1159.48" y2="-191.42" xlink:href="#ea"/><linearGradient id="ed" x1="829.75" y1="561.33" x2="1165.23" y2="-188.85" xlink:href="#ea"/><linearGradient id="ef" x1="821.6" y1="557.68" x2="1157.07" y2="-192.5" xlink:href="#ea"/><linearGradient id="eh" x1="804.7" y1="550.13" x2="1140.18" y2="-200.05" xlink:href="#ea"/><linearGradient id="ej" x1="818.6" y1="556.34" x2="1154.08" y2="-193.84" xlink:href="#ea"/><linearGradient id="em" x1="806.24" y1="550.81" x2="1141.71" y2="-199.36" xlink:href="#ea"/><linearGradient id="ep" x1="804.12" y1="549.86" x2="1139.6" y2="-200.31" xlink:href="#ea"/><linearGradient id="et" x1="802.73" y1="549.24" x2="1138.21" y2="-200.93" xlink:href="#ea"/><linearGradient id="ew" x1="733.75" y1="518.39" x2="1069.22" y2="-231.78" xlink:href="#ea"/><linearGradient id="fa" x1="793.01" y1="544.9" x2="1128.49" y2="-205.28" xlink:href="#ea"/><linearGradient id="fe" x1="745.92" y1="523.84" x2="1081.4" y2="-226.34" xlink:href="#ea"/><linearGradient id="fj" x1="781.76" y1="539.87" x2="1117.24" y2="-210.31" xlink:href="#ea"/><linearGradient id="fk" x1="913.9" y1="-165.5" x2="703.78" y2="521.83" xlink:href="#c"/><linearGradient id="fn" x1="696.22" y1="501.61" x2="1031.7" y2="-248.56" xlink:href="#ea"/><linearGradient id="fp" x1="929.89" y1="-160.61" x2="719.77" y2="526.71" xlink:href="#c"/><linearGradient id="fs" x1="688.44" y1="498.13" x2="1023.92" y2="-252.04" xlink:href="#ea"/><linearGradient id="fv" x1="1015.25" y1="-134.51" x2="805.13" y2="552.81" xlink:href="#c"/><linearGradient id="fy" x1="763.33" y1="531.62" x2="1098.8" y2="-218.55" xlink:href="#ea"/><linearGradient id="gb" x1="1054" y1="-122.67" x2="843.88" y2="564.66" xlink:href="#c"/><linearGradient id="ge" x1="778.9" y1="538.59" x2="1114.38" y2="-211.59" xlink:href="#ea"/><linearGradient id="gj" x1="796.21" y1="546.33" x2="1131.69" y2="-203.85" xlink:href="#ea"/><linearGradient id="gp" x1="783.46" y1="540.63" x2="1118.94" y2="-209.55" xlink:href="#ea"/><linearGradient id="gr" x1="847.65" y1="-185.75" x2="637.54" y2="501.58" xlink:href="#c"/><linearGradient id="gs" x1="744.46" y1="78.24" x2="585.55" y2="-348.44" gradientTransform="matrix(1, 0, 0, -1, 0, 542)" gradientUnits="userSpaceOnUse"><stop offset="0" stop-color="#ff8e00"/><stop offset="0.04" stop-color="#ff8e00" stop-opacity="0.86"/><stop offset="0.08" stop-color="#ff8e00" stop-opacity="0.73"/><stop offset="0.13" stop-color="#ff8e00" stop-opacity="0.63"/><stop offset="0.18" stop-color="#ff8e00" stop-opacity="0.56"/><stop offset="0.23" stop-color="#ff8e00" stop-opacity="0.51"/><stop offset="0.28" stop-color="#ff8e00" stop-opacity="0.5"/><stop offset="0.39" stop-color="#ff8e00" stop-opacity="0.48"/><stop offset="0.52" stop-color="#ff8e00" stop-opacity="0.42"/><stop offset="0.68" stop-color="#ff8e00" stop-opacity="0.31"/><stop offset="0.84" stop-color="#ff8e00" stop-opacity="0.17"/><stop offset="1" stop-color="#ff8e00" stop-opacity="0"/></linearGradient><linearGradient id="gu" x1="882.2" y1="-175.19" x2="672.08" y2="512.14" xlink:href="#c"/><linearGradient id="gw" x1="810.12" y1="53.79" x2="651.2" y2="-372.89" xlink:href="#gs"/><linearGradient id="gy" x1="892.98" y1="-171.89" x2="682.86" y2="515.43" xlink:href="#c"/><linearGradient id="hb" x1="828.1" y1="47.09" x2="669.19" y2="-379.59" xlink:href="#gs"/></defs><path class="a" d="M722,0c0,24.87,26.33,65.42,117.43,151.44,4.51-21.32,12.61-39,22.85-50.95,0,38.87,105.09,150.7,153.92,291.21A406.27,406.27,0,0,1,1040.62,501c10.05-14.34,16.73-22.1,16.73-22.1s.33,1.58.79,4.48c-.26-3.41-.49-5.26-.49-5.26a436.13,436.13,0,0,1,5.47,61.87H1080V0Z"/><path class="a" d="M20.88,474.43c19.7-70.27,40-114.69,58.48-143.2C83,324.08,92.76,310.29,107,294c0-.19,0-.39,0-.58-.34-2.24-.15-8.72.77-17.92,2-30,8.21-53.59,13.62-71.37A259.62,259.62,0,0,1,135,171.37c.16-.43.16.19.12,1.17.25-.49.49-1,.75-1.48s0,1.75-.08,3.69c1.34-4.33,3.17-6.72,4.51-10.63,2.21-6,7.25-10.56,9.19-13.85.08-.13,0,.39-.13,1.23.25-.36.48-.7.67-1s-.76,4.41-1.08,6.74c1.17-2.25,2.41-4.7,4.21-8.72,11.19-25.73,24.71-31.9,24.71-31.9,0,.16,0,.33,0,.49.36-.2.56-.29.56-.29-1,17.37,3,41.94,9.57,57.1a.87.87,0,0,0,.12.2c.64-.13,1.2-3.73,2.07-2.75.14,0,.28.12.44.4h0c2.08,4.3,4.17,8.27,6.23,11.95,2.62,4.62,5.11,8.65,7.45,12.19A131.58,131.58,0,0,0,217.64,213c4.63-3.5,9.17-7,13.48-10.36-.43-1.76-.67-3.37.48-.38l.21.44a485.72,485.72,0,0,1,426.49-97.9,321.94,321.94,0,0,1,16.39-34.41C697.53,27.25,722,0,722,0H0V540H21.83c6.65-54.29,18.36-93.09,30.37-120.44A351,351,0,0,0,20.88,474.43Z"/><path class="b" d="M986.71,328.53q8.47,15.25,16.26,31.76,7.39,15.76,13.2,31.41C967.34,251.19,862.25,139.36,862.25,100.49c-10.24,11.92-18.34,29.63-22.85,51q11.22,10.59,23.75,22.11C911.73,218.18,952.93,263.57,986.71,328.53Z"/><path class="c" d="M730.73,429.75c-42.36-28.23-82.85-78.54-98.85-127-21.7-65.71-2-134.26,21.81-185.86q2.23-6.23,4.61-12.11a485.72,485.72,0,0,0-426.49,97.9c3.18,7,5.84,12.27,8.12,16.32,30.77-4.38,66.11-1.72,105.57,12.52l.3-.24a97.07,97.07,0,0,1,16-15,42.69,42.69,0,0,1-.32,5.87c5.59-10.18,24.81-22.21,32.63-25.19a10.75,10.75,0,0,0-1,4.74c16.79-9.33,36.44-17.56,52.24-19.73,2.42,0-7.9,3.77-11.15,6.67,7.83-3,10.94-4.54,25.6-6,14.39-1.51,30.7,4.69,27.61,6-2.53,1.08-15.91,5.92-18,7.59-1.76,1.43,7-.37,5.27,1.07l-1.24.82c11.15.43,21.47,5.13,19.1,6.25s-14.38,6-16.23,7.66c-1.59,1.45,6.34-.37,4.76,1.08-29.15,21.64-49,50.29-60.77,84.18a64.84,64.84,0,0,0,2.8,9.25c1,2,1.93,4.06,2.88,6.22A49.43,49.43,0,0,0,456.83,327c79.61,7.47,84.6,13.94,84.17,23.56a55.11,55.11,0,0,1-.59,6.13c-.22,1.61-.47,3.15-.77,4.62a10.39,10.39,0,0,1,1.35,6.34c-.73,13.46-3.72,22.34-7.69,28.66a73.89,73.89,0,0,1-21,22.83c-5.2,3.75-76.57,35.83-80.11,48.16l0,.27a35.82,35.82,0,0,1,2.42,8.12c-2.83-3.57-5.38-2.23-3.75,1.2,1.83,4,1.58,6.68,2.11,17,.86,14.73-3,23-5.21,30.84a88.61,88.61,0,0,0-13-9.05l-.48,0c7.69,6.28,10.05,12.5,10.6,14.46,1.51,4.77-.53,5.9-.53,5.9s-2.48-4.89-10.24-10.36c-6-3.92-17.28-10.34-22.4-12.81-.5.22-1,.16-1.49.38,1.44,2.87,4.11,8.31,4.11,8.31s-3.9-2.6-10.14-6c-10,4.72-16.78,14.75-19.89,24.5H771c-.93-8.31-2.23-16.79-3.94-25.56C755.94,457.24,732.59,431.88,730.73,429.75Z"/><path class="d" d="M231.12,202.59c-4.31,3.39-8.85,6.86-13.48,10.36l1,1.05q6.5-5.79,13.18-11.35l-.21-.44C230.45,199.22,230.69,200.83,231.12,202.59Z"/><path class="c" d="M756.57,430.24Q742,418.74,728.49,406A318.72,318.72,0,0,1,691,365.54a245.28,245.28,0,0,1-34-57.81q-3.71-8.4-7.13-17.56c-20.12-53.94-16-107.07-2.67-152.83,2-7.1,4.2-13.93,6.54-20.48-23.86,51.6-43.51,120.15-21.81,185.86,16,48.49,56.49,98.8,98.85,127,1.86,2.13,25.21,27.49,36.31,84.69,1.71,8.77,3,17.25,3.94,25.56h26.81c-4.94-40.29-19-77.55-40.73-109.06Z"/><path class="e" d="M756.57,430.24Q742,418.74,728.49,406A318.72,318.72,0,0,1,691,365.54a245.28,245.28,0,0,1-34-57.81q-3.71-8.4-7.13-17.56c-20.12-53.94-16-107.07-2.67-152.83,2-7.1,4.2-13.93,6.54-20.48-23.86,51.6-43.51,120.15-21.81,185.86,16,48.49,56.49,98.8,98.85,127,1.86,2.13,25.21,27.49,36.31,84.69,1.71,8.77,3,17.25,3.94,25.56h26.81c-4.94-40.29-19-77.55-40.73-109.06Z"/><path class="c" d="M756.57,430.24l0,0,0-.06Z"/><path class="f" d="M756.57,430.24l0,0,0-.06Z"/><path class="c" d="M407.47,280.7c0,.18.1.35.14.53,0-.09.07-.19.11-.29,2.26,7.54,7.58,21.2,18.31,31.74-.95-2.16-1.91-4.19-2.88-6.22a64.84,64.84,0,0,1-2.8-9.25C432.14,263.32,452,234.67,481.12,213c1.58-1.45-6.35.37-4.76-1.08,1.85-1.69,13.94-6.56,16.23-7.66s-7.95-5.82-19.1-6.25A174,174,0,0,0,407.47,280.7Z"/><path class="g" d="M407.47,280.7c0,.18.1.35.14.53,0-.09.07-.19.11-.29,2.26,7.54,7.58,21.2,18.31,31.74-.95-2.16-1.91-4.19-2.88-6.22a64.84,64.84,0,0,1-2.8-9.25C432.14,263.32,452,234.67,481.12,213c1.58-1.45-6.35.37-4.76-1.08,1.85-1.69,13.94-6.56,16.23-7.66s-7.95-5.82-19.1-6.25A174,174,0,0,0,407.47,280.7Z"/><path class="c" d="M218.63,214a65,65,0,0,0,7.83,7l-.4.1.33.29Q233,220,239.93,219c-2.28-4.05-4.94-9.34-8.12-16.32Q225.12,208.22,218.63,214Z"/><path class="h" d="M218.63,214a65,65,0,0,0,7.83,7l-.4.1.33.29Q233,220,239.93,219c-2.28-4.05-4.94-9.34-8.12-16.32Q225.12,208.22,218.63,214Z"/><path class="c" d="M384.15,515.5c6.24,3.41,10.14,6,10.14,6s-2.67-5.44-4.11-8.31c.51-.22,1-.16,1.49-.38,5.12,2.47,16.44,8.89,22.4,12.81,7.76,5.47,10.24,10.36,10.24,10.36s2-1.13.53-5.9c-.55-2-2.91-8.18-10.6-14.46l.48,0a88.61,88.61,0,0,1,13,9.05c2.17-7.89,6.07-16.11,5.21-30.84-.53-10.35-.28-13-2.11-17-1.63-3.43.92-4.77,3.75-1.2a35.82,35.82,0,0,0-2.42-8.12l0-.27c3.54-12.33,74.91-44.41,80.11-48.16a73.89,73.89,0,0,0,21-22.83c4-6.32,7-15.2,7.69-28.66a10.39,10.39,0,0,0-1.35-6.34A45.78,45.78,0,0,1,532.49,379a77.12,77.12,0,0,1-13.89,15.72,77.9,77.9,0,0,1-10.43,8.09c-2.41,1.37-14.12,6.09-28.26,12.26-17,7.72-37.3,17.33-49.24,25.09a49.17,49.17,0,0,0-7.45,6.05c-.82.86-2.62,3.19-2.62,3.19h0l0,.27a32.64,32.64,0,0,1,2.68,8.06c-3.14-3.54-6-2.21-4.15,1.19,2,4,1.75,6.62,2.33,16.89.95,14.6-3.36,22.76-5.76,30.57a101.17,101.17,0,0,0-14.42-9l-.53-.05c8.51,6.23,11.11,12.4,11.72,14.34,1.68,4.73-.59,5.85-.59,5.85s-2.73-4.84-11.32-10.27c-6.6-3.89-19.13-10.25-24.79-12.7-.56.21-1.09.16-1.65.37,1.59,2.85,4.54,8.25,4.54,8.25s-4.3-2.58-11.22-6a36.3,36.3,0,0,0-6.6,3.71c-1.34,1-2.72,2.1-4.07,3.31a44.08,44.08,0,0,0-10.91,16.11,72.74,72.74,0,0,0-2.15,7.73c-.1.65-.2,1.29-.26,1.92-.3,3-.78,6.32-1,10h21.8C367.37,530.25,374.19,520.22,384.15,515.5Z"/><path class="i" d="M384.15,515.5c6.24,3.41,10.14,6,10.14,6s-2.67-5.44-4.11-8.31c.51-.22,1-.16,1.49-.38,5.12,2.47,16.44,8.89,22.4,12.81,7.76,5.47,10.24,10.36,10.24,10.36s2-1.13.53-5.9c-.55-2-2.91-8.18-10.6-14.46l.48,0a88.61,88.61,0,0,1,13,9.05c2.17-7.89,6.07-16.11,5.21-30.84-.53-10.35-.28-13-2.11-17-1.63-3.43.92-4.77,3.75-1.2a35.82,35.82,0,0,0-2.42-8.12l0-.27c3.54-12.33,74.91-44.41,80.11-48.16a73.89,73.89,0,0,0,21-22.83c4-6.32,7-15.2,7.69-28.66a10.39,10.39,0,0,0-1.35-6.34A45.78,45.78,0,0,1,532.49,379a77.12,77.12,0,0,1-13.89,15.72,77.9,77.9,0,0,1-10.43,8.09c-2.41,1.37-14.12,6.09-28.26,12.26-17,7.72-37.3,17.33-49.24,25.09a49.17,49.17,0,0,0-7.45,6.05c-.82.86-2.62,3.19-2.62,3.19h0l0,.27a32.64,32.64,0,0,1,2.68,8.06c-3.14-3.54-6-2.21-4.15,1.19,2,4,1.75,6.62,2.33,16.89.95,14.6-3.36,22.76-5.76,30.57a101.17,101.17,0,0,0-14.42-9l-.53-.05c8.51,6.23,11.11,12.4,11.72,14.34,1.68,4.73-.59,5.85-.59,5.85s-2.73-4.84-11.32-10.27c-6.6-3.89-19.13-10.25-24.79-12.7-.56.21-1.09.16-1.65.37,1.59,2.85,4.54,8.25,4.54,8.25s-4.3-2.58-11.22-6a36.3,36.3,0,0,0-6.6,3.71c-1.34,1-2.72,2.1-4.07,3.31a44.08,44.08,0,0,0-10.91,16.11,72.74,72.74,0,0,0-2.15,7.73c-.1.65-.2,1.29-.26,1.92-.3,3-.78,6.32-1,10h21.8C367.37,530.25,374.19,520.22,384.15,515.5Z"/><path class="j" d="M1058.14,483.39c-.46-2.9-.79-4.48-.79-4.48s-6.68,7.76-16.73,22.1c1.09,13.23,1.52,26.24,1.39,39h14.73A315,315,0,0,0,1058.14,483.39Z"/><path class="k" d="M156.28,261.36c7.45-7.44,18.62-16.32,31-25.7a269.85,269.85,0,0,0-79.71,58.53c-.23.27-.4,0-.51-.77,0,.19,0,.39,0,.58-14.26,16.29-24,30.08-27.66,37.23-18.45,28.51-38.78,72.93-58.48,143.2A351,351,0,0,1,52.2,419.56c-12,27.35-23.72,66.15-30.37,120.44H56.47a488.45,488.45,0,0,1,93-249.81C150.14,266.18,150.55,263,156.28,261.36Z"/><path class="k" d="M148.92,158.42c1.33-2.56,2.66-5.11,4.74-9.73,9.85-22.67,21.51-30.15,24.15-31.61,0-.16,0-.33,0-.49,0,0-13.52,6.17-24.71,31.9-1.8,4-3,6.47-4.21,8.72C148.78,158.08,148.75,158.62,148.92,158.42Z"/><path class="k" d="M674.69,70.34a321.94,321.94,0,0,0-16.39,34.41l.23.06C663.56,92.48,669.08,80.93,674.69,70.34Z"/><path class="k" d="M196.8,183.69c2.53,4.51,5,8.56,7.45,12.19C201.91,192.34,199.42,188.31,196.8,183.69Z"/><path class="k" d="M135.76,177c1.39-5.77,3.25-8.27,5.06-12.92,2-5.12,6.23-9.36,8.49-12.55.14-.84.21-1.36.13-1.23-1.94,3.29-7,7.89-9.19,13.85-1.34,3.91-3.17,6.3-4.51,10.63C135.64,176.34,135.57,177.67,135.76,177Z"/><path class="k" d="M135,171.37a259.62,259.62,0,0,0-13.5,32.76c-5.41,17.78-11.61,41.36-13.62,71.37,2.48-24.82,10.27-69.31,27.24-103C135.11,171.56,135.11,170.94,135,171.37Z"/><path class="k" d="M190.13,171.34c-.87-1-1.43,2.62-2.07,2.75C188.75,175.12,189.3,171.28,190.13,171.34Z"/><path class="c" d="M539.64,361.28c.3-1.47.55-3,.77-4.62-.24,1.52-.52,3-.87,4.46A.86.86,0,0,1,539.64,361.28Z"/><path class="k" d="M539.64,361.28c.3-1.47.55-3,.77-4.62-.24,1.52-.52,3-.87,4.46A.86.86,0,0,1,539.64,361.28Z"/><path class="c" d="M256.74,237.41c30.54-7.41,66.62-6.34,107.62,10.18l.27-.24a92.84,92.84,0,0,1,14.48-15.17,49,49,0,0,1-.29,5.93c5.05-10.27,22.42-22.4,29.48-25.4a11.81,11.81,0,0,0-.91,4.77c15.17-9.4,32.91-17.7,47.19-19.89,2.19,0-7.14,3.8-10.07,6.72,7.07-3,9.88-4.57,23.13-6.07a38.1,38.1,0,0,1,5.85-.2l1.24-.82c1.75-1.44-7,.36-5.27-1.07,2.05-1.67,15.43-6.51,18-7.59,3.09-1.31-13.22-7.51-27.61-6-14.66,1.48-17.77,3-25.6,6,3.25-2.9,13.57-6.7,11.15-6.67-15.8,2.17-35.45,10.4-52.24,19.73a10.75,10.75,0,0,1,1-4.74c-7.82,3-27,15-32.63,25.19a42.69,42.69,0,0,0,.32-5.87,97.07,97.07,0,0,0-16,15l-.3.24C306,217.25,270.7,214.59,239.93,219,248.37,234,251.51,232.15,256.74,237.41Z"/><path class="k" d="M256.74,237.41c30.54-7.41,66.62-6.34,107.62,10.18l.27-.24a92.84,92.84,0,0,1,14.48-15.17,49,49,0,0,1-.29,5.93c5.05-10.27,22.42-22.4,29.48-25.4a11.81,11.81,0,0,0-.91,4.77c15.17-9.4,32.91-17.7,47.19-19.89,2.19,0-7.14,3.8-10.07,6.72,7.07-3,9.88-4.57,23.13-6.07a38.1,38.1,0,0,1,5.85-.2l1.24-.82c1.75-1.44-7,.36-5.27-1.07,2.05-1.67,15.43-6.51,18-7.59,3.09-1.31-13.22-7.51-27.61-6-14.66,1.48-17.77,3-25.6,6,3.25-2.9,13.57-6.7,11.15-6.67-15.8,2.17-35.45,10.4-52.24,19.73a10.75,10.75,0,0,1,1-4.74c-7.82,3-27,15-32.63,25.19a42.69,42.69,0,0,0,.32-5.87,97.07,97.07,0,0,0-16,15l-.3.24C306,217.25,270.7,214.59,239.93,219,248.37,234,251.51,232.15,256.74,237.41Z"/><path class="c" d="M658.3,104.75q-2.37,5.88-4.61,12.11c.3-.64.6-1.28.89-1.92q1.92-5.14,3.95-10.13Z"/><path class="k" d="M658.3,104.75q-2.37,5.88-4.61,12.11c.3-.64.6-1.28.89-1.92q1.92-5.14,3.95-10.13Z"/><path class="c" d="M71.05,492.55c17.8-70.86,36.17-115.65,52.84-144.39,3.32-7.21,12.1-21.12,25-37.55.22-2.41,0-5.41.24-8.09.13-4.64.24-8.72.34-12.33A488.45,488.45,0,0,0,56.47,540H74.21c6.19-45.11,15.56-78.44,25.14-102.77A366.8,366.8,0,0,0,71.05,492.55Z"/><path class="k" d="M71.05,492.55c17.8-70.86,36.17-115.65,52.84-144.39,3.32-7.21,12.1-21.12,25-37.55.22-2.41,0-5.41.24-8.09.13-4.64.24-8.72.34-12.33A488.45,488.45,0,0,0,56.47,540H74.21c6.19-45.11,15.56-78.44,25.14-102.77A366.8,366.8,0,0,0,71.05,492.55Z"/><path class="l" d="M156.28,261.36c-5.73,1.63-6.14,4.82-6.81,28.83a490.82,490.82,0,0,1,53.25-61.33c-4.65,1.86-9.84,4.11-15.44,6.8C174.9,245,163.73,253.92,156.28,261.36Z"/><path class="k" d="M156.28,261.36c-5.73,1.63-6.14,4.82-6.81,28.83a490.82,490.82,0,0,1,53.25-61.33c-4.65,1.86-9.84,4.11-15.44,6.8C174.9,245,163.73,253.92,156.28,261.36Z"/><path class="c" d="M756.57,430.22l0,.06c10.3,8.51,20.72,16.88,31.13,25.63-20.18-17-40.29-32.49-59.25-49.94q13.49,12.75,28.08,24.27Z"/><path class="m" d="M756.57,430.22l0,.06c10.3,8.51,20.72,16.88,31.13,25.63-20.18-17-40.29-32.49-59.25-49.94q13.49,12.75,28.08,24.27Z"/><path class="k" d="M756.57,430.22l0,.06c10.3,8.51,20.72,16.88,31.13,25.63-20.18-17-40.29-32.49-59.25-49.94q13.49,12.75,28.08,24.27Z"/><path class="c" d="M647.15,137.34c2.24-7.68,4.74-15.16,7.43-22.4-.29.64-.59,1.28-.89,1.92C651.35,123.41,649.15,130.24,647.15,137.34Z"/><path class="n" d="M647.15,137.34c2.24-7.68,4.74-15.16,7.43-22.4-.29.64-.59,1.28-.89,1.92C651.35,123.41,649.15,130.24,647.15,137.34Z"/><path class="k" d="M647.15,137.34c2.24-7.68,4.74-15.16,7.43-22.4-.29.64-.59,1.28-.89,1.92C651.35,123.41,649.15,130.24,647.15,137.34Z"/><path class="c" d="M347.47,515.84c-.51,1.31-1.08,2.82-1.64,4.47a44.08,44.08,0,0,1,10.91-16.11C353,507.55,349.44,511.64,347.47,515.84Z"/><path class="o" d="M347.47,515.84c-.51,1.31-1.08,2.82-1.64,4.47a44.08,44.08,0,0,1,10.91-16.11C353,507.55,349.44,511.64,347.47,515.84Z"/><path class="k" d="M347.47,515.84c-.51,1.31-1.08,2.82-1.64,4.47a44.08,44.08,0,0,1,10.91-16.11C353,507.55,349.44,511.64,347.47,515.84Z"/><path class="c" d="M479.91,415c-16.84,7.35-37.11,16.77-49.24,25.09C442.61,432.35,462.89,422.74,479.91,415Z"/><path class="p" d="M479.91,415c-16.84,7.35-37.11,16.77-49.24,25.09C442.61,432.35,462.89,422.74,479.91,415Z"/><path class="k" d="M479.91,415c-16.84,7.35-37.11,16.77-49.24,25.09C442.61,432.35,462.89,422.74,479.91,415Z"/><path class="c" d="M657,307.73a245.28,245.28,0,0,0,34,57.81A276,276,0,0,1,657,307.73Z"/><path class="q" d="M657,307.73a245.28,245.28,0,0,0,34,57.81A276,276,0,0,1,657,307.73Z"/><path class="k" d="M657,307.73a245.28,245.28,0,0,0,34,57.81A276,276,0,0,1,657,307.73Z"/><path class="c" d="M518.6,394.67A77.12,77.12,0,0,0,532.49,379a45.78,45.78,0,0,0,7.15-17.67.86.86,0,0,0-.1-.16C535.93,376.14,526.47,387.49,518.6,394.67Z"/><path class="r" d="M518.6,394.67A77.12,77.12,0,0,0,532.49,379a45.78,45.78,0,0,0,7.15-17.67.86.86,0,0,0-.1-.16C535.93,376.14,526.47,387.49,518.6,394.67Z"/><path class="k" d="M518.6,394.67A77.12,77.12,0,0,0,532.49,379a45.78,45.78,0,0,0,7.15-17.67.86.86,0,0,0-.1-.16C535.93,376.14,526.47,387.49,518.6,394.67Z"/><path class="c" d="M343.68,528a60.41,60.41,0,0,0-1.39,12h.17c.18-3.72.66-7.06,1-10C343.48,529.33,343.58,528.69,343.68,528Z"/><path class="s" d="M343.68,528a60.41,60.41,0,0,0-1.39,12h.17c.18-3.72.66-7.06,1-10C343.48,529.33,343.58,528.69,343.68,528Z"/><path class="k" d="M343.68,528a60.41,60.41,0,0,0-1.39,12h.17c.18-3.72.66-7.06,1-10C343.48,529.33,343.58,528.69,343.68,528Z"/><path class="c" d="M369.12,496.29c-1.87.45-5,2.14-8.31,4.6a36.3,36.3,0,0,1,6.6-3.71c6.92,3.39,11.22,6,11.22,6s-2.95-5.4-4.54-8.25c.56-.21,1.09-.16,1.65-.37,5.66,2.45,18.19,8.81,24.79,12.7,8.59,5.43,11.32,10.27,11.32,10.27s2.27-1.12.59-5.85c-.61-1.94-3.21-8.11-11.72-14.34l.53.05a101.17,101.17,0,0,1,14.42,9c2.4-7.81,6.71-16,5.76-30.57-.58-10.27-.31-12.93-2.33-16.89-1.81-3.4,1-4.73,4.15-1.19a32.64,32.64,0,0,0-2.68-8.06l0-.27h0c-8.08-15.86-25-42.85-26.75-68-2.57-38.27,2.2-69.94,13.76-100.11,0-.18-.1-.35-.14-.53a174,174,0,0,1,66-82.66,38.1,38.1,0,0,0-5.85.2c-13.25,1.5-16.06,3.08-23.13,6.07,2.93-2.92,12.26-6.75,10.07-6.72-14.28,2.19-32,10.49-47.19,19.89a11.81,11.81,0,0,1,.91-4.77c-7.06,3-24.43,15.13-29.48,25.4a49,49,0,0,0,.29-5.93,92.84,92.84,0,0,0-14.48,15.17l-.27.24c-41-16.52-77.08-17.59-107.62-10.18-5.23-5.26-8.37-3.39-16.81-18.44q-6.93,1-13.54,2.42l-.33-.29a175.63,175.63,0,0,0-23.34,7.76,490.82,490.82,0,0,0-53.25,61.33c-.1,3.61-.21,7.69-.34,12.33-.24,2.68,0,5.68-.24,8.09C136,327,127.21,341,123.89,348.16c-16.67,28.74-35,73.53-52.84,144.39a366.8,366.8,0,0,1,28.3-55.32C89.77,461.56,80.4,494.89,74.21,540H257C291.76,479.3,369.12,496.29,369.12,496.29Z"/><path class="t" d="M369.12,496.29c-1.87.45-5,2.14-8.31,4.6a36.3,36.3,0,0,1,6.6-3.71c6.92,3.39,11.22,6,11.22,6s-2.95-5.4-4.54-8.25c.56-.21,1.09-.16,1.65-.37,5.66,2.45,18.19,8.81,24.79,12.7,8.59,5.43,11.32,10.27,11.32,10.27s2.27-1.12.59-5.85c-.61-1.94-3.21-8.11-11.72-14.34l.53.05a101.17,101.17,0,0,1,14.42,9c2.4-7.81,6.71-16,5.76-30.57-.58-10.27-.31-12.93-2.33-16.89-1.81-3.4,1-4.73,4.15-1.19a32.64,32.64,0,0,0-2.68-8.06l0-.27h0c-8.08-15.86-25-42.85-26.75-68-2.57-38.27,2.2-69.94,13.76-100.11,0-.18-.1-.35-.14-.53a174,174,0,0,1,66-82.66,38.1,38.1,0,0,0-5.85.2c-13.25,1.5-16.06,3.08-23.13,6.07,2.93-2.92,12.26-6.75,10.07-6.72-14.28,2.19-32,10.49-47.19,19.89a11.81,11.81,0,0,1,.91-4.77c-7.06,3-24.43,15.13-29.48,25.4a49,49,0,0,0,.29-5.93,92.84,92.84,0,0,0-14.48,15.17l-.27.24c-41-16.52-77.08-17.59-107.62-10.18-5.23-5.26-8.37-3.39-16.81-18.44q-6.93,1-13.54,2.42l-.33-.29a175.63,175.63,0,0,0-23.34,7.76,490.82,490.82,0,0,0-53.25,61.33c-.1,3.61-.21,7.69-.34,12.33-.24,2.68,0,5.68-.24,8.09C136,327,127.21,341,123.89,348.16c-16.67,28.74-35,73.53-52.84,144.39a366.8,366.8,0,0,1,28.3-55.32C89.77,461.56,80.4,494.89,74.21,540H257C291.76,479.3,369.12,496.29,369.12,496.29Z"/><path class="k" d="M369.12,496.29c-1.87.45-5,2.14-8.31,4.6a36.3,36.3,0,0,1,6.6-3.71c6.92,3.39,11.22,6,11.22,6s-2.95-5.4-4.54-8.25c.56-.21,1.09-.16,1.65-.37,5.66,2.45,18.19,8.81,24.79,12.7,8.59,5.43,11.32,10.27,11.32,10.27s2.27-1.12.59-5.85c-.61-1.94-3.21-8.11-11.72-14.34l.53.05a101.17,101.17,0,0,1,14.42,9c2.4-7.81,6.71-16,5.76-30.57-.58-10.27-.31-12.93-2.33-16.89-1.81-3.4,1-4.73,4.15-1.19a32.64,32.64,0,0,0-2.68-8.06l0-.27h0c-8.08-15.86-25-42.85-26.75-68-2.57-38.27,2.2-69.94,13.76-100.11,0-.18-.1-.35-.14-.53a174,174,0,0,1,66-82.66,38.1,38.1,0,0,0-5.85.2c-13.25,1.5-16.06,3.08-23.13,6.07,2.93-2.92,12.26-6.75,10.07-6.72-14.28,2.19-32,10.49-47.19,19.89a11.81,11.81,0,0,1,.91-4.77c-7.06,3-24.43,15.13-29.48,25.4a49,49,0,0,0,.29-5.93,92.84,92.84,0,0,0-14.48,15.17l-.27.24c-41-16.52-77.08-17.59-107.62-10.18-5.23-5.26-8.37-3.39-16.81-18.44q-6.93,1-13.54,2.42l-.33-.29a175.63,175.63,0,0,0-23.34,7.76,490.82,490.82,0,0,0-53.25,61.33c-.1,3.61-.21,7.69-.34,12.33-.24,2.68,0,5.68-.24,8.09C136,327,127.21,341,123.89,348.16c-16.67,28.74-35,73.53-52.84,144.39a366.8,366.8,0,0,1,28.3-55.32C89.77,461.56,80.4,494.89,74.21,540H257C291.76,479.3,369.12,496.29,369.12,496.29Z"/><path class="c" d="M757.06,430.94c21.76,31.51,35.79,68.77,40.73,109.06h25C807.53,498,785,465.4,766.45,445.61,763.5,440.8,762.13,438.09,757.06,430.94Z"/><path class="u" d="M757.06,430.94c21.76,31.51,35.79,68.77,40.73,109.06h25C807.53,498,785,465.4,766.45,445.61,763.5,440.8,762.13,438.09,757.06,430.94Z"/><path class="k" d="M757.06,430.94c21.76,31.51,35.79,68.77,40.73,109.06h25C807.53,498,785,465.4,766.45,445.61,763.5,440.8,762.13,438.09,757.06,430.94Z"/><path class="v" d="M713.76,15.37s1,4.54,2.32,9.94c.69-.79,1.24-1.39,1.61-1.8C715.49,27,712.9,47.3,827.35,143c3.32,2.77,7.22,6.42,11.59,10.74.15-.76.3-1.52.46-2.28C748.3,65.42,722,24.87,722,0c0,0-24.44,27.25-47.28,70.34C694.23,34.91,713.76,15.37,713.76,15.37Z"/><path class="b" d="M856.39,171.84c40.88,34.79,90.84,85.62,130.32,156.69-33.78-65-75-110.35-123.56-155Q850.6,162,839.4,151.44c-.16.76-.31,1.52-.46,2.28C844.15,158.88,850,165,856.39,171.84Z"/><path class="v" d="M856.39,171.84c40.88,34.79,90.84,85.62,130.32,156.69-33.78-65-75-110.35-123.56-155Q850.6,162,839.4,151.44c-.16.76-.31,1.52-.46,2.28C844.15,158.88,850,165,856.39,171.84Z"/><path class="c" d="M649.82,290.17q3.42,9.16,7.13,17.56C640.82,269.55,632.59,225.3,638,182.2a307.11,307.11,0,0,1,9.12-44.86C633.8,183.1,629.7,236.23,649.82,290.17Z"/><path class="w" d="M649.82,290.17q3.42,9.16,7.13,17.56C640.82,269.55,632.59,225.3,638,182.2a307.11,307.11,0,0,1,9.12-44.86C633.8,183.1,629.7,236.23,649.82,290.17Z"/><path class="v" d="M649.82,290.17q3.42,9.16,7.13,17.56C640.82,269.55,632.59,225.3,638,182.2a307.11,307.11,0,0,1,9.12-44.86C633.8,183.1,629.7,236.23,649.82,290.17Z"/><path class="c" d="M728.49,406a419.13,419.13,0,0,1-36.68-39.38l-.83-1A318.72,318.72,0,0,0,728.49,406Z"/><path class="x" d="M728.49,406a419.13,419.13,0,0,1-36.68-39.38l-.83-1A318.72,318.72,0,0,0,728.49,406Z"/><path class="v" d="M728.49,406a419.13,419.13,0,0,1-36.68-39.38l-.83-1A318.72,318.72,0,0,0,728.49,406Z"/><path class="k" d="M700.39,49.51c4.07-9.95,7.85-18.08,10.71-23.94.45,9.41,25.33,55,85.36,99.76C806.72,133,821.29,143.4,838.32,157c.2-1.09.4-2.17.62-3.25-4.37-4.32-8.27-8-11.59-10.74C712.9,47.3,715.49,27,717.69,23.51c-.37.41-.92,1-1.61,1.8-1.36-5.4-2.32-9.94-2.32-9.94s-19.53,19.54-39.07,55c-5.61,10.59-11.13,22.14-16.16,34.47l.85.21c13.34-26.8,27.07-48,35-60.38A49,49,0,0,1,700.39,49.51Z"/><path class="v" d="M700.39,49.51c4.07-9.95,7.85-18.08,10.71-23.94.45,9.41,25.33,55,85.36,99.76C806.72,133,821.29,143.4,838.32,157c.2-1.09.4-2.17.62-3.25-4.37-4.32-8.27-8-11.59-10.74C712.9,47.3,715.49,27,717.69,23.51c-.37.41-.92,1-1.61,1.8-1.36-5.4-2.32-9.94-2.32-9.94s-19.53,19.54-39.07,55c-5.61,10.59-11.13,22.14-16.16,34.47l.85.21c13.34-26.8,27.07-48,35-60.38A49,49,0,0,1,700.39,49.51Z"/><path class="b" d="M856.39,171.84c-6.36-6.82-12.24-13-17.45-18.12-.22,1.08-.42,2.16-.62,3.25Q847,163.87,856.39,171.84Z"/><path class="k" d="M856.39,171.84c-6.36-6.82-12.24-13-17.45-18.12-.22,1.08-.42,2.16-.62,3.25Q847,163.87,856.39,171.84Z"/><path class="v" d="M856.39,171.84c-6.36-6.82-12.24-13-17.45-18.12-.22,1.08-.42,2.16-.62,3.25Q847,163.87,856.39,171.84Z"/><path class="c" d="M654.58,114.94q2.38-5.07,4.8-9.92l-.85-.21Q656.5,109.79,654.58,114.94Z"/><path class="k" d="M654.58,114.94q2.38-5.07,4.8-9.92l-.85-.21Q656.5,109.79,654.58,114.94Z"/><path class="v" d="M654.58,114.94q2.38-5.07,4.8-9.92l-.85-.21Q656.5,109.79,654.58,114.94Z"/><path class="y" d="M694.42,44.64c-8,12.35-21.7,33.58-35,60.38q10.89,2.72,21.59,5.92a387.94,387.94,0,0,1,19.42-61.43A49,49,0,0,0,694.42,44.64Z"/><path class="k" d="M694.42,44.64c-8,12.35-21.7,33.58-35,60.38q10.89,2.72,21.59,5.92a387.94,387.94,0,0,1,19.42-61.43A49,49,0,0,0,694.42,44.64Z"/><path class="v" d="M694.42,44.64c-8,12.35-21.7,33.58-35,60.38q10.89,2.72,21.59,5.92a387.94,387.94,0,0,1,19.42-61.43A49,49,0,0,0,694.42,44.64Z"/><path class="c" d="M705.27,296.67c-38.54-63-36.39-131.86-24.3-185.73q-10.69-3.21-21.59-5.92-2.42,4.85-4.8,9.92c-2.69,7.24-5.19,14.72-7.43,22.4A307.11,307.11,0,0,0,638,182.2c-5.44,43.1,2.79,87.35,18.92,125.53a276,276,0,0,0,34,57.81l.83,1A419.13,419.13,0,0,0,728.49,406c19,17.45,39.07,32.93,59.25,49.94,26.92,22.58,53.82,47.66,78.44,84.09h80.19q-5.72-9.21-12.45-18.39C865.37,428.42,767.44,398.27,705.27,296.67Z"/><path class="z" d="M705.27,296.67c-38.54-63-36.39-131.86-24.3-185.73q-10.69-3.21-21.59-5.92-2.42,4.85-4.8,9.92c-2.69,7.24-5.19,14.72-7.43,22.4A307.11,307.11,0,0,0,638,182.2c-5.44,43.1,2.79,87.35,18.92,125.53a276,276,0,0,0,34,57.81l.83,1A419.13,419.13,0,0,0,728.49,406c19,17.45,39.07,32.93,59.25,49.94,26.92,22.58,53.82,47.66,78.44,84.09h80.19q-5.72-9.21-12.45-18.39C865.37,428.42,767.44,398.27,705.27,296.67Z"/><path class="k" d="M705.27,296.67c-38.54-63-36.39-131.86-24.3-185.73q-10.69-3.21-21.59-5.92-2.42,4.85-4.8,9.92c-2.69,7.24-5.19,14.72-7.43,22.4A307.11,307.11,0,0,0,638,182.2c-5.44,43.1,2.79,87.35,18.92,125.53a276,276,0,0,0,34,57.81l.83,1A419.13,419.13,0,0,0,728.49,406c19,17.45,39.07,32.93,59.25,49.94,26.92,22.58,53.82,47.66,78.44,84.09h80.19q-5.72-9.21-12.45-18.39C865.37,428.42,767.44,398.27,705.27,296.67Z"/><path class="v" d="M705.27,296.67c-38.54-63-36.39-131.86-24.3-185.73q-10.69-3.21-21.59-5.92-2.42,4.85-4.8,9.92c-2.69,7.24-5.19,14.72-7.43,22.4A307.11,307.11,0,0,0,638,182.2c-5.44,43.1,2.79,87.35,18.92,125.53a276,276,0,0,0,34,57.81l.83,1A419.13,419.13,0,0,0,728.49,406c19,17.45,39.07,32.93,59.25,49.94,26.92,22.58,53.82,47.66,78.44,84.09h80.19q-5.72-9.21-12.45-18.39C865.37,428.42,767.44,398.27,705.27,296.67Z"/><path class="c" d="M456.56,327c30,2.81,49.38,5.47,61.93,8.2,20.92,4.55,22.77,9.31,22.5,15.33-.13,2.16-.33,4.19-.58,6.13a55.11,55.11,0,0,0,.59-6.13c.43-9.62-4.56-16.09-84.17-23.56A49.43,49.43,0,0,1,426,312.68c.08.17.15.34.23.52A48.86,48.86,0,0,0,456.56,327Z"/><path class="aa" d="M456.56,327c30,2.81,49.38,5.47,61.93,8.2,20.92,4.55,22.77,9.31,22.5,15.33-.13,2.16-.33,4.19-.58,6.13a55.11,55.11,0,0,0,.59-6.13c.43-9.62-4.56-16.09-84.17-23.56A49.43,49.43,0,0,1,426,312.68c.08.17.15.34.23.52A48.86,48.86,0,0,0,456.56,327Z"/><path class="c" d="M420.6,449.35h0s1.8-2.33,2.62-3.19a49.17,49.17,0,0,1,7.45-6.05C425.13,443.71,421.38,446.92,420.6,449.35Z"/><path class="ab" d="M420.6,449.35h0s1.8-2.33,2.62-3.19a49.17,49.17,0,0,1,7.45-6.05C425.13,443.71,421.38,446.92,420.6,449.35Z"/><path class="ac" d="M420.6,449.35h0s1.8-2.33,2.62-3.19a49.17,49.17,0,0,1,7.45-6.05C425.13,443.71,421.38,446.92,420.6,449.35Z"/><path class="c" d="M479.91,415c14.14-6.17,25.85-10.89,28.26-12.26a77.9,77.9,0,0,0,10.43-8.09,76.57,76.57,0,0,1-9.35,6.92C507.1,403,494.75,408.28,479.91,415Z"/><path class="ad" d="M479.91,415c14.14-6.17,25.85-10.89,28.26-12.26a77.9,77.9,0,0,0,10.43-8.09,76.57,76.57,0,0,1-9.35,6.92C507.1,403,494.75,408.28,479.91,415Z"/><path class="ae" d="M479.91,415c14.14-6.17,25.85-10.89,28.26-12.26a77.9,77.9,0,0,0,10.43-8.09,76.57,76.57,0,0,1-9.35,6.92C507.1,403,494.75,408.28,479.91,415Z"/><path class="c" d="M407.61,281.23a58.47,58.47,0,0,0,3,8.65c1.35,2.54,2.71,5.1,4,7.92a65.5,65.5,0,0,0,11.64,15.4c-.08-.18-.15-.35-.23-.52-10.73-10.54-16-24.2-18.31-31.74C407.68,281,407.65,281.14,407.61,281.23Z"/><path class="af" d="M407.61,281.23a58.47,58.47,0,0,0,3,8.65c1.35,2.54,2.71,5.1,4,7.92a65.5,65.5,0,0,0,11.64,15.4c-.08-.18-.15-.35-.23-.52-10.73-10.54-16-24.2-18.31-31.74C407.68,281,407.65,281.14,407.61,281.23Z"/><path class="ag" d="M407.61,281.23a58.47,58.47,0,0,0,3,8.65c1.35,2.54,2.71,5.1,4,7.92a65.5,65.5,0,0,0,11.64,15.4c-.08-.18-.15-.35-.23-.52-10.73-10.54-16-24.2-18.31-31.74C407.68,281,407.65,281.14,407.61,281.23Z"/><path class="c" d="M518.49,335.2c-12.55-2.73-32-5.39-61.93-8.2a48.86,48.86,0,0,1-30.3-13.8l.54,1.25c6.58,13.2,18.16,27.5,37.9,29.44,54.81,5.74,70.59,10.85,74.84,17.23.35-1.45.63-2.94.87-4.46.25-1.94.45-4,.58-6.13C541.26,344.51,539.41,339.75,518.49,335.2Z"/><path class="k" d="M518.49,335.2c-12.55-2.73-32-5.39-61.93-8.2a48.86,48.86,0,0,1-30.3-13.8l.54,1.25c6.58,13.2,18.16,27.5,37.9,29.44,54.81,5.74,70.59,10.85,74.84,17.23.35-1.45.63-2.94.87-4.46.25-1.94.45-4,.58-6.13C541.26,344.51,539.41,339.75,518.49,335.2Z"/><path class="ah" d="M518.49,335.2c-12.55-2.73-32-5.39-61.93-8.2a48.86,48.86,0,0,1-30.3-13.8l.54,1.25c6.58,13.2,18.16,27.5,37.9,29.44,54.81,5.74,70.59,10.85,74.84,17.23.35-1.45.63-2.94.87-4.46.25-1.94.45-4,.58-6.13C541.26,344.51,539.41,339.75,518.49,335.2Z"/><path class="c" d="M539.54,361.12c-4.25-6.38-20-11.49-74.84-17.23C445,342,433.38,327.65,426.8,314.45l-.54-1.25a65.5,65.5,0,0,1-11.64-15.4c-1.33-2.82-2.69-5.38-4-7.92a58.47,58.47,0,0,1-3-8.65c-11.56,30.17-16.33,61.84-13.76,100.11,1.77,25.16,18.67,52.15,26.75,68,.78-2.43,4.53-5.64,10.07-9.24,12.13-8.32,32.4-17.74,49.24-25.09,14.84-6.74,27.19-12,29.34-13.43a76.57,76.57,0,0,0,9.35-6.92C526.47,387.49,535.93,376.14,539.54,361.12Z"/><path class="ai" d="M539.54,361.12c-4.25-6.38-20-11.49-74.84-17.23C445,342,433.38,327.65,426.8,314.45l-.54-1.25a65.5,65.5,0,0,1-11.64-15.4c-1.33-2.82-2.69-5.38-4-7.92a58.47,58.47,0,0,1-3-8.65c-11.56,30.17-16.33,61.84-13.76,100.11,1.77,25.16,18.67,52.15,26.75,68,.78-2.43,4.53-5.64,10.07-9.24,12.13-8.32,32.4-17.74,49.24-25.09,14.84-6.74,27.19-12,29.34-13.43a76.57,76.57,0,0,0,9.35-6.92C526.47,387.49,535.93,376.14,539.54,361.12Z"/><path class="k" d="M539.54,361.12c-4.25-6.38-20-11.49-74.84-17.23C445,342,433.38,327.65,426.8,314.45l-.54-1.25a65.5,65.5,0,0,1-11.64-15.4c-1.33-2.82-2.69-5.38-4-7.92a58.47,58.47,0,0,1-3-8.65c-11.56,30.17-16.33,61.84-13.76,100.11,1.77,25.16,18.67,52.15,26.75,68,.78-2.43,4.53-5.64,10.07-9.24,12.13-8.32,32.4-17.74,49.24-25.09,14.84-6.74,27.19-12,29.34-13.43a76.57,76.57,0,0,0,9.35-6.92C526.47,387.49,535.93,376.14,539.54,361.12Z"/><path class="aj" d="M539.54,361.12c-4.25-6.38-20-11.49-74.84-17.23C445,342,433.38,327.65,426.8,314.45l-.54-1.25a65.5,65.5,0,0,1-11.64-15.4c-1.33-2.82-2.69-5.38-4-7.92a58.47,58.47,0,0,1-3-8.65c-11.56,30.17-16.33,61.84-13.76,100.11,1.77,25.16,18.67,52.15,26.75,68,.78-2.43,4.53-5.64,10.07-9.24,12.13-8.32,32.4-17.74,49.24-25.09,14.84-6.74,27.19-12,29.34-13.43a76.57,76.57,0,0,0,9.35-6.92C526.47,387.49,535.93,376.14,539.54,361.12Z"/><path class="ak" d="M134.92,177l.32-.5c.16-.63.32-1.21.5-1.76.12-1.94.28-4.25.08-3.69s-.5,1-.75,1.48C135,173.93,134.86,176.06,134.92,177Z"/><path class="al" d="M187.66,173.72c.14.31.27.4.4.37a.87.87,0,0,1-.12-.2c-6.54-15.16-10.52-39.73-9.57-57.1,0,0-.2.09-.56.29C177.25,134.19,181.18,158.7,187.66,173.72Z"/><path class="am" d="M148.37,158.22l.53-1c.32-2.33,1.32-7.11,1.08-6.74s-.42.67-.67,1C148.9,153.87,147.92,158.77,148.37,158.22Z"/><path class="an" d="M107.83,275.5c-.92,9.2-1.11,15.68-.77,17.92.16-2.29,0-5,.24-7.45C107.41,282.39,107.6,278.91,107.83,275.5Z"/><path class="ao" d="M217.64,213a131.58,131.58,0,0,1-13.39-17.07A126.54,126.54,0,0,0,217.59,213Z"/><path class="ap" d="M196.8,183.69c-2.06-3.68-4.15-7.65-6.23-11.95h0c-.16-.28-.3-.39-.44-.4a1.14,1.14,0,0,1,.16.23C192.55,176,194.72,180,196.8,183.69Z"/><path class="aq" d="M218.59,214l0,0-1-1.05,0,0C217.93,213.35,218.26,213.7,218.59,214Z"/><path class="ar" d="M218.59,214l0,0-1-1.05,0,0C217.93,213.35,218.26,213.7,218.59,214Z"/><path class="c" d="M218.63,214l0,0c2.86,2.95,5.35,5.16,7.47,7.07l.4-.1A65,65,0,0,1,218.63,214Z"/><path class="as" d="M218.63,214l0,0c2.86,2.95,5.35,5.16,7.47,7.07l.4-.1A65,65,0,0,1,218.63,214Z"/><path class="at" d="M218.63,214l0,0c2.86,2.95,5.35,5.16,7.47,7.07l.4-.1A65,65,0,0,1,218.63,214Z"/><path class="k" d="M204.25,195.88c-2.42-3.63-4.92-7.68-7.45-12.19-2.08-3.66-4.25-7.68-6.51-12.12a1.14,1.14,0,0,0-.16-.23c-.83-.06-1.38,3.78-2.07,2.75-.13,0-.26-.06-.4-.37-6.48-15-10.41-39.53-9.85-56.64-2.64,1.46-14.3,8.94-24.15,31.61-2.08,4.62-3.41,7.17-4.74,9.73-.17.2-.14-.34,0-1.21l-.53,1c-.45.55.53-4.35.94-6.72-2.26,3.19-6.52,7.43-8.49,12.55-1.81,4.65-3.67,7.15-5.06,12.92-.19.7-.12-.63,0-2.22-.18.55-.34,1.13-.5,1.76l-.32.5c-.06-.95.09-3.08.15-4.47-17,33.65-24.76,78.14-27.24,103-.23,3.41-.42,6.89-.53,10.47-.25,2.45-.08,5.16-.24,7.45.11.76.28,1,.51.77a269.85,269.85,0,0,1,79.71-58.53c9.76-7.39,20.27-15.1,30.31-22.67A126.54,126.54,0,0,1,204.25,195.88Z"/><path class="au" d="M204.25,195.88c-2.42-3.63-4.92-7.68-7.45-12.19-2.08-3.66-4.25-7.68-6.51-12.12a1.14,1.14,0,0,0-.16-.23c-.83-.06-1.38,3.78-2.07,2.75-.13,0-.26-.06-.4-.37-6.48-15-10.41-39.53-9.85-56.64-2.64,1.46-14.3,8.94-24.15,31.61-2.08,4.62-3.41,7.17-4.74,9.73-.17.2-.14-.34,0-1.21l-.53,1c-.45.55.53-4.35.94-6.72-2.26,3.19-6.52,7.43-8.49,12.55-1.81,4.65-3.67,7.15-5.06,12.92-.19.7-.12-.63,0-2.22-.18.55-.34,1.13-.5,1.76l-.32.5c-.06-.95.09-3.08.15-4.47-17,33.65-24.76,78.14-27.24,103-.23,3.41-.42,6.89-.53,10.47-.25,2.45-.08,5.16-.24,7.45.11.76.28,1,.51.77a269.85,269.85,0,0,1,79.71-58.53c9.76-7.39,20.27-15.1,30.31-22.67A126.54,126.54,0,0,1,204.25,195.88Z"/><path class="av" d="M217.59,213c-10,7.57-20.55,15.28-30.31,22.67,5.6-2.69,10.79-4.94,15.44-6.8q7.77-7.59,15.87-14.83C218.26,213.7,217.93,213.35,217.59,213Z"/><path class="k" d="M217.59,213c-10,7.57-20.55,15.28-30.31,22.67,5.6-2.69,10.79-4.94,15.44-6.8q7.77-7.59,15.87-14.83C218.26,213.7,217.93,213.35,217.59,213Z"/><path class="aw" d="M217.59,213c-10,7.57-20.55,15.28-30.31,22.67,5.6-2.69,10.79-4.94,15.44-6.8q7.77-7.59,15.87-14.83C218.26,213.7,217.93,213.35,217.59,213Z"/><path class="c" d="M218.59,214q-8.1,7.25-15.87,14.83a175.63,175.63,0,0,1,23.34-7.76C223.94,219.19,221.45,217,218.59,214Z"/><path class="ax" d="M218.59,214q-8.1,7.25-15.87,14.83a175.63,175.63,0,0,1,23.34-7.76C223.94,219.19,221.45,217,218.59,214Z"/><path class="k" d="M218.59,214q-8.1,7.25-15.87,14.83a175.63,175.63,0,0,1,23.34-7.76C223.94,219.19,221.45,217,218.59,214Z"/><path class="ay" d="M218.59,214q-8.1,7.25-15.87,14.83a175.63,175.63,0,0,1,23.34-7.76C223.94,219.19,221.45,217,218.59,214Z"/><path class="c" d="M360.81,500.89a38.4,38.4,0,0,0-4.07,3.31C358.09,503,359.47,501.88,360.81,500.89Z"/><path class="az" d="M360.81,500.89a38.4,38.4,0,0,0-4.07,3.31C358.09,503,359.47,501.88,360.81,500.89Z"/><path class="ba" d="M360.81,500.89a38.4,38.4,0,0,0-4.07,3.31C358.09,503,359.47,501.88,360.81,500.89Z"/><path class="c" d="M345.83,520.31a38.7,38.7,0,0,0-2.15,7.73A72.74,72.74,0,0,1,345.83,520.31Z"/><path class="bb" d="M345.83,520.31a38.7,38.7,0,0,0-2.15,7.73A72.74,72.74,0,0,1,345.83,520.31Z"/><path class="bc" d="M345.83,520.31a38.7,38.7,0,0,0-2.15,7.73A72.74,72.74,0,0,1,345.83,520.31Z"/><path class="c" d="M345.83,520.31c.56-1.65,1.13-3.16,1.64-4.47,2-4.2,5.52-8.29,9.27-11.64a38.4,38.4,0,0,1,4.07-3.31c3.34-2.46,6.44-4.15,8.31-4.6,0,0-77.36-17-112.12,43.71h85.29a60.41,60.41,0,0,1,1.39-12A38.7,38.7,0,0,1,345.83,520.31Z"/><path class="bd" d="M345.83,520.31c.56-1.65,1.13-3.16,1.64-4.47,2-4.2,5.52-8.29,9.27-11.64a38.4,38.4,0,0,1,4.07-3.31c3.34-2.46,6.44-4.15,8.31-4.6,0,0-77.36-17-112.12,43.71h85.29a60.41,60.41,0,0,1,1.39-12A38.7,38.7,0,0,1,345.83,520.31Z"/><path class="k" d="M345.83,520.31c.56-1.65,1.13-3.16,1.64-4.47,2-4.2,5.52-8.29,9.27-11.64a38.4,38.4,0,0,1,4.07-3.31c3.34-2.46,6.44-4.15,8.31-4.6,0,0-77.36-17-112.12,43.71h85.29a60.41,60.41,0,0,1,1.39-12A38.7,38.7,0,0,1,345.83,520.31Z"/><path class="be" d="M345.83,520.31c.56-1.65,1.13-3.16,1.64-4.47,2-4.2,5.52-8.29,9.27-11.64a38.4,38.4,0,0,1,4.07-3.31c3.34-2.46,6.44-4.15,8.31-4.6,0,0-77.36-17-112.12,43.71h85.29a60.41,60.41,0,0,1,1.39-12A38.7,38.7,0,0,1,345.83,520.31Z"/><path class="bf" d="M1040.57,501.08l0-.07a406.27,406.27,0,0,0-24.45-109.31c4.73,13.6,8.94,27.47,12.46,41.58A353.48,353.48,0,0,1,1040.57,501.08Z"/><path class="bg" d="M1058.14,483.39a273.27,273.27,0,0,1,2.51,56.61h2.47a436.13,436.13,0,0,0-5.47-61.87S1057.88,480,1058.14,483.39Z"/><path class="b" d="M986.71,328.53a603.78,603.78,0,0,1,36.88,88.22q2.76,8.28,5,16.53c-3.52-14.11-7.73-28-12.46-41.58q-5.83-15.63-13.2-31.41Q995.21,343.78,986.71,328.53Z"/><path class="bh" d="M986.71,328.53a603.78,603.78,0,0,1,36.88,88.22q2.76,8.28,5,16.53c-3.52-14.11-7.73-28-12.46-41.58q-5.83-15.63-13.2-31.41Q995.21,343.78,986.71,328.53Z"/><path class="j" d="M1058.14,483.39a315,315,0,0,1-1.4,56.61h3.91A273.27,273.27,0,0,0,1058.14,483.39Z"/><path class="bi" d="M1058.14,483.39a315,315,0,0,1-1.4,56.61h3.91A273.27,273.27,0,0,0,1058.14,483.39Z"/><path class="j" d="M1040.62,501l0,.07a382.6,382.6,0,0,1,1,38.92h.42C1042.14,527.25,1041.71,514.24,1040.62,501Z"/><path class="bj" d="M1040.62,501l0,.07a382.6,382.6,0,0,1,1,38.92h.42C1042.14,527.25,1041.71,514.24,1040.62,501Z"/><path class="v" d="M1039.76,502.25l.81-1.17a353.48,353.48,0,0,0-11.94-67.8A395.83,395.83,0,0,1,1039.76,502.25Z"/><path class="bk" d="M1039.76,502.25l.81-1.17a353.48,353.48,0,0,0-11.94-67.8A395.83,395.83,0,0,1,1039.76,502.25Z"/><path class="b" d="M1023.59,416.75a603.78,603.78,0,0,0-36.88-88.22c-39.48-71.07-89.44-121.9-130.32-156.69,13.73,14.72,29.67,32.59,45.87,50.55,34.22,28.84,9.32,16,44.66,55.45,34.3,38.31,73.89,117.88,82.95,173.42,3.31,20.33,5.79,37.9,7.18,54.92.92-1.35,1.83-2.67,2.71-3.93a395.83,395.83,0,0,0-11.13-69Q1026.33,425,1023.59,416.75Z"/><path class="v" d="M1023.59,416.75a603.78,603.78,0,0,0-36.88-88.22c-39.48-71.07-89.44-121.9-130.32-156.69,13.73,14.72,29.67,32.59,45.87,50.55,34.22,28.84,9.32,16,44.66,55.45,34.3,38.31,73.89,117.88,82.95,173.42,3.31,20.33,5.79,37.9,7.18,54.92.92-1.35,1.83-2.67,2.71-3.93a395.83,395.83,0,0,0-11.13-69Q1026.33,425,1023.59,416.75Z"/><path class="bl" d="M1023.59,416.75a603.78,603.78,0,0,0-36.88-88.22c-39.48-71.07-89.44-121.9-130.32-156.69,13.73,14.72,29.67,32.59,45.87,50.55,34.22,28.84,9.32,16,44.66,55.45,34.3,38.31,73.89,117.88,82.95,173.42,3.31,20.33,5.79,37.9,7.18,54.92.92-1.35,1.83-2.67,2.71-3.93a395.83,395.83,0,0,0-11.13-69Q1026.33,425,1023.59,416.75Z"/><path class="j" d="M1040.57,501.08l-.81,1.17a341.4,341.4,0,0,1,.51,37.75h1.32A382.6,382.6,0,0,0,1040.57,501.08Z"/><path class="v" d="M1040.57,501.08l-.81,1.17a341.4,341.4,0,0,1,.51,37.75h1.32A382.6,382.6,0,0,0,1040.57,501.08Z"/><path class="bm" d="M1040.57,501.08l-.81,1.17a341.4,341.4,0,0,1,.51,37.75h1.32A382.6,382.6,0,0,0,1040.57,501.08Z"/><path class="b" d="M1039.76,502.25c-.88,1.26-1.79,2.58-2.71,3.93.92,11.31,1.35,22.37,1.22,33.82h2A341.4,341.4,0,0,0,1039.76,502.25Z"/><path class="j" d="M1039.76,502.25c-.88,1.26-1.79,2.58-2.71,3.93.92,11.31,1.35,22.37,1.22,33.82h2A341.4,341.4,0,0,0,1039.76,502.25Z"/><path class="v" d="M1039.76,502.25c-.88,1.26-1.79,2.58-2.71,3.93.92,11.31,1.35,22.37,1.22,33.82h2A341.4,341.4,0,0,0,1039.76,502.25Z"/><path class="bn" d="M1039.76,502.25c-.88,1.26-1.79,2.58-2.71,3.93.92,11.31,1.35,22.37,1.22,33.82h2A341.4,341.4,0,0,0,1039.76,502.25Z"/><path class="k" d="M796.46,125.33c-60-44.77-84.91-90.35-85.36-99.76-2.86,5.86-6.64,14-10.71,23.94,15.2,13.47,53.13,50,56.64,51.8,4.66,13.92,15.69,34.92,41.29,62.72q19.18,12,37.15,25.67A192.36,192.36,0,0,1,838.32,157C821.29,143.4,806.72,133,796.46,125.33Z"/><path class="v" d="M796.46,125.33c-60-44.77-84.91-90.35-85.36-99.76-2.86,5.86-6.64,14-10.71,23.94,15.2,13.47,53.13,50,56.64,51.8,4.66,13.92,15.69,34.92,41.29,62.72q19.18,12,37.15,25.67A192.36,192.36,0,0,1,838.32,157C821.29,143.4,806.72,133,796.46,125.33Z"/><path class="bo" d="M796.46,125.33c-60-44.77-84.91-90.35-85.36-99.76-2.86,5.86-6.64,14-10.71,23.94,15.2,13.47,53.13,50,56.64,51.8,4.66,13.92,15.69,34.92,41.29,62.72q19.18,12,37.15,25.67A192.36,192.36,0,0,1,838.32,157C821.29,143.4,806.72,133,796.46,125.33Z"/><path class="b" d="M946.92,277.84c-35.34-39.47-10.44-26.61-44.66-55.45-16.2-18-32.14-35.83-45.87-50.55q-9.39-8-18.07-14.87a192.36,192.36,0,0,0-2.85,32.73,489.65,489.65,0,0,1,190.07,334.18c4.08-6.57,8-12.48,11.51-17.7-1.39-17-3.87-34.59-7.18-54.92C1020.81,395.72,981.22,316.15,946.92,277.84Z"/><path class="k" d="M946.92,277.84c-35.34-39.47-10.44-26.61-44.66-55.45-16.2-18-32.14-35.83-45.87-50.55q-9.39-8-18.07-14.87a192.36,192.36,0,0,0-2.85,32.73,489.65,489.65,0,0,1,190.07,334.18c4.08-6.57,8-12.48,11.51-17.7-1.39-17-3.87-34.59-7.18-54.92C1020.81,395.72,981.22,316.15,946.92,277.84Z"/><path class="v" d="M946.92,277.84c-35.34-39.47-10.44-26.61-44.66-55.45-16.2-18-32.14-35.83-45.87-50.55q-9.39-8-18.07-14.87a192.36,192.36,0,0,0-2.85,32.73,489.65,489.65,0,0,1,190.07,334.18c4.08-6.57,8-12.48,11.51-17.7-1.39-17-3.87-34.59-7.18-54.92C1020.81,395.72,981.22,316.15,946.92,277.84Z"/><path class="bp" d="M946.92,277.84c-35.34-39.47-10.44-26.61-44.66-55.45-16.2-18-32.14-35.83-45.87-50.55q-9.39-8-18.07-14.87a192.36,192.36,0,0,0-2.85,32.73,489.65,489.65,0,0,1,190.07,334.18c4.08-6.57,8-12.48,11.51-17.7-1.39-17-3.87-34.59-7.18-54.92C1020.81,395.72,981.22,316.15,946.92,277.84Z"/><path class="c" d="M802.13,168.11c8,8.41,19.79,19.66,33.68,34.33q-.37-6.47-.34-12.74Q817.52,176,798.32,164C799.56,165.38,800.82,166.73,802.13,168.11Z"/><path class="k" d="M802.13,168.11c8,8.41,19.79,19.66,33.68,34.33q-.37-6.47-.34-12.74Q817.52,176,798.32,164C799.56,165.38,800.82,166.73,802.13,168.11Z"/><path class="v" d="M802.13,168.11c8,8.41,19.79,19.66,33.68,34.33q-.37-6.47-.34-12.74Q817.52,176,798.32,164C799.56,165.38,800.82,166.73,802.13,168.11Z"/><path class="bq" d="M802.13,168.11c8,8.41,19.79,19.66,33.68,34.33q-.37-6.47-.34-12.74Q817.52,176,798.32,164C799.56,165.38,800.82,166.73,802.13,168.11Z"/><path class="b" d="M835.47,189.7q0,6.27.34,12.74c9.71,10.26,20.44,22.18,31.6,36,30.91,29.08,65.9,69,85.61,117.67,34.23,84.57,38.82,112.43,38.82,112.43A376.83,376.83,0,0,1,999,540h12.1a324.74,324.74,0,0,0-2.29-34.35c-.34-2.18-.67-4.33-1.07-6.57.26,1.21.47,2.43.71,3.64-.2-1.57-.39-3.14-.61-4.71a281.82,281.82,0,0,1,5.72,42h2.36c3.29-5.74,6.52-11.12,9.62-16.12A489.65,489.65,0,0,0,835.47,189.7Z"/><path class="c" d="M835.47,189.7q0,6.27.34,12.74c9.71,10.26,20.44,22.18,31.6,36,30.91,29.08,65.9,69,85.61,117.67,34.23,84.57,38.82,112.43,38.82,112.43A376.83,376.83,0,0,1,999,540h12.1a324.74,324.74,0,0,0-2.29-34.35c-.34-2.18-.67-4.33-1.07-6.57.26,1.21.47,2.43.71,3.64-.2-1.57-.39-3.14-.61-4.71a281.82,281.82,0,0,1,5.72,42h2.36c3.29-5.74,6.52-11.12,9.62-16.12A489.65,489.65,0,0,0,835.47,189.7Z"/><path class="k" d="M835.47,189.7q0,6.27.34,12.74c9.71,10.26,20.44,22.18,31.6,36,30.91,29.08,65.9,69,85.61,117.67,34.23,84.57,38.82,112.43,38.82,112.43A376.83,376.83,0,0,1,999,540h12.1a324.74,324.74,0,0,0-2.29-34.35c-.34-2.18-.67-4.33-1.07-6.57.26,1.21.47,2.43.71,3.64-.2-1.57-.39-3.14-.61-4.71a281.82,281.82,0,0,1,5.72,42h2.36c3.29-5.74,6.52-11.12,9.62-16.12A489.65,489.65,0,0,0,835.47,189.7Z"/><path class="v" d="M835.47,189.7q0,6.27.34,12.74c9.71,10.26,20.44,22.18,31.6,36,30.91,29.08,65.9,69,85.61,117.67,34.23,84.57,38.82,112.43,38.82,112.43A376.83,376.83,0,0,1,999,540h12.1a324.74,324.74,0,0,0-2.29-34.35c-.34-2.18-.67-4.33-1.07-6.57.26,1.21.47,2.43.71,3.64-.2-1.57-.39-3.14-.61-4.71a281.82,281.82,0,0,1,5.72,42h2.36c3.29-5.74,6.52-11.12,9.62-16.12A489.65,489.65,0,0,0,835.47,189.7Z"/><path class="br" d="M835.47,189.7q0,6.27.34,12.74c9.71,10.26,20.44,22.18,31.6,36,30.91,29.08,65.9,69,85.61,117.67,34.23,84.57,38.82,112.43,38.82,112.43A376.83,376.83,0,0,1,999,540h12.1a324.74,324.74,0,0,0-2.29-34.35c-.34-2.18-.67-4.33-1.07-6.57.26,1.21.47,2.43.71,3.64-.2-1.57-.39-3.14-.61-4.71a281.82,281.82,0,0,1,5.72,42h2.36c3.29-5.74,6.52-11.12,9.62-16.12A489.65,489.65,0,0,0,835.47,189.7Z"/><path class="bs" d="M700.39,49.51A387.94,387.94,0,0,0,681,110.94,483.15,483.15,0,0,1,798.32,164c-25.6-27.8-36.63-48.8-41.29-62.72C753.52,99.54,715.59,63,700.39,49.51Z"/><path class="k" d="M700.39,49.51A387.94,387.94,0,0,0,681,110.94,483.15,483.15,0,0,1,798.32,164c-25.6-27.8-36.63-48.8-41.29-62.72C753.52,99.54,715.59,63,700.39,49.51Z"/><path class="v" d="M700.39,49.51A387.94,387.94,0,0,0,681,110.94,483.15,483.15,0,0,1,798.32,164c-25.6-27.8-36.63-48.8-41.29-62.72C753.52,99.54,715.59,63,700.39,49.51Z"/><path class="bt" d="M700.39,49.51A387.94,387.94,0,0,0,681,110.94,483.15,483.15,0,0,1,798.32,164c-25.6-27.8-36.63-48.8-41.29-62.72C753.52,99.54,715.59,63,700.39,49.51Z"/><path class="c" d="M850.37,269.8a225.49,225.49,0,0,1-14.56-67.36c-13.89-14.67-25.7-25.92-33.68-34.33-1.31-1.38-2.57-2.73-3.81-4.08A483.15,483.15,0,0,0,681,110.94c-12.09,53.87-14.24,122.75,24.3,185.73,62.17,101.6,160.1,131.75,228.65,224.94q6.75,9.18,12.45,18.39h18.54c-.35-43.15-4.89-97.72-21.57-144.34C917.87,324.45,877,339.62,850.37,269.8Z"/><path class="bu" d="M850.37,269.8a225.49,225.49,0,0,1-14.56-67.36c-13.89-14.67-25.7-25.92-33.68-34.33-1.31-1.38-2.57-2.73-3.81-4.08A483.15,483.15,0,0,0,681,110.94c-12.09,53.87-14.24,122.75,24.3,185.73,62.17,101.6,160.1,131.75,228.65,224.94q6.75,9.18,12.45,18.39h18.54c-.35-43.15-4.89-97.72-21.57-144.34C917.87,324.45,877,339.62,850.37,269.8Z"/><path class="k" d="M850.37,269.8a225.49,225.49,0,0,1-14.56-67.36c-13.89-14.67-25.7-25.92-33.68-34.33-1.31-1.38-2.57-2.73-3.81-4.08A483.15,483.15,0,0,0,681,110.94c-12.09,53.87-14.24,122.75,24.3,185.73,62.17,101.6,160.1,131.75,228.65,224.94q6.75,9.18,12.45,18.39h18.54c-.35-43.15-4.89-97.72-21.57-144.34C917.87,324.45,877,339.62,850.37,269.8Z"/><path class="v" d="M850.37,269.8a225.49,225.49,0,0,1-14.56-67.36c-13.89-14.67-25.7-25.92-33.68-34.33-1.31-1.38-2.57-2.73-3.81-4.08A483.15,483.15,0,0,0,681,110.94c-12.09,53.87-14.24,122.75,24.3,185.73,62.17,101.6,160.1,131.75,228.65,224.94q6.75,9.18,12.45,18.39h18.54c-.35-43.15-4.89-97.72-21.57-144.34C917.87,324.45,877,339.62,850.37,269.8Z"/><path class="bv" d="M850.37,269.8a225.49,225.49,0,0,1-14.56-67.36c-13.89-14.67-25.7-25.92-33.68-34.33-1.31-1.38-2.57-2.73-3.81-4.08A483.15,483.15,0,0,0,681,110.94c-12.09,53.87-14.24,122.75,24.3,185.73,62.17,101.6,160.1,131.75,228.65,224.94q6.75,9.18,12.45,18.39h18.54c-.35-43.15-4.89-97.72-21.57-144.34C917.87,324.45,877,339.62,850.37,269.8Z"/><path class="b" d="M953,356.09c-19.71-48.68-54.7-88.59-85.61-117.67-11.16-13.8-21.89-25.72-31.6-36a225.49,225.49,0,0,0,14.56,67.36c26.65,69.82,67.5,54.65,93,125.86C960,442.28,964.56,496.85,964.91,540H999a376.83,376.83,0,0,0-7.16-71.48S987.25,440.66,953,356.09Z"/><path class="c" d="M953,356.09c-19.71-48.68-54.7-88.59-85.61-117.67-11.16-13.8-21.89-25.72-31.6-36a225.49,225.49,0,0,0,14.56,67.36c26.65,69.82,67.5,54.65,93,125.86C960,442.28,964.56,496.85,964.91,540H999a376.83,376.83,0,0,0-7.16-71.48S987.25,440.66,953,356.09Z"/><path class="bw" d="M953,356.09c-19.71-48.68-54.7-88.59-85.61-117.67-11.16-13.8-21.89-25.72-31.6-36a225.49,225.49,0,0,0,14.56,67.36c26.65,69.82,67.5,54.65,93,125.86C960,442.28,964.56,496.85,964.91,540H999a376.83,376.83,0,0,0-7.16-71.48S987.25,440.66,953,356.09Z"/><path class="k" d="M953,356.09c-19.71-48.68-54.7-88.59-85.61-117.67-11.16-13.8-21.89-25.72-31.6-36a225.49,225.49,0,0,0,14.56,67.36c26.65,69.82,67.5,54.65,93,125.86C960,442.28,964.56,496.85,964.91,540H999a376.83,376.83,0,0,0-7.16-71.48S987.25,440.66,953,356.09Z"/><path class="v" d="M953,356.09c-19.71-48.68-54.7-88.59-85.61-117.67-11.16-13.8-21.89-25.72-31.6-36a225.49,225.49,0,0,0,14.56,67.36c26.65,69.82,67.5,54.65,93,125.86C960,442.28,964.56,496.85,964.91,540H999a376.83,376.83,0,0,0-7.16-71.48S987.25,440.66,953,356.09Z"/><path class="bx" d="M953,356.09c-19.71-48.68-54.7-88.59-85.61-117.67-11.16-13.8-21.89-25.72-31.6-36a225.49,225.49,0,0,0,14.56,67.36c26.65,69.82,67.5,54.65,93,125.86C960,442.28,964.56,496.85,964.91,540H999a376.83,376.83,0,0,0-7.16-71.48S987.25,440.66,953,356.09Z"/><path class="b" d="M1008.45,502.72c-.24-1.21-.45-2.43-.71-3.64.4,2.24.73,4.39,1.07,6.57A324.74,324.74,0,0,1,1011.1,540h2.46a281.82,281.82,0,0,0-5.72-42C1008.06,499.58,1008.25,501.15,1008.45,502.72Z"/><path class="c" d="M1008.45,502.72c-.24-1.21-.45-2.43-.71-3.64.4,2.24.73,4.39,1.07,6.57A324.74,324.74,0,0,1,1011.1,540h2.46a281.82,281.82,0,0,0-5.72-42C1008.06,499.58,1008.25,501.15,1008.45,502.72Z"/><path class="by" d="M1008.45,502.72c-.24-1.21-.45-2.43-.71-3.64.4,2.24.73,4.39,1.07,6.57A324.74,324.74,0,0,1,1011.1,540h2.46a281.82,281.82,0,0,0-5.72-42C1008.06,499.58,1008.25,501.15,1008.45,502.72Z"/><path class="k" d="M1008.45,502.72c-.24-1.21-.45-2.43-.71-3.64.4,2.24.73,4.39,1.07,6.57A324.74,324.74,0,0,1,1011.1,540h2.46a281.82,281.82,0,0,0-5.72-42C1008.06,499.58,1008.25,501.15,1008.45,502.72Z"/><path class="v" d="M1008.45,502.72c-.24-1.21-.45-2.43-.71-3.64.4,2.24.73,4.39,1.07,6.57A324.74,324.74,0,0,1,1011.1,540h2.46a281.82,281.82,0,0,0-5.72-42C1008.06,499.58,1008.25,501.15,1008.45,502.72Z"/><path class="bz" d="M1008.45,502.72c-.24-1.21-.45-2.43-.71-3.64.4,2.24.73,4.39,1.07,6.57A324.74,324.74,0,0,1,1011.1,540h2.46a281.82,281.82,0,0,0-5.72-42C1008.06,499.58,1008.25,501.15,1008.45,502.72Z"/><path class="b" d="M1037.05,506.18c-3.55,5.22-7.43,11.13-11.51,17.7q.92,8,1.56,16.12h11.17C1038.4,528.55,1038,517.49,1037.05,506.18Z"/><path class="j" d="M1037.05,506.18c-3.55,5.22-7.43,11.13-11.51,17.7q.92,8,1.56,16.12h11.17C1038.4,528.55,1038,517.49,1037.05,506.18Z"/><path class="k" d="M1037.05,506.18c-3.55,5.22-7.43,11.13-11.51,17.7q.92,8,1.56,16.12h11.17C1038.4,528.55,1038,517.49,1037.05,506.18Z"/><path class="v" d="M1037.05,506.18c-3.55,5.22-7.43,11.13-11.51,17.7q.92,8,1.56,16.12h11.17C1038.4,528.55,1038,517.49,1037.05,506.18Z"/><path class="ca" d="M1037.05,506.18c-3.55,5.22-7.43,11.13-11.51,17.7q.92,8,1.56,16.12h11.17C1038.4,528.55,1038,517.49,1037.05,506.18Z"/><path class="b" d="M1015.92,540h11.18q-.64-8.1-1.56-16.12C1022.44,528.88,1019.21,534.26,1015.92,540Z"/><path class="c" d="M1015.92,540h11.18q-.64-8.1-1.56-16.12C1022.44,528.88,1019.21,534.26,1015.92,540Z"/><path class="j" d="M1015.92,540h11.18q-.64-8.1-1.56-16.12C1022.44,528.88,1019.21,534.26,1015.92,540Z"/><path class="k" d="M1015.92,540h11.18q-.64-8.1-1.56-16.12C1022.44,528.88,1019.21,534.26,1015.92,540Z"/><path class="v" d="M1015.92,540h11.18q-.64-8.1-1.56-16.12C1022.44,528.88,1019.21,534.26,1015.92,540Z"/><path class="cb" d="M1015.92,540h11.18q-.64-8.1-1.56-16.12C1022.44,528.88,1019.21,534.26,1015.92,540Z"/><path class="c" d="M757.06,430.94l-.45-.66,0,0Z"/><path class="cc" d="M757.06,430.94l-.45-.66,0,0Z"/><path class="cd" d="M757.06,430.94l-.45-.66,0,0Z"/><path class="c" d="M787.74,455.91c-10.41-8.75-20.83-17.12-31.13-25.63l.45.66c5.07,7.15,6.44,9.86,9.39,14.67C785,465.4,807.53,498,822.76,540h43.15C841.42,503.77,814.52,478.48,787.74,455.91Z"/><path class="ce" d="M787.74,455.91c-10.41-8.75-20.83-17.12-31.13-25.63l.45.66c5.07,7.15,6.44,9.86,9.39,14.67C785,465.4,807.53,498,822.76,540h43.15C841.42,503.77,814.52,478.48,787.74,455.91Z"/><path class="k" d="M787.74,455.91c-10.41-8.75-20.83-17.12-31.13-25.63l.45.66c5.07,7.15,6.44,9.86,9.39,14.67C785,465.4,807.53,498,822.76,540h43.15C841.42,503.77,814.52,478.48,787.74,455.91Z"/><path class="cf" d="M787.74,455.91c-10.41-8.75-20.83-17.12-31.13-25.63l.45.66c5.07,7.15,6.44,9.86,9.39,14.67C785,465.4,807.53,498,822.76,540h43.15C841.42,503.77,814.52,478.48,787.74,455.91Z"/><path class="c" d="M787.74,455.91c26.78,22.57,53.68,47.86,78.17,84.09h.27C841.56,503.57,814.66,478.49,787.74,455.91Z"/><path class="cg" d="M787.74,455.91c26.78,22.57,53.68,47.86,78.17,84.09h.27C841.56,503.57,814.66,478.49,787.74,455.91Z"/><path class="k" d="M787.74,455.91c26.78,22.57,53.68,47.86,78.17,84.09h.27C841.56,503.57,814.66,478.49,787.74,455.91Z"/><path class="v" d="M787.74,455.91c26.78,22.57,53.68,47.86,78.17,84.09h.27C841.56,503.57,814.66,478.49,787.74,455.91Z"/><path class="ch" d="M787.74,455.91c26.78,22.57,53.68,47.86,78.17,84.09h.27C841.56,503.57,814.66,478.49,787.74,455.91Z"/></svg>