<svg xmlns="http://www.w3.org/2000/svg" xmlns:xlink="http://www.w3.org/1999/xlink" viewBox="0 0 1046.38 1080"><defs><style>.a{fill:none;}.b{clip-path:url(#a);}.c{fill:url(#b);}.d{fill:url(#c);}.e{fill:url(#d);}.f{fill:url(#e);}.g{fill:url(#f);}.h{fill:url(#g);}.i{fill:url(#h);}.j{fill:url(#i);}.k{fill:url(#j);}.l{fill:url(#k);}.m,.p{opacity:0.5;isolation:isolate;}.m{fill:url(#l);}.n{fill:url(#m);}.o{fill:url(#n);}.p{fill:url(#o);}.q{fill:url(#p);}.r{fill:url(#q);}</style><clipPath id="a" transform="translate(-16.81 0)"><rect class="a" width="1080" height="810"/></clipPath><linearGradient id="b" x1="-14616.09" y1="9034.9" x2="-14327.13" y2="9034.9" gradientTransform="matrix(0.76, 0.03, 0.05, -1.12, 11513.83, 10994.59)" gradientUnits="userSpaceOnUse"><stop offset="0" stop-color="#0083ff"/><stop offset="0.1" stop-color="#0092f8"/><stop offset="0.31" stop-color="#00abeb"/><stop offset="0.52" stop-color="#00bee1"/><stop offset="0.75" stop-color="#00c8dc"/><stop offset="1" stop-color="#00ccda"/></linearGradient><radialGradient id="c" cx="-7575.56" cy="8666.5" r="434.21" gradientTransform="matrix(2.45, 0, 0, -2.45, 19303.48, 21442.91)" gradientUnits="userSpaceOnUse"><stop offset="0.03" stop-color="#005fe7"/><stop offset="0.18" stop-color="#0042b4"/><stop offset="0.32" stop-color="#002989"/><stop offset="0.4" stop-color="#002079"/><stop offset="0.47" stop-color="#131d78"/><stop offset="0.66" stop-color="#3b1676"/><stop offset="0.75" stop-color="#4a1475"/></radialGradient><linearGradient id="d" x1="609.2" y1="11.66" x2="399.09" y2="698.99" gradientTransform="matrix(1, 0, 0, -1, 1, 812)" gradientUnits="userSpaceOnUse"><stop offset="0" stop-color="#000f43" stop-opacity="0.4"/><stop offset="0.48" stop-color="#001962" stop-opacity="0.17"/><stop offset="1" stop-color="#002079" stop-opacity="0"/></linearGradient><linearGradient id="e" x1="610.2" y1="11.66" x2="400.09" y2="698.99" gradientTransform="matrix(1, 0, 0, -1, 0, 812)" xlink:href="#d"/><linearGradient id="f" x1="-8214.56" y1="7159.67" x2="-8341.05" y2="7169.43" gradientTransform="matrix(1.22, 0.12, 0.12, -1.22, 10179.69, 10616.28)" gradientUnits="userSpaceOnUse"><stop offset="0" stop-color="#812cc9"/><stop offset="1" stop-color="#005fe7"/></linearGradient><linearGradient id="g" x1="-8306.5" y1="7345.78" x2="-8188.02" y2="7468.84" gradientTransform="matrix(1.22, 0.12, 0.12, -1.22, 10179.69, 10616.28)" gradientUnits="userSpaceOnUse"><stop offset="0.05" stop-color="#005fe7"/><stop offset="0.18" stop-color="#065de6"/><stop offset="0.35" stop-color="#1856e1"/><stop offset="0.56" stop-color="#354adb"/><stop offset="0.78" stop-color="#5d3ad1"/><stop offset="0.95" stop-color="#812cc9"/></linearGradient><linearGradient id="h" x1="-8527.22" y1="7047.2" x2="-8273.8" y2="7046.61" gradientTransform="matrix(1.22, 0.12, 0.12, -1.22, 10179.69, 10616.28)" gradientUnits="userSpaceOnUse"><stop offset="0" stop-color="#002079"/><stop offset="0.99" stop-color="#a238ff"/></linearGradient><radialGradient id="i" cx="631.88" cy="398.67" fx="709.2234999081891" fy="327.80056717280394" r="435.7" gradientTransform="matrix(2, 0, 0, -2, -540, 1219)" gradientUnits="userSpaceOnUse"><stop offset="0.2" stop-color="#00fdff"/><stop offset="0.26" stop-color="#0af1ff"/><stop offset="0.37" stop-color="#23d2ff"/><stop offset="0.52" stop-color="#4da0ff"/><stop offset="0.69" stop-color="#855bff"/><stop offset="0.77" stop-color="#a238ff"/><stop offset="0.81" stop-color="#a738fd"/><stop offset="0.85" stop-color="#b539f9"/><stop offset="0.91" stop-color="#cd39f1"/><stop offset="0.96" stop-color="#ee3ae6"/><stop offset="0.98" stop-color="#ff3be0"/></radialGradient><linearGradient id="j" x1="-7380.28" y1="8997.52" x2="-7459.41" y2="8108.14" gradientTransform="matrix(1.23, 0, 0, -1.23, 9921.74, 10923.95)" gradientUnits="userSpaceOnUse"><stop offset="0" stop-color="#00ec00"/><stop offset="0.1" stop-color="#00e244"/><stop offset="0.22" stop-color="#00d694"/><stop offset="0.31" stop-color="#00cfc7"/><stop offset="0.35" stop-color="#00ccda"/><stop offset="0.42" stop-color="#0bc2dd" stop-opacity="0.92"/><stop offset="0.57" stop-color="#29a7e4" stop-opacity="0.72"/><stop offset="0.77" stop-color="#597df0" stop-opacity="0.4"/><stop offset="1" stop-color="#9448ff" stop-opacity="0"/></linearGradient><linearGradient id="k" x1="-8827.03" y1="7524.51" x2="-8677.25" y2="7524.51" gradientTransform="matrix(1.22, 0.12, 0.12, -1.22, 10179.69, 10616.28)" gradientUnits="userSpaceOnUse"><stop offset="0" stop-color="#005fe7"/><stop offset="0.46" stop-color="#0071f3" stop-opacity="0.51"/><stop offset="0.83" stop-color="#007efc" stop-opacity="0.14"/><stop offset="1" stop-color="#0083ff" stop-opacity="0"/></linearGradient><radialGradient id="l" cx="-8739.37" cy="7545.79" r="91.08" gradientTransform="matrix(2.44, 0.25, 0.25, -2.44, 19819.38, 20827.56)" gradientUnits="userSpaceOnUse"><stop offset="0.63" stop-color="#ffe302" stop-opacity="0"/><stop offset="0.67" stop-color="#ffe302" stop-opacity="0.05"/><stop offset="0.75" stop-color="#ffe302" stop-opacity="0.19"/><stop offset="0.86" stop-color="#ffe302" stop-opacity="0.4"/><stop offset="0.99" stop-color="#ffe302" stop-opacity="0.7"/></radialGradient><linearGradient id="m" x1="284.36" y1="1816.98" x2="155.04" y2="2093.39" gradientTransform="matrix(1, 0.1, 0.1, -1, -268.29, 2121.11)" gradientUnits="userSpaceOnUse"><stop offset="0.19" stop-color="#4a1475" stop-opacity="0.5"/><stop offset="0.62" stop-color="#2277ac" stop-opacity="0.23"/><stop offset="0.94" stop-color="#00ccda" stop-opacity="0"/></linearGradient><linearGradient id="n" x1="43.08" y1="50.5" x2="146.37" y2="-66.81" gradientTransform="matrix(1, 0.1, 0.1, -1, 210.84, 560.7)" gradientUnits="userSpaceOnUse"><stop offset="0.01" stop-color="#002079" stop-opacity="0.5"/><stop offset="1" stop-color="#0083ff" stop-opacity="0"/></linearGradient><linearGradient id="o" x1="238.47" y1="-150.69" x2="238.52" y2="-92.06" gradientTransform="matrix(1, 0.1, 0.1, -1, 210.84, 560.7)" gradientUnits="userSpaceOnUse"><stop offset="0.01" stop-color="#4a1475" stop-opacity="0.9"/><stop offset="0.18" stop-color="#6720a2" stop-opacity="0.6"/><stop offset="0.38" stop-color="#812acb" stop-opacity="0.34"/><stop offset="0.57" stop-color="#9332e8" stop-opacity="0.15"/><stop offset="0.76" stop-color="#9e36f9" stop-opacity="0.04"/><stop offset="0.93" stop-color="#a238ff" stop-opacity="0"/></linearGradient><linearGradient id="p" x1="697.88" y1="772.36" x2="1033.36" y2="22.18" gradientTransform="matrix(1, 0, 0, -1, 0, 812)" gradientUnits="userSpaceOnUse"><stop offset="0" stop-color="#00ec00" stop-opacity="0"/><stop offset="0.28" stop-color="#00dc6d" stop-opacity="0.5"/><stop offset="0.5" stop-color="#00d1bb" stop-opacity="0.86"/><stop offset="0.6" stop-color="#00ccda"/><stop offset="0.68" stop-color="#04c9db"/><stop offset="0.75" stop-color="#0fc1df"/><stop offset="0.83" stop-color="#23b2e6"/><stop offset="0.9" stop-color="#3e9ef0"/><stop offset="0.97" stop-color="#6184fc"/><stop offset="0.98" stop-color="#6680fe"/></linearGradient><linearGradient id="q" x1="764.12" y1="340.92" x2="605.21" y2="-85.76" gradientTransform="matrix(1, 0, 0, -1, 0, 812)" gradientUnits="userSpaceOnUse"><stop offset="0" stop-color="#0083ff"/><stop offset="0.04" stop-color="#0083ff" stop-opacity="0.92"/><stop offset="0.14" stop-color="#0083ff" stop-opacity="0.71"/><stop offset="0.26" stop-color="#0083ff" stop-opacity="0.52"/><stop offset="0.37" stop-color="#0083ff" stop-opacity="0.36"/><stop offset="0.49" stop-color="#0083ff" stop-opacity="0.23"/><stop offset="0.61" stop-color="#0083ff" stop-opacity="0.13"/><stop offset="0.73" stop-color="#0083ff" stop-opacity="0.06"/><stop offset="0.86" stop-color="#0083ff" stop-opacity="0.01"/><stop offset="1" stop-color="#0083ff" stop-opacity="0"/></linearGradient></defs><g class="b"><path class="c" d="M862.24,100.49C836,131.09,823.72,200,850.37,269.8s67.5,54.65,93,125.86c33.61,93.95,18,220.15,18,220.15s40.41,117,68.56-7.28C1092.18,375.08,862.24,158,862.24,100.49Z" transform="translate(-16.81 0)"/><path class="d" d="M540.26,1067.74c269.16,0,487.21-219.23,487.21-489.54S809.42,88.65,540.52,88.65,53.58,307.88,53.58,578.19C53.06,848.77,271.36,1067.74,540.26,1067.74Z" transform="translate(-16.81 0)"/><path class="e" d="M906.58,882a271.25,271.25,0,0,1-33.06,20,773.09,773.09,0,0,0,42-69.11c10.39-11.49,19.9-22.66,27.65-34.74,3.77-5.93,8-13.26,12.53-21.75,27.35-49.28,57.51-129,58.36-210.95v-.2c0-2,0-4,0-6a282.75,282.75,0,0,0-6.27-61.19c.22,1.57.41,3.14.61,4.71-.24-1.21-.45-2.43-.71-3.64.41,2.24.73,4.39,1.08,6.57,5.59,47.43,1.6,93.7-18.31,127.81-.32.5-.64,1-1,1.45,10.33-51.84,13.79-109.08,2.29-166.39,0,0-4.59-27.86-38.82-112.43-19.71-48.68-54.7-88.59-85.61-117.67-27.1-33.53-51.71-56-65.28-70.31-28.35-29.85-40.23-52.22-45.1-66.81-4.23-2.12-58.32-54.67-62.62-56.67-23.61,36.61-97.86,151.11-62.54,258.09,16,48.48,56.48,98.8,98.85,127,1.86,2.13,25.21,27.49,36.31,84.69,11.48,59.1,5.45,105.21-18.15,173.4-27.76,59.82-98.86,119-165.43,125C441.13,825.78,389,741.38,389,741.38c50.86,20.34,107.09,16.08,141.28-5,34.47-21.32,55.31-37.12,72.23-30.89,16.69,6.2,30-11.81,18.05-30.48a86.17,86.17,0,0,0-87.15-37.94c-34.5,5.61-66.1,32.93-111.3,6.47a95.29,95.29,0,0,1-8.49-5.56c-3-2,9.69,3,6.74.76-8.8-4.78-24.37-15.2-28.41-18.9-.67-.62,6.83,2.39,6.15,1.77-42.26-34.8-37-58.31-35.66-73.06,1.07-11.8,8.74-26.92,21.68-33,6.25,3.41,10.14,6,10.14,6s-2.66-5.44-4.1-8.31c.5-.22,1-.16,1.49-.38,5.12,2.47,16.44,8.89,22.4,12.81C421.83,531.1,424.3,536,424.3,536s2.05-1.13.53-5.9c-.54-2-2.9-8.18-10.59-14.46l.48,0a89.14,89.14,0,0,1,13,9.05c2.16-7.89,6.06-16.11,5.2-30.84-.52-10.35-.28-13-2.1-17-1.63-3.43.91-4.77,3.75-1.2a36.33,36.33,0,0,0-2.42-8.12l0-.27c3.54-12.33,74.91-44.41,80.1-48.16a73.92,73.92,0,0,0,21-22.83c4-6.32,7-15.2,7.68-28.66.39-9.71-4.12-16.17-76.28-23.73C445,342,433.38,327.65,426.8,314.45c-1.2-2.84-2.42-5.41-3.65-8a63.62,63.62,0,0,1-2.81-9.25c11.8-33.89,31.62-62.54,60.77-84.18,1.59-1.45-6.34.37-4.76-1.08,1.85-1.69,13.95-6.56,16.23-7.66,2.79-1.31-11.94-7.57-24.95-6-13.24,1.5-16.06,3.08-23.13,6.07,2.94-2.92,12.27-6.75,10.08-6.72-14.28,2.19-32,10.49-47.2,19.89a11.81,11.81,0,0,1,.91-4.77c-7.07,3-24.43,15.13-29.48,25.4a51.08,51.08,0,0,0,.29-5.93,92.42,92.42,0,0,0-14.48,15.17l-.27.24c-41-16.52-77.08-17.59-107.62-10.18-6.67-6.71-9.94-1.81-25.14-35.2-1-2,.8,2,0,0-2.5-6.48,1.53,8.64,0,0-25.55,20.16-59.18,43-75.32,59.15-.2.64,18.83-5.38,0,0-6.59,1.88-6.14,5.79-7.15,41.16-.24,2.68,0,5.68-.24,8.09C136,327,127.2,341,123.88,348.16c-16.67,28.74-35,73.53-52.84,144.39a366.9,366.9,0,0,1,28.3-55.33c-14.81,37.61-29.12,96.67-32,187.62a529.59,529.59,0,0,1,13.76-55.6,519,519,0,0,0,38.13,220.68c10.24,25.05,27.17,63.06,56,104.71,90.59,95.31,218.36,154.64,359.84,154.64C682.8,1049.28,815.44,984.66,906.58,882Z" transform="translate(-16.81 0)"/><path class="f" d="M906.58,882a271.25,271.25,0,0,1-33.06,20,773.09,773.09,0,0,0,42-69.11c10.39-11.49,19.9-22.66,27.65-34.74,3.77-5.93,8-13.26,12.53-21.75,27.35-49.28,57.51-129,58.36-210.95v-.2c0-2,0-4,0-6a282.75,282.75,0,0,0-6.27-61.19c.22,1.57.41,3.14.61,4.71-.24-1.21-.45-2.43-.71-3.64.41,2.24.73,4.39,1.08,6.57,5.59,47.43,1.6,93.7-18.31,127.81-.32.5-.64,1-1,1.45,10.33-51.84,13.79-109.08,2.29-166.39,0,0-4.59-27.86-38.82-112.43-19.71-48.68-54.7-88.59-85.61-117.67-27.1-33.53-51.71-56-65.28-70.31-28.35-29.85-40.23-52.22-45.1-66.81-4.23-2.12-58.32-54.67-62.62-56.67-23.61,36.61-97.86,151.11-62.54,258.09,16,48.48,56.48,98.8,98.85,127,1.86,2.13,25.21,27.49,36.31,84.69,11.48,59.1,5.45,105.21-18.15,173.4-27.76,59.82-98.86,119-165.43,125C441.13,825.78,389,741.38,389,741.38c50.86,20.34,107.09,16.08,141.28-5,34.47-21.32,55.31-37.12,72.23-30.89,16.69,6.2,30-11.81,18.05-30.48a86.17,86.17,0,0,0-87.15-37.94c-34.5,5.61-66.1,32.93-111.3,6.47a95.29,95.29,0,0,1-8.49-5.56c-3-2,9.69,3,6.74.76-8.8-4.78-24.37-15.2-28.41-18.9-.67-.62,6.83,2.39,6.15,1.77-42.26-34.8-37-58.31-35.66-73.06,1.07-11.8,8.74-26.92,21.68-33,6.25,3.41,10.14,6,10.14,6s-2.66-5.44-4.1-8.31c.5-.22,1-.16,1.49-.38,5.12,2.47,16.44,8.89,22.4,12.81C421.83,531.1,424.3,536,424.3,536s2.05-1.13.53-5.9c-.54-2-2.9-8.18-10.59-14.46l.48,0a89.14,89.14,0,0,1,13,9.05c2.16-7.89,6.06-16.11,5.2-30.84-.52-10.35-.28-13-2.1-17-1.63-3.43.91-4.77,3.75-1.2a36.33,36.33,0,0,0-2.42-8.12l0-.27c3.54-12.33,74.91-44.41,80.1-48.16a73.92,73.92,0,0,0,21-22.83c4-6.32,7-15.2,7.68-28.66.39-9.71-4.12-16.17-76.28-23.73C445,342,433.38,327.65,426.8,314.45c-1.2-2.84-2.42-5.41-3.65-8a63.62,63.62,0,0,1-2.81-9.25c11.8-33.89,31.62-62.54,60.77-84.18,1.59-1.45-6.34.37-4.76-1.08,1.85-1.69,13.95-6.56,16.23-7.66,2.79-1.31-11.94-7.57-24.95-6-13.24,1.5-16.06,3.08-23.13,6.07,2.94-2.92,12.27-6.75,10.08-6.72-14.28,2.19-32,10.49-47.2,19.89a11.81,11.81,0,0,1,.91-4.77c-7.07,3-24.43,15.13-29.48,25.4a51.08,51.08,0,0,0,.29-5.93,92.42,92.42,0,0,0-14.48,15.17l-.27.24c-41-16.52-77.08-17.59-107.62-10.18-6.67-6.71-9.94-1.81-25.14-35.2-1-2,.8,2,0,0-2.5-6.48,1.53,8.64,0,0-25.55,20.16-59.18,43-75.32,59.15-.2.64,18.83-5.38,0,0-6.59,1.88-6.14,5.79-7.15,41.16-.24,2.68,0,5.68-.24,8.09C136,327,127.2,341,123.88,348.16c-16.67,28.74-35,73.53-52.84,144.39a366.9,366.9,0,0,1,28.3-55.33c-14.81,37.61-29.12,96.67-32,187.62a529.59,529.59,0,0,1,13.76-55.6,519,519,0,0,0,38.13,220.68c10.24,25.05,27.17,63.06,56,104.71,90.59,95.31,218.36,154.64,359.84,154.64C682.8,1049.28,815.44,984.66,906.58,882Z" transform="translate(-16.81 0)"/><path class="g" d="M797.29,951.26c178.76-20.7,257.89-204.91,156.27-208.53C861.77,739.79,712.61,961,797.29,951.26Z" transform="translate(-16.81 0)"/><path class="h" d="M966.43,705.1c123-71.58,90.92-226.19,90.92-226.19s-47.47,55.14-79.71,143C945.78,709,892.49,748.33,966.43,705.1Z" transform="translate(-16.81 0)"/><path class="i" d="M576,1042.75c171.47,54.72,318.84-80.36,228-125.47C721.4,876.6,494.61,1016.88,576,1042.75Z" transform="translate(-16.81 0)"/><path class="j" d="M717.69,23.51l.59-.63A2,2,0,0,0,717.69,23.51ZM979.21,770.74c4.17-5.88,9.81-24.73,14.8-33.15,30.26-48.87,30.48-87.83,30.48-88.73,18.28-91.33,16.62-128.63,5.38-197.6-9.06-55.54-48.65-135.11-82.95-173.42-35.34-39.47-10.44-26.61-44.66-55.45-30-33.24-59.07-66.17-74.91-79.41C712.9,47.3,715.49,27,717.69,23.51l-1.61,1.8c-1.36-5.4-2.32-9.94-2.32-9.94S651.2,77.93,638,182.2c-8.6,68.07,16.89,139,53.78,184.39a418.7,418.7,0,0,0,64.76,63.65v0c27.88,40,43.22,89.43,43.22,142.58,0,133.07-107.93,241-241.08,241a241.62,241.62,0,0,1-53.93-6.06c-62.82-12-99.1-43.66-117.19-65.17-10.37-12.33-14.78-21.32-14.78-21.32,56.29,20.16,118.52,15.95,156.37-5,38.14-21.14,61.22-36.82,79.94-30.64,18.46,6.16,33.16-11.7,20-30.22-12.92-18.49-46.54-45-96.45-37.63-38.19,5.56-73.16,32.66-123.19,6.42a108.76,108.76,0,0,1-9.39-5.51c-3.3-1.95,10.72,3,7.45.75-9.74-4.74-27-15.07-31.44-18.74-.74-.62,7.55,2.37,6.81,1.75C336.11,567.9,342,544.59,343.42,530c1.18-11.7,9.67-26.69,24-32.77,6.91,3.38,11.22,6,11.22,6s-2.95-5.4-4.54-8.24c.56-.22,1.09-.16,1.64-.38,5.67,2.45,18.2,8.82,24.79,12.7,8.59,5.43,11.33,10.27,11.33,10.27s2.27-1.11.59-5.85c-.61-1.94-3.21-8.11-11.72-14.34l.53.06a98.77,98.77,0,0,1,14.41,9c2.4-7.82,6.72-16,5.77-30.58-.58-10.26-.31-12.92-2.33-16.89-1.81-3.4,1-4.73,4.15-1.19a32.78,32.78,0,0,0-2.68-8.06l0-.26c3.91-12.23,82.9-44,88.65-47.76A77.35,77.35,0,0,0,532.49,379c4.39-6.27,7.7-15.07,8.5-28.42.27-6-1.58-10.77-22.5-15.32-12.55-2.74-32-5.4-61.94-8.21-21.84-1.92-34.65-16.1-41.94-29.19-1.32-2.82-2.68-5.38-4-7.93a58.24,58.24,0,0,1-3.11-9.17,173.92,173.92,0,0,1,67.26-83.49c1.75-1.43-7,.37-5.27-1.06,2.05-1.68,15.43-6.51,18-7.6,3.09-1.3-13.22-7.51-27.61-6-14.66,1.48-17.78,3.05-25.6,6,3.25-2.89,13.57-6.69,11.15-6.66-15.8,2.17-35.45,10.4-52.24,19.72a10.6,10.6,0,0,1,1-4.73c-7.82,3-27,15-32.63,25.19a44.49,44.49,0,0,0,.33-5.88,97.52,97.52,0,0,0-16,15l-.29.24c-45.39-16.39-85.32-17.45-119.11-10.1-7.4-6.65-19.28-16.71-36.11-49.83-1.14-2-1.75,4.12-2.63,2.15-6.54-15.16-10.48-40-9.84-57.12,0,0-13.52,6.16-24.7,31.89-2.08,4.63-3.42,7.18-4.75,9.73-.61.75,1.39-8.45,1.07-7.95-1.94,3.29-7,7.9-9.19,13.85-1.51,4.41-3.64,6.89-5,12.39l-.32.5c-.11-1.62.4-6.67,0-5.63a258.06,258.06,0,0,0-13.51,32.75c-6,19.81-13,46.77-14.15,81.84-.27,2.66,0,5.64-.27,8-14.27,16.29-24,30.09-27.67,37.24-18.46,28.5-38.78,72.92-58.49,143.19A351,351,0,0,1,52.2,419.56C35.82,456.86,20,515.43,16.81,605.63A480.8,480.8,0,0,1,32,550.49c-2.83,60.15,4.17,134.72,42.2,218.85,22.57,49.48,74.55,150,201.53,228.4h0S319,1029.91,393.22,1054c5.49,2,11,4,16.72,5.85-1.78-.72-3.5-1.47-5.18-2.25A532.25,532.25,0,0,0,557.11,1080c192.27.16,249-77,249-77l-.56.41q4.07-3.83,7.84-8c-30.34,28.65-99.57,30.55-125.45,28.48,44.15-13,73.2-23.93,129.7-45.57q9.92-3.67,20.28-8.39c.75-.33,1.5-.69,2.26-1,1.37-.64,2.72-1.24,4.11-1.91a383.22,383.22,0,0,0,77.11-48.28c56.75-45.33,69.1-89.51,75.55-118.65-.9,2.8-3.71,9.31-5.68,13.52-14.61,31.26-47,50.44-82.21,66.9a758.39,758.39,0,0,0,46.52-68.53c11.49-11.39,15.08-29.22,23.66-41.2Z" transform="translate(-16.81 0)"/><path class="k" d="M910.14,879.13c23.14-25.51,43.91-54.69,59.65-87.77,40.5-85.15,103.12-226.74,53.8-374.61-39-116.87-92.49-180.77-160.44-243.2C752.8,72.17,722,26.91,722,0c0,0-127.42,142-72.16,290.17s168.43,142.71,243.31,297.3c88.1,181.92-71.29,380.43-203.1,436,8.07-1.79,293-66.28,308-229.26C997.68,797.2,991.26,842.28,910.14,879.13Z" transform="translate(-16.81 0)"/><path class="l" d="M541,350.53c.43-9.62-4.56-16.09-84.16-23.56-32.75-3-45.3-33.29-49.12-46-11.64,30.26-16.45,62-13.87,100.4,1.77,25.16,18.67,52.16,26.75,68,0,0,1.8-2.33,2.62-3.19,15.22-15.84,79-40,84.95-43.4C514.77,398.59,539.89,380.23,541,350.53Z" transform="translate(-16.81 0)"/><path class="m" d="M541,350.53c.43-9.62-4.56-16.09-84.16-23.56-32.75-3-45.3-33.29-49.12-46-11.64,30.26-16.45,62-13.87,100.4,1.77,25.16,18.67,52.16,26.75,68,0,0,1.8-2.33,2.62-3.19,15.22-15.84,79-40,84.95-43.4C514.77,398.59,539.89,380.23,541,350.53Z" transform="translate(-16.81 0)"/><path class="n" d="M190.57,171.74c-1.14-2-1.75,4.12-2.63,2.15-6.54-15.16-10.51-39.73-9.57-57.1,0,0-13.52,6.16-24.71,31.9-2.08,4.62-3.41,7.17-4.74,9.73-.62.74,1.38-8.45,1.06-7.95-1.94,3.29-7,7.89-9.16,13.58-1.81,4.65-3.67,7.15-5.06,12.92-.43,1.57.43-6.94.06-5.91-26,50.3-31,126.35-28.25,123.13C163,235,226.46,221,226.46,221c-6.75-5-21.43-19.34-35.89-49.26Z" transform="translate(-16.81 0)"/><path class="o" d="M400.79,790.35c-76.53-32.67-163.53-78.75-160.25-183.44C245,469,369.11,496.29,369.11,496.29c-4.68,1.14-17.2,10.06-21.64,19.56-4.69,11.88-13.25,38.72,12.68,66.84,40.7,44.11-83.64,104.66,108.28,219,4.84,2.63-45-1.57-67.65-11.37Z" transform="translate(-16.81 0)"/><path class="p" d="M373.6,721.65c54.27,18.88,117.48,15.57,155.33-5.34,25.34-14.1,57.84-36.69,77.84-31.11-17.32-6.85-30.43-10.05-46.21-10.83-2.68,0-5.9-.06-8.83-.35a149,149,0,0,0-17.29,1c-9.77.89-20.6,7.06-30.44,6.07-.54-.06,9.54-4.14,8.72-4-5.21,1.09-10.88,1.32-16.87,2.07-3.8.42-7.07.9-10.85,1.05C372,689.79,276.44,619,276.44,619c-8.13,27.38,36.41,81.54,97.16,102.7Z" transform="translate(-16.81 0)"/><path class="q" d="M909.94,879.86c114.32-112.25,172.16-248.7,147.71-401.73,0,0,9.77,78.47-27.27,158.74,17.79-78.36,19.87-175.74-27.41-276.58-63.1-134.59-166.88-205.41-206.5-235-60-44.77-84.92-90.35-85.37-99.76-17.93,36.75-72.18,162.66-5.83,271.1,62.17,101.6,160.1,131.75,228.66,224.94C1060.23,693.29,909.94,879.86,909.94,879.86Z" transform="translate(-16.81 0)"/><path class="r" d="M893.56,587.8c-39.95-82.54-89.82-118.54-137-157.56,5.49,7.69,6.84,10.4,9.88,15.37C808,489.86,869.19,597.79,824.74,733.29c-83.67,255-418.33,134.94-453.42,101.21C385.52,982.11,632.58,1052.74,793.45,957,885,870.37,959,723.06,893.56,587.8Z" transform="translate(-16.81 0)"/></g></svg>