<svg xmlns="http://www.w3.org/2000/svg" xmlns:xlink="http://www.w3.org/1999/xlink" viewBox="0 0 1046.38 1080"><defs><style>.a{fill:none;}.b{clip-path:url(#a);}.c{fill:url(#b);}.d{fill:url(#c);}.e{fill:url(#d);}.f{fill:url(#e);}.g{fill:url(#f);}.h{fill:url(#g);}.i{fill:url(#h);}.j{fill:url(#i);}.k{fill:url(#j);}.l{fill:url(#k);}.m{fill:url(#l);}.n{fill:url(#m);}.o{fill:url(#n);}.p{fill:url(#o);}</style><clipPath id="a" transform="translate(-16.81)"><rect class="a" width="1080" height="810"/></clipPath><radialGradient id="b" cx="-14516.29" cy="9080.09" fx="-14548.869313103296" r="510.76" gradientTransform="matrix(0.74, 0.03, 0.05, -1.09, 11290.78, 10601.5)" gradientUnits="userSpaceOnUse"><stop offset="0.04" stop-color="#ffea00"/><stop offset="0.12" stop-color="#ffde00"/><stop offset="0.25" stop-color="#ffbf00"/><stop offset="0.43" stop-color="#ff8e00"/><stop offset="0.77" stop-color="#ff272d"/><stop offset="0.87" stop-color="#e0255a"/><stop offset="0.95" stop-color="#cc2477"/><stop offset="1" stop-color="#c42482"/></radialGradient><radialGradient id="c" cx="-7408.09" cy="8671.47" r="896.33" gradientTransform="matrix(1.19, 0, 0, -1.19, 9537.01, 10503.82)" gradientUnits="userSpaceOnUse"><stop offset="0" stop-color="#00ccda"/><stop offset="0.22" stop-color="#0083ff"/><stop offset="0.26" stop-color="#007af9"/><stop offset="0.33" stop-color="#0060e8"/><stop offset="0.33" stop-color="#005fe7"/><stop offset="0.44" stop-color="#2639ad"/><stop offset="0.52" stop-color="#401e84"/><stop offset="0.57" stop-color="#4a1475"/></radialGradient><linearGradient id="d" x1="610.21" y1="11.67" x2="400.09" y2="698.99" gradientTransform="matrix(1, 0, 0, -1, 0, 812)" gradientUnits="userSpaceOnUse"><stop offset="0" stop-color="#000f43" stop-opacity="0.4"/><stop offset="0.48" stop-color="#001962" stop-opacity="0.17"/><stop offset="1" stop-color="#002079" stop-opacity="0"/></linearGradient><radialGradient id="e" cx="-8120.39" cy="7190.55" r="302.34" gradientTransform="matrix(1.18, 0.12, 0.12, -1.18, 9840.05, 10157.55)" gradientUnits="userSpaceOnUse"><stop offset="0" stop-color="#ffea00"/><stop offset="0.5" stop-color="#ff272d"/><stop offset="1" stop-color="#c42482"/></radialGradient><radialGradient id="f" cx="-8147.74" cy="7480.45" r="504.88" gradientTransform="matrix(1.18, 0.12, 0.12, -1.18, 9840.05, 10157.55)" gradientUnits="userSpaceOnUse"><stop offset="0" stop-color="#ffe900"/><stop offset="0.16" stop-color="#ffaf0e"/><stop offset="0.32" stop-color="#ff7a1b"/><stop offset="0.47" stop-color="#ff4e26"/><stop offset="0.62" stop-color="#ff2c2e"/><stop offset="0.76" stop-color="#ff1434"/><stop offset="0.89" stop-color="#ff0538"/><stop offset="1" stop-color="#ff0039"/></radialGradient><radialGradient id="g" cx="-8076.33" cy="7012.44" r="463.28" gradientTransform="matrix(1.18, 0.12, 0.12, -1.18, 9840.05, 10157.55)" gradientUnits="userSpaceOnUse"><stop offset="0" stop-color="#ff272d"/><stop offset="0.5" stop-color="#c42482"/><stop offset="0.99" stop-color="#620700"/></radialGradient><radialGradient id="h" cx="810.19" cy="378.63" fx="841.8801828010766" fy="362.9675466429451" r="886.08" gradientTransform="matrix(0.97, 0, 0, -0.97, 16.81, 799.33)" gradientUnits="userSpaceOnUse"><stop offset="0.16" stop-color="#ffea00"/><stop offset="0.23" stop-color="#ffde00"/><stop offset="0.36" stop-color="#ffbf00"/><stop offset="0.54" stop-color="#ff8e00"/><stop offset="0.76" stop-color="#ff272d"/><stop offset="0.8" stop-color="#f92433"/><stop offset="0.84" stop-color="#e91c45"/><stop offset="0.89" stop-color="#cf0e62"/><stop offset="0.94" stop-color="#b5007f"/></radialGradient><radialGradient id="i" cx="743.52" cy="823.55" r="1046.3" gradientTransform="matrix(0.97, 0, 0, -0.97, 16.81, 799.33)" gradientUnits="userSpaceOnUse"><stop offset="0.28" stop-color="#ffea00"/><stop offset="0.4" stop-color="#fd0"/><stop offset="0.63" stop-color="#ffba00"/><stop offset="0.86" stop-color="#ff9100"/><stop offset="0.93" stop-color="#ff6711"/><stop offset="0.99" stop-color="#ff4a1d"/></radialGradient><linearGradient id="j" x1="-8885.19" y1="7369.06" x2="-8573.09" y2="7448.62" gradientTransform="matrix(1.22, 0.12, 0.12, -1.22, 10138.89, 10470.93)" gradientUnits="userSpaceOnUse"><stop offset="0" stop-color="#c42482" stop-opacity="0.5"/><stop offset="0.47" stop-color="#ff272d" stop-opacity="0.5"/><stop offset="0.49" stop-color="#ff2c2c" stop-opacity="0.51"/><stop offset="0.68" stop-color="#ff7a1a" stop-opacity="0.72"/><stop offset="0.83" stop-color="#ffb20d" stop-opacity="0.87"/><stop offset="0.94" stop-color="#ffd605" stop-opacity="0.96"/><stop offset="1" stop-color="#ffe302"/></linearGradient><linearGradient id="k" x1="216.66" y1="1826.33" x2="156.76" y2="1979.82" gradientTransform="matrix(1, 0.1, 0.1, -1, -223.67, 2080.74)" gradientUnits="userSpaceOnUse"><stop offset="0" stop-color="#891551" stop-opacity="0.6"/><stop offset="1" stop-color="#c42482" stop-opacity="0"/></linearGradient><linearGradient id="l" x1="2.72" y1="5.87" x2="106.01" y2="-111.44" gradientTransform="matrix(1, 0.1, 0.1, -1, 255.47, 520.32)" gradientUnits="userSpaceOnUse"><stop offset="0.01" stop-color="#891551" stop-opacity="0.5"/><stop offset="0.48" stop-color="#ff272d" stop-opacity="0.5"/><stop offset="1" stop-color="#ff272d" stop-opacity="0"/></linearGradient><linearGradient id="m" x1="198.11" y1="-198" x2="198.18" y2="-115.93" gradientTransform="matrix(1, 0.1, 0.1, -1, 255.47, 520.32)" gradientUnits="userSpaceOnUse"><stop offset="0" stop-color="#c42482"/><stop offset="0.08" stop-color="#c42482" stop-opacity="0.81"/><stop offset="0.21" stop-color="#c42482" stop-opacity="0.56"/><stop offset="0.33" stop-color="#c42482" stop-opacity="0.36"/><stop offset="0.45" stop-color="#c42482" stop-opacity="0.2"/><stop offset="0.56" stop-color="#c42482" stop-opacity="0.09"/><stop offset="0.67" stop-color="#c42482" stop-opacity="0.02"/><stop offset="0.77" stop-color="#c42482" stop-opacity="0"/></linearGradient><linearGradient id="n" x1="697.88" y1="772.36" x2="1033.36" y2="22.18" gradientTransform="matrix(1, 0, 0, -1, 0, 812)" gradientUnits="userSpaceOnUse"><stop offset="0" stop-color="#fff14f"/><stop offset="0.27" stop-color="#ffee4c"/><stop offset="0.45" stop-color="#ffe643"/><stop offset="0.61" stop-color="#ffd834"/><stop offset="0.76" stop-color="#ffc41e"/><stop offset="0.89" stop-color="#ffab02"/><stop offset="0.9" stop-color="#ffa900"/><stop offset="0.95" stop-color="#ffa000"/><stop offset="1" stop-color="#ff9100"/></linearGradient><linearGradient id="o" x1="764.12" y1="340.92" x2="605.21" y2="-85.76" gradientTransform="matrix(1, 0, 0, -1, 0, 812)" gradientUnits="userSpaceOnUse"><stop offset="0" stop-color="#ff8e00"/><stop offset="0.04" stop-color="#ff8e00" stop-opacity="0.86"/><stop offset="0.08" stop-color="#ff8e00" stop-opacity="0.73"/><stop offset="0.13" stop-color="#ff8e00" stop-opacity="0.63"/><stop offset="0.18" stop-color="#ff8e00" stop-opacity="0.56"/><stop offset="0.23" stop-color="#ff8e00" stop-opacity="0.51"/><stop offset="0.28" stop-color="#ff8e00" stop-opacity="0.5"/><stop offset="0.39" stop-color="#ff8e00" stop-opacity="0.48"/><stop offset="0.52" stop-color="#ff8e00" stop-opacity="0.42"/><stop offset="0.68" stop-color="#ff8e00" stop-opacity="0.31"/><stop offset="0.84" stop-color="#ff8e00" stop-opacity="0.17"/><stop offset="1" stop-color="#ff8e00" stop-opacity="0"/></linearGradient></defs><g class="b"><path class="c" d="M862.25,100.49C836,131.09,823.72,200,850.37,269.8s67.5,54.65,93,125.86c33.61,93.95,18,220.15,18,220.15s40.41,117,68.56-7.28C1092.19,375.08,862.25,158,862.25,100.49Z" transform="translate(-16.81)"/><path class="d" d="M541.52,1069.72c269.17,0,487.21-219.22,487.21-489.54S810.69,90.64,541.79,90.64,54.84,309.87,54.84,580.18C54.32,850.76,272.62,1069.72,541.52,1069.72Z" transform="translate(-16.81)"/><path class="e" d="M906.58,882a271.37,271.37,0,0,1-33.07,20,770.86,770.86,0,0,0,42-69.11c10.38-11.49,19.9-22.66,27.65-34.74,3.77-5.93,8-13.26,12.53-21.75,27.35-49.28,57.51-129,58.36-210.95v-.2c0-2,0-4,0-6a282.75,282.75,0,0,0-6.27-61.19c.22,1.57.41,3.14.61,4.71-.24-1.21-.45-2.43-.71-3.64.4,2.24.73,4.39,1.07,6.57,5.6,47.43,1.61,93.7-18.31,127.81-.31.5-.63,1-1,1.45,10.33-51.84,13.78-109.08,2.29-166.39,0,0-4.59-27.86-38.82-112.43-19.71-48.68-54.7-88.59-85.61-117.67-27.1-33.53-51.71-56-65.28-70.31-28.34-29.84-40.22-52.21-45.1-66.8-4.23-2.12-58.32-54.67-62.61-56.67-23.61,36.6-97.86,151.1-62.54,258.08,16,48.49,56.49,98.8,98.85,127,1.86,2.13,25.21,27.49,36.31,84.69,11.47,59.09,5.44,105.2-18.16,173.39-27.75,59.83-98.85,119-165.42,125C441.13,825.78,389,741.38,389,741.38c50.86,20.34,107.09,16.08,141.29-5,34.46-21.32,55.31-37.12,72.23-30.89,16.68,6.2,30-11.81,18-30.48a86.15,86.15,0,0,0-87.14-37.94c-34.5,5.61-66.11,32.93-111.31,6.47a95.13,95.13,0,0,1-8.48-5.56c-3-2,9.68,3,6.73.76-8.8-4.78-24.37-15.2-28.41-18.9-.67-.62,6.83,2.39,6.16,1.77-42.27-34.8-37-58.31-35.66-73.06,1.06-11.8,8.74-26.92,21.68-33,6.24,3.41,10.14,6,10.14,6s-2.67-5.44-4.11-8.31c.51-.22,1-.16,1.49-.38,5.12,2.47,16.44,8.89,22.4,12.81,7.76,5.47,10.24,10.36,10.24,10.36s2-1.13.53-5.9c-.55-2-2.91-8.18-10.6-14.46l.48,0a88.08,88.08,0,0,1,13,9.05c2.17-7.89,6.07-16.11,5.21-30.84-.53-10.35-.28-13-2.11-17-1.63-3.43.92-4.77,3.75-1.2a35.82,35.82,0,0,0-2.42-8.12l0-.27c3.54-12.33,74.91-44.41,80.11-48.16a73.89,73.89,0,0,0,21-22.83c4-6.32,7-15.2,7.69-28.66.39-9.71-4.13-16.17-76.29-23.73C445,342,433.38,327.65,426.8,314.45c-1.2-2.84-2.42-5.41-3.65-8a64.84,64.84,0,0,1-2.8-9.25C432.14,263.32,452,234.67,481.12,213c1.58-1.45-6.35.37-4.76-1.08,1.85-1.69,13.94-6.56,16.23-7.66,2.79-1.31-11.95-7.57-24.95-6-13.25,1.5-16.06,3.08-23.13,6.07,2.93-2.92,12.26-6.75,10.07-6.72-14.28,2.19-32,10.49-47.19,19.89a11.81,11.81,0,0,1,.91-4.77c-7.06,3-24.43,15.13-29.48,25.4a49,49,0,0,0,.29-5.93,92.84,92.84,0,0,0-14.48,15.17l-.27.24c-41-16.52-77.08-17.59-107.62-10.18-6.67-6.71-9.94-1.81-25.14-35.2-1-2,.8,2,0,0-2.5-6.48,1.53,8.64,0,0-25.55,20.16-59.18,43-75.32,59.15-.2.64,18.83-5.38,0,0-6.59,1.88-6.14,5.79-7.15,41.16-.24,2.68,0,5.68-.24,8.09C136,327,127.21,341,123.89,348.16c-16.67,28.74-35,73.53-52.84,144.39a366.8,366.8,0,0,1,28.3-55.32c-14.81,37.61-29.12,96.67-32,187.62a528.36,528.36,0,0,1,13.76-55.6,519,519,0,0,0,38.13,220.68c10.24,25,27.17,63.06,56,104.7,90.59,95.31,218.36,154.65,359.84,154.65C682.8,1049.28,815.44,984.66,906.58,882Z" transform="translate(-16.81)"/><path class="f" d="M797.29,951.26c178.76-20.7,257.89-204.91,156.27-208.53C861.77,739.79,712.61,961,797.29,951.26Z" transform="translate(-16.81)"/><path class="g" d="M966.43,705.1c123-71.58,90.92-226.19,90.92-226.19s-47.47,55.14-79.71,143C945.79,709,892.49,748.33,966.43,705.1Z" transform="translate(-16.81)"/><path class="h" d="M576,1042.75c171.47,54.72,318.84-80.36,228-125.47C721.4,876.6,494.61,1016.88,576,1042.75Z" transform="translate(-16.81)"/><path class="i" d="M979.21,770.74C983.38,764.86,989,746,994,737.59c30.27-48.87,30.49-87.83,30.49-88.73,18.28-91.33,16.62-128.63,5.38-197.6-9.06-55.54-48.65-135.11-82.95-173.42-35.34-39.47-10.44-26.61-44.66-55.45-30-33.24-59.07-66.17-74.91-79.41C712.9,47.3,715.49,27,717.69,23.51c-.37.41-.92,1-1.61,1.8-1.36-5.4-2.32-9.94-2.32-9.94S651.2,77.93,638,182.2c-8.6,68.07,16.88,139,53.78,184.39a418.26,418.26,0,0,0,64.76,63.65v0c27.88,40,43.22,89.43,43.22,142.58,0,133.07-107.94,241-241.08,241a242.2,242.2,0,0,1-53.93-6.06c-62.82-12-99.1-43.66-117.19-65.18-10.37-12.33-14.78-21.31-14.78-21.31,56.29,20.16,118.53,15.94,156.37-5,38.14-21.15,61.22-36.82,79.94-30.64,18.47,6.15,33.16-11.71,20-30.22-12.92-18.49-46.54-45-96.45-37.63-38.18,5.56-73.16,32.66-123.19,6.41a103.84,103.84,0,0,1-9.39-5.51c-3.3-1.94,10.72,3,7.45.75-9.74-4.74-27-15.07-31.44-18.74-.74-.61,7.56,2.37,6.81,1.76C336.11,567.9,342,544.58,343.42,530c1.18-11.7,9.67-26.7,24-32.78,6.92,3.39,11.22,6,11.22,6s-2.95-5.4-4.54-8.25c.56-.21,1.09-.16,1.65-.37,5.66,2.45,18.19,8.81,24.79,12.7,8.59,5.43,11.32,10.27,11.32,10.27s2.27-1.12.59-5.85c-.61-1.94-3.21-8.11-11.72-14.34l.53.05a101.17,101.17,0,0,1,14.42,9c2.4-7.81,6.71-16,5.76-30.57-.58-10.27-.31-12.93-2.33-16.89-1.81-3.4,1-4.73,4.15-1.19a32.64,32.64,0,0,0-2.68-8.06l0-.27c3.91-12.23,82.9-44,88.65-47.76A77.08,77.08,0,0,0,532.49,379c4.39-6.27,7.7-15.07,8.5-28.42.27-6-1.58-10.78-22.5-15.33-12.55-2.73-32-5.39-61.93-8.2-21.85-1.93-34.66-16.11-41.94-29.2-1.33-2.82-2.69-5.38-4-7.92a58.35,58.35,0,0,1-3.11-9.18,173.9,173.9,0,0,1,67.26-83.48c1.75-1.44-7,.36-5.27-1.07,2.05-1.67,15.43-6.51,18-7.59,3.09-1.31-13.22-7.51-27.61-6-14.66,1.48-17.77,3-25.6,6,3.25-2.9,13.57-6.7,11.15-6.67-15.8,2.17-35.45,10.4-52.24,19.73a10.75,10.75,0,0,1,1-4.74c-7.82,3-27,15-32.63,25.19a42.69,42.69,0,0,0,.32-5.87,97.07,97.07,0,0,0-16,15l-.3.24c-45.38-16.38-85.31-17.44-119.11-10.1-7.39-6.65-19.28-16.71-36.1-49.82-1.14-2-1.75,4.12-2.63,2.15-6.54-15.16-10.49-40-9.84-57.13,0,0-13.52,6.17-24.71,31.9-2.07,4.63-3.41,7.18-4.74,9.73-.61.74,1.39-8.45,1.07-7.95-1.94,3.29-7,7.89-9.19,13.85-1.52,4.41-3.65,6.88-5,12.39l-.32.5c-.11-1.62.41-6.67,0-5.64a259.62,259.62,0,0,0-13.5,32.76c-6,19.8-13,46.76-14.15,81.84-.27,2.65,0,5.63-.28,8-14.26,16.29-24,30.08-27.66,37.23-18.45,28.51-38.78,72.93-58.48,143.2A351,351,0,0,1,52.2,419.56C35.82,456.86,20,515.43,16.81,605.63A480.8,480.8,0,0,1,32,550.49c-2.83,60.15,4.17,134.72,42.2,218.85,22.57,49.48,74.54,150,201.53,228.4h0S319,1029.91,393.22,1054c5.49,2,11,4,16.72,5.85-1.78-.72-3.5-1.47-5.18-2.25A532.23,532.23,0,0,0,557.1,1080c192.28.16,249-77,249-77l-.56.41q4.07-3.83,7.84-8c-30.34,28.65-99.57,30.55-125.45,28.48,44.14-13,73.19-23.93,129.7-45.57q9.92-3.67,20.29-8.38l2.25-1c1.37-.64,2.73-1.24,4.11-1.92a383.53,383.53,0,0,0,77.12-48.27c56.74-45.33,69.09-89.52,75.54-118.65-.9,2.79-3.7,9.3-5.67,13.52-14.62,31.26-47,50.44-82.22,66.89A756.93,756.93,0,0,0,955.56,812C967,800.55,970.63,782.72,979.21,770.74Z" transform="translate(-16.81)"/><path class="j" d="M910.14,879.13c23.14-25.51,43.91-54.69,59.65-87.77,40.5-85.15,103.12-226.74,53.8-374.61-39-116.87-92.49-180.77-160.44-243.2C752.8,72.17,722,26.91,722,0c0,0-127.41,142-72.15,290.17s168.43,142.71,243.3,297.3c88.11,181.92-71.28,380.43-203.09,436,8.07-1.79,293-66.28,308-229.26C997.68,797.2,991.26,842.28,910.14,879.13Z" transform="translate(-16.81)"/><path class="k" d="M541,350.53c.43-9.62-4.56-16.09-84.17-23.56-32.75-3-45.29-33.29-49.11-46-11.64,30.26-16.45,62-13.87,100.4,1.77,25.16,18.67,52.16,26.75,68,0,0,1.8-2.33,2.62-3.19,15.22-15.84,79-40,84.95-43.4C514.77,398.59,539.89,380.23,541,350.53Z" transform="translate(-16.81)"/><path class="l" d="M190.57,171.74c-1.14-2-1.76,4.12-2.63,2.15-6.54-15.16-10.52-39.73-9.57-57.1,0,0-13.52,6.16-24.71,31.9-2.08,4.62-3.41,7.17-4.74,9.73-.62.74,1.38-8.45,1.06-7.95-1.94,3.29-7,7.89-9.16,13.58-1.81,4.65-3.67,7.15-5.06,12.92-.43,1.57.43-6.94.06-5.91-26,50.3-31,126.35-28.25,123.13C163,235,226.46,221,226.46,221c-6.75-5-21.43-19.34-35.89-49.26Z" transform="translate(-16.81)"/><path class="m" d="M400.79,790.35c-76.53-32.67-163.53-78.75-160.25-183.44C245,469,369.12,496.29,369.12,496.29c-4.69,1.14-17.21,10-21.65,19.55-4.69,11.89-13.24,38.72,12.68,66.85,40.71,44.11-83.63,104.65,108.29,219,4.84,2.64-45-1.57-67.65-11.37Z" transform="translate(-16.81)"/><path class="n" d="M373.6,721.65c54.27,18.88,117.48,15.57,155.33-5.34,25.34-14.1,57.84-36.69,77.84-31.11-17.31-6.85-30.43-10.05-46.21-10.83-2.68,0-5.9-.06-8.83-.35a149,149,0,0,0-17.29,1c-9.77.89-20.6,7.06-30.44,6.07-.54-.06,9.54-4.14,8.72-4-5.21,1.09-10.88,1.32-16.86,2.07-3.81.42-7.08.9-10.86,1.05C372,689.79,276.44,619,276.44,619c-8.13,27.38,36.41,81.54,97.16,102.7Z" transform="translate(-16.81)"/><path class="o" d="M909.94,879.86c114.32-112.25,172.16-248.7,147.71-401.73,0,0,9.77,78.47-27.27,158.74,17.79-78.36,19.87-175.74-27.41-276.58-63.1-134.59-166.88-205.41-206.51-235-60-44.77-84.91-90.35-85.36-99.76-17.93,36.75-72.18,162.66-5.83,271.1,62.17,101.6,160.1,131.75,228.65,224.94C1060.23,693.29,909.94,879.86,909.94,879.86Z" transform="translate(-16.81)"/><path class="p" d="M893.56,587.8c-40-82.54-89.82-118.54-137-157.56,5.49,7.69,6.84,10.4,9.88,15.37C808,489.86,869.18,597.79,824.74,733.29c-83.67,255-418.33,134.94-453.42,101.21C385.52,982.11,632.58,1052.74,793.45,957,885,870.37,959,723.06,893.56,587.8Z" transform="translate(-16.81)"/></g></svg>